<svg width="24" height="25" viewBox="0 0 24 25" fill="none" xmlns="http://www.w3.org/2000/svg">
<path d="M4.51663 11.9618V19.8646V20.3646H5.01663H8.79842H9.29842V19.8646V17.2464C9.29842 15.7649 10.5169 14.5465 11.9984 14.5465C13.48 14.5465 14.6984 15.7649 14.6984 17.2464V19.8646V20.3646H15.1984H18.9802H19.4802V19.8646V11.9618L20.2256 12.552V20.7373C20.2256 20.7373 20.2256 20.7373 20.2256 20.7373C20.2256 20.8362 20.1863 20.931 20.1164 21.0009C20.0465 21.0708 19.9517 21.11 19.8529 21.1101C19.8529 21.1101 19.8529 21.1101 19.8529 21.1101H14.3257L4.51663 11.9618ZM4.51663 11.9618L3.77118 12.552V20.7373C3.77118 20.7373 3.77118 20.7373 3.77118 20.7373C3.7712 20.8362 3.81048 20.931 3.88037 21.0009C3.95027 21.0708 4.04507 21.11 4.1439 21.1101L4.51663 11.9618ZM0.21812 12.5817L0.610626 12.275C0.722084 12.4176 1.00419 12.4461 1.14821 12.3181L1.15911 12.3084L1.17055 12.2994L11.6887 3.99946L11.9984 3.75504L12.3081 3.99946L22.8263 12.2994L22.8377 12.3084L22.8486 12.3181C22.9102 12.3729 23.0161 12.411 23.1373 12.4014C23.2579 12.3919 23.3381 12.3405 23.3759 12.2886C23.4044 12.2495 23.4414 12.1424 23.422 11.9952C23.4031 11.8516 23.3423 11.7588 23.2898 11.7196L23.2793 11.7118L23.2794 11.7116L12.2371 2.99404C12.1318 2.92227 12.0606 2.90913 12.0074 2.91008L0.21812 12.5817ZM0.21812 12.5817L0.610624 12.275C0.584969 12.2421 0.554908 12.1641 0.585307 12.0185C0.613481 11.8835 0.681478 11.7606 0.744433 11.6903L11.7523 2.9999M0.21812 12.5817L11.7523 2.9999M11.7523 2.9999C11.861 2.93229 11.9464 2.91117 12.0073 2.91008L11.7523 2.9999ZM9.67109 21.1101C9.67111 21.1101 9.67113 21.1101 9.67114 21.1101C9.76998 21.11 9.86477 21.0708 9.93467 21.0009C10.0046 20.931 10.0438 20.8362 10.0439 20.7373C10.0439 20.7373 10.0439 20.7373 10.0439 20.7373V17.2464C10.0439 16.1494 10.9014 15.2919 11.9984 15.2919C13.0955 15.2919 13.9529 16.1494 13.9529 17.2464V20.7373C13.9529 20.7373 13.9529 20.7373 13.9529 20.7373C13.953 20.8362 13.9922 20.931 14.0621 21.0009C14.132 21.0708 14.2268 21.11 14.3257 21.1101H9.67109ZM9.67109 21.1101H4.14395H9.67109Z" fill="#353533" stroke="white"/>
</svg>
