<svg width="24" height="25" viewBox="0 0 24 25" fill="none" xmlns="http://www.w3.org/2000/svg">
<path d="M14.1194 7.03368V7.53368H14.6194H20.7274C20.834 7.53368 20.9316 7.57421 20.9998 7.63909C21.0671 7.70317 21.1 7.78463 21.1 7.86401V15.337C21.1 15.4164 21.0671 15.4978 20.9998 15.5619C20.9316 15.6268 20.834 15.6673 20.7274 15.6673H13.7468C13.6402 15.6673 13.5427 15.6268 13.4745 15.5619C13.4071 15.4978 13.3742 15.4164 13.3742 15.337V14.5067V14.0067H12.8742H5.89358H5.39358V14.5067V21.9796C5.39358 22.059 5.36067 22.1405 5.29333 22.2045C5.22515 22.2694 5.1276 22.31 5.021 22.31C4.9144 22.31 4.81685 22.2694 4.74867 22.2045C4.68133 22.1405 4.64842 22.059 4.64842 21.9796V6.05057V5.69077L4.30726 5.57647C3.87446 5.43147 3.50686 5.1593 3.25564 4.80498C3.00474 4.45113 2.88214 4.03302 2.90213 3.6122C2.92212 3.19131 3.08398 2.78446 3.36843 2.45239C3.65323 2.11991 4.04635 1.87981 4.49193 1.77236C4.93765 1.66487 5.40792 1.69698 5.8319 1.86307C6.25566 2.02907 6.60723 2.31858 6.8383 2.6841C7.06907 3.04916 7.16872 3.4723 7.12576 3.89167C7.08279 4.31118 6.89877 4.71011 6.59593 5.02833L5.79208 5.87302H6.95813H13.7468C13.8534 5.87302 13.951 5.91355 14.0191 5.97843C14.0865 6.04251 14.1194 6.12397 14.1194 6.20335V7.03368ZM20.3549 8.69434V8.19434H19.8549H14.6194H14.1194V8.69434V14.5067V15.0067H14.6194H19.8549H20.3549V14.5067V8.69434ZM5.39358 12.846V13.346H5.89358H12.8742H13.3742V12.846V7.03368V6.53368H12.8742H5.89358H5.39358V7.03368V12.846ZM5.77406 2.60003C5.54911 2.45701 5.28711 2.38203 5.021 2.38203C4.66476 2.38203 4.31841 2.51646 4.05932 2.76301C3.79938 3.01037 3.64842 3.3513 3.64842 3.71236C3.64842 3.98116 3.73231 4.24173 3.88628 4.46099C4.04001 4.67993 4.25584 4.84695 4.50373 4.94465C4.75146 5.0423 5.02274 5.06751 5.28422 5.01801C5.54579 4.9685 5.78927 4.84575 5.98268 4.6617C6.17636 4.47741 6.31129 4.23952 6.36624 3.97665C6.42123 3.71357 6.39275 3.44118 6.28561 3.19505C6.17862 2.94925 5.99923 2.7432 5.77406 2.60003Z" fill="#353533" stroke="white"/>
</svg>
