<svg width="24" height="25" viewBox="0 0 24 25" fill="none" xmlns="http://www.w3.org/2000/svg">
<path d="M12 21.61V6.4386" stroke="white" stroke-width="1.3" stroke-linecap="round" stroke-linejoin="round"/>
<path d="M8.20715 21.61H15.7929" stroke="white" stroke-width="1.3" stroke-linecap="round" stroke-linejoin="round"/>
<path d="M13.2643 5.17432H17.6893" stroke="white" stroke-width="1.3" stroke-linecap="round" stroke-linejoin="round"/>
<path d="M6.31073 5.17432H10.7357" stroke="white" stroke-width="1.3" stroke-linecap="round" stroke-linejoin="round"/>
<path d="M12 6.43861C12.6982 6.43861 13.2643 5.87257 13.2643 5.17432C13.2643 4.47607 12.6982 3.91003 12 3.91003C11.3018 3.91003 10.7357 4.47607 10.7357 5.17432C10.7357 5.87257 11.3018 6.43861 12 6.43861Z" stroke="white" stroke-width="1.3" stroke-linecap="round" stroke-linejoin="round"/>
<path d="M9.47145 14.0243C9.47145 14.8626 9.13845 15.6665 8.5457 16.2593C7.95295 16.852 7.14901 17.185 6.31074 17.185C5.47247 17.185 4.66853 16.852 4.07578 16.2593C3.48303 15.6665 3.15002 14.8626 3.15002 14.0243H9.47145Z" stroke="white" stroke-width="1.3" stroke-linecap="round" stroke-linejoin="round"/>
<path d="M6.31074 5.17432L3.15002 11.4957" stroke="white" stroke-width="1.3" stroke-linecap="round" stroke-linejoin="round"/>
<path d="M6.31073 5.17432L9.47144 11.4957" stroke="white" stroke-width="1.3" stroke-linecap="round" stroke-linejoin="round"/>
<path d="M20.8501 14.0243C20.8501 14.8626 20.5171 15.6665 19.9243 16.2593C19.3316 16.852 18.5276 17.185 17.6893 17.185C16.8511 17.185 16.0471 16.852 15.4544 16.2593C14.8616 15.6665 14.5286 14.8626 14.5286 14.0243H20.8501Z" stroke="white" stroke-width="1.3" stroke-linecap="round" stroke-linejoin="round"/>
<path d="M17.6893 5.17432L14.5286 11.4957" stroke="white" stroke-width="1.3" stroke-linecap="round" stroke-linejoin="round"/>
<path d="M17.6893 5.17432L20.85 11.4957" stroke="white" stroke-width="1.3" stroke-linecap="round" stroke-linejoin="round"/>
</svg>
