<svg width="24" height="25" viewBox="0 0 24 25" fill="none" xmlns="http://www.w3.org/2000/svg">
<g clip-path="url(#clip0_114_1827)">
<path d="M8.94692 17.7546L8.80743 17.9946C8.78102 18.04 8.76701 18.0916 8.7668 18.1442V20.81C8.7668 20.81 8.7668 20.81 8.7668 20.81C8.76682 20.8896 8.79843 20.9659 8.85469 21.0221C8.91095 21.0784 8.98724 21.11 9.0668 21.11C9.06681 21.11 9.06683 21.11 9.06685 21.11H9.60013H10.1001V21.61V23.21C10.1001 23.21 10.1001 23.21 10.1001 23.21C10.1002 23.2896 10.1318 23.3659 10.188 23.4221C10.2443 23.4784 10.3206 23.51 10.4001 23.51L8.94692 17.7546ZM8.94692 17.7546L8.81694 17.5092M8.94692 17.7546L8.81694 17.5092M8.81694 17.5092C8.23754 16.4157 7.45363 15.5117 6.69283 14.6343C6.44387 14.3472 6.1974 14.0629 5.96137 13.7758C4.89039 12.4731 3.9668 10.9457 3.9668 8.71001C3.9668 4.18912 7.57323 0.51001 12.0001 0.51001C16.427 0.51001 20.0335 4.18912 20.0335 8.71001C20.0335 10.3717 19.5318 11.6491 18.8405 12.7023C18.365 13.4266 17.8363 14.0307 17.2928 14.6517C17.0125 14.9719 16.7283 15.2966 16.4455 15.6446L16.4409 15.6502L16.4366 15.6559C16.4122 15.6877 16.3816 15.7144 16.3468 15.7342C16.3119 15.754 16.2734 15.7667 16.2336 15.7714C16.1937 15.7761 16.1533 15.7728 16.1148 15.7616C16.0763 15.7504 16.0404 15.7316 16.0092 15.7063C15.9781 15.681 15.9523 15.6497 15.9335 15.6143C15.9146 15.5789 15.9031 15.5401 15.8995 15.5001C15.8959 15.4602 15.9004 15.4199 15.9127 15.3817C15.9249 15.3435 15.9447 15.3081 15.9709 15.2777L15.971 15.2778L15.9798 15.267C16.2735 14.9057 16.5645 14.5705 16.8518 14.2396C16.9761 14.0964 17.0998 13.954 17.2227 13.8105C17.6233 13.343 18.0087 12.8728 18.3348 12.376L18.3348 12.376C18.995 11.3702 19.4335 10.2847 19.4335 8.71001C19.4335 4.50327 16.1157 1.11001 12.0001 1.11001C7.88452 1.11001 4.5668 4.50327 4.5668 8.71001C4.5668 10.8512 5.36604 12.1095 6.42223 13.3942C6.67007 13.6957 6.92884 13.9902 7.19073 14.2882C8.01964 15.2316 8.87984 16.2106 9.52397 17.5589L9.65987 17.8433H9.97513H11.2001H11.7001V17.3433V10.1433V9.64334H11.2001H10.4001H10.3871L10.374 9.64402C10.3345 9.64609 10.295 9.64035 10.2578 9.62715C10.2205 9.61394 10.1862 9.59352 10.1568 9.56705C10.1274 9.54058 10.1035 9.50859 10.0865 9.4729C10.0695 9.4372 10.0597 9.3985 10.0576 9.35901C10.0556 9.31952 10.0613 9.28001 10.0745 9.24274C10.0878 9.20547 10.1082 9.17117 10.1347 9.14179C10.1611 9.11242 10.1931 9.08854 10.2288 9.07154C10.2645 9.05453 10.3032 9.04472 10.3427 9.04267L10.3428 9.04267C10.3532 9.04212 10.3637 9.04212 10.3741 9.04267L10.3871 9.04334H10.4001H13.6001V9.04339L13.6072 9.04329C13.647 9.04273 13.6864 9.05008 13.7233 9.0649C13.7602 9.07973 13.7938 9.10174 13.8221 9.12966C13.8504 9.15758 13.8729 9.19085 13.8883 9.22753C13.9036 9.26421 13.9115 9.30358 13.9115 9.34334C13.9115 9.38311 13.9036 9.42248 13.8883 9.45916C13.8729 9.49584 13.8504 9.52911 13.8221 9.55703C13.7938 9.58494 13.7602 9.60696 13.7233 9.62178C13.6864 9.63661 13.647 9.64396 13.6072 9.64339L13.6072 9.64334H13.6001H12.8001H12.3001V10.1433V17.3433V17.8433M8.81694 17.5092L12.3001 17.8433M13.9001 21.11H14.4001H14.9334C14.9334 21.11 14.9334 21.11 14.9335 21.11C15.013 21.11 15.0893 21.0784 15.1456 21.0221C15.2018 20.9659 15.2334 20.8896 15.2335 20.81L13.9001 21.11ZM13.9001 21.11V21.61M13.9001 21.11V21.61M13.9001 21.61V23.21C13.9001 23.21 13.9001 23.21 13.9001 23.21C13.9001 23.2896 13.8685 23.3659 13.8122 23.4221C13.756 23.4784 13.6797 23.51 13.6001 23.51C13.6001 23.51 13.6001 23.51 13.6001 23.51M13.9001 21.61L13.6001 23.51M12.3001 17.8433H12.8001M12.3001 17.8433H12.8001M12.8001 17.8433H14.9334C14.9334 17.8433 14.9334 17.8433 14.9335 17.8433C15.013 17.8434 15.0893 17.875 15.1456 17.9312C15.2018 17.9875 15.2334 18.0638 15.2335 18.1433C15.2335 18.1434 15.2335 18.1434 15.2335 18.1434M12.8001 17.8433L15.2335 18.1434M13.6001 23.51H10.4002H13.6001ZM15.2335 18.1434V20.81V18.1434ZM9.8668 18.4433H9.3668V18.9433V20.01V20.51H9.8668H14.1335H14.6335V20.01V18.9433V18.4433H14.1335H9.8668ZM11.2001 21.11H10.7001V21.61V22.41V22.91H11.2001H12.8001H13.3001V22.41V21.61V21.11H12.8001H11.2001Z" fill="#353533" stroke="white"/>
</g>
<defs>
<clipPath id="clip0_114_1827">
<rect width="24" height="24" fill="white" transform="translate(0 0.0100098)"/>
</clipPath>
</defs>
</svg>
