<svg width="24" height="25" viewBox="0 0 24 25" fill="none" xmlns="http://www.w3.org/2000/svg">
<path d="M3.33356 4.81006H8.53356C9.45297 4.81006 10.3347 5.1753 10.9849 5.82542C11.635 6.47555 12.0002 7.35731 12.0002 8.27673V20.4101C12.0002 19.7205 11.7263 19.0592 11.2387 18.5716C10.7511 18.084 10.0898 17.8101 9.40022 17.8101H3.33356V4.81006Z" stroke="white" stroke-width="1.3" stroke-linecap="round" stroke-linejoin="round"/>
<path d="M20.6668 4.81006H15.4668C14.5474 4.81006 13.6656 5.1753 13.0155 5.82542C12.3654 6.47555 12.0001 7.35731 12.0001 8.27673V20.4101C12.0001 19.7205 12.274 19.0592 12.7616 18.5716C13.2492 18.084 13.9106 17.8101 14.6001 17.8101H20.6668V4.81006Z" stroke="white" stroke-width="1.3" stroke-linecap="round" stroke-linejoin="round"/>
</svg>
