<svg width="32" height="32" viewBox="0 0 32 32" fill="none" xmlns="http://www.w3.org/2000/svg">
<g clip-path="url(#clip0_209_1906)">
<path d="M16 32C24.8366 32 32 24.8366 32 16C32 7.16344 24.8366 0 16 0C7.16344 0 0 7.16344 0 16C0 24.8366 7.16344 32 16 32Z" fill="white"/>
<path fill-rule="evenodd" clip-rule="evenodd" d="M17.2 12.9L20.8 10.8V15L17.2 12.9ZM20.8 21.9L16 24.7L11.2 21.9V17L16 19.8L20.8 17V21.9ZM11.2 10.8L14.8 12.9L11.2 15V10.8ZM16.6 13.9L20.2 16L16.6 18.1V13.9ZM15.4 18.1L11.8 16L15.4 13.9V18.1ZM20.2 9.8L16 12.2L11.8 9.8L16 7.3L20.2 9.8ZM10 9.4V22.5L16 25.9L22 22.5V9.4L16 6L10 9.4Z" fill="white"/>
<path d="M20.8546 12.9208C20.5202 12.7297 20.0902 12.7297 19.708 12.9208L17.0326 14.4973L15.2172 15.5006L12.5896 17.0771C12.2552 17.2682 11.8252 17.2682 11.443 17.0771L9.38872 15.835C9.0543 15.6439 8.81543 15.2617 8.81543 14.8317V12.443C8.81543 12.0608 9.00653 11.6786 9.38872 11.4398L11.443 10.2454C11.7774 10.0543 12.2074 10.0543 12.5896 10.2454L14.6439 11.4875C14.9783 11.6786 15.2172 12.0608 15.2172 12.4908V14.0674L17.0326 13.0163V11.392C17.0326 11.0098 16.8415 10.6276 16.4593 10.3887L12.6374 8.14332C12.303 7.95223 11.873 7.95223 11.4908 8.14332L7.57329 10.4365C7.1911 10.6276 7 11.0098 7 11.392V15.8828C7 16.265 7.1911 16.6472 7.57329 16.886L11.443 19.1314C11.7774 19.3225 12.2074 19.3225 12.5896 19.1314L15.2172 17.6027L17.0326 16.5516L19.6602 15.0228C19.9946 14.8317 20.4246 14.8317 20.8068 15.0228L22.8611 16.2172C23.1955 16.4083 23.4344 16.7905 23.4344 17.2205V19.6092C23.4344 19.9914 23.2433 20.3736 22.8611 20.6124L20.8546 21.8068C20.5202 21.9979 20.0902 21.9979 19.708 21.8068L17.6537 20.6124C17.3193 20.4213 17.0804 20.0392 17.0804 19.6092V18.0804L15.265 19.1314V20.708C15.265 21.0902 15.4561 21.4724 15.8383 21.7113L19.708 23.9567C20.0424 24.1477 20.4724 24.1477 20.8546 23.9567L24.7243 21.7113C25.0587 21.5202 25.2976 21.138 25.2976 20.708V16.1694C25.2976 15.7872 25.1065 15.405 24.7243 15.1662L20.8546 12.9208Z" fill="#8247E5"/>
</g>
<defs>
<clipPath id="clip0_209_1906">
<rect width="32" height="32" fill="white"/>
</clipPath>
</defs>
</svg>
