<svg width="32" height="32" viewBox="0 0 32 32" fill="none" xmlns="http://www.w3.org/2000/svg">
<g clip-path="url(#clip0_209_1914)">
<path d="M16 32C24.8366 32 32 24.8366 32 16C32 7.16344 24.8366 0 16 0C7.16344 0 0 7.16344 0 16C0 24.8366 7.16344 32 16 32Z" fill="white"/>
<path fill-rule="evenodd" clip-rule="evenodd" d="M17.2 12.9L20.8 10.8V15L17.2 12.9ZM20.8 21.9L16 24.7L11.2 21.9V17L16 19.8L20.8 17V21.9ZM11.2 10.8L14.8 12.9L11.2 15V10.8ZM16.6 13.9L20.2 16L16.6 18.1V13.9ZM15.4 18.1L11.8 16L15.4 13.9V18.1ZM20.2 9.8L16 12.2L11.8 9.8L16 7.3L20.2 9.8ZM10 9.4V22.5L16 25.9L22 22.5V9.4L16 6L10 9.4Z" fill="white"/>
<path d="M18.7829 15.0716L20.5968 11.9937L25.486 19.6089L25.4883 21.0703L25.4724 11.0138C25.4608 10.768 25.3303 10.5431 25.122 10.4105L16.3196 5.34719C16.1137 5.24601 15.8526 5.24709 15.6471 5.35034C15.6193 5.36429 15.5932 5.37939 15.5683 5.39587L15.5376 5.41518L6.9934 10.3665L6.9602 10.3815C6.91759 10.4011 6.87451 10.4261 6.83404 10.455C6.67207 10.5712 6.56445 10.743 6.52965 10.9357C6.52444 10.9649 6.52061 10.9947 6.51877 11.0246L6.53218 19.2197L11.0863 12.1611C11.6596 11.2251 12.9089 10.9236 14.0686 10.94L15.4297 10.9759L7.41007 23.8371L8.35542 24.3814L16.4711 10.989L20.0583 10.9759L11.9635 24.7063L15.3368 26.6465L15.7398 26.8783C15.9103 26.9476 16.1113 26.9511 16.2832 26.889L25.2093 21.7162L23.5028 22.7051L18.7829 15.0716ZM19.475 25.0393L16.0679 19.6919L18.1477 16.1627L22.6222 23.2154L19.475 25.0393Z" fill="#2D374B"/>
<path d="M16.0679 19.692L19.475 25.0394L22.6223 23.2155L18.1478 16.1628L16.0679 19.692Z" fill="#28A0F0"/>
<path d="M25.4884 21.0703L25.4861 19.609L20.5968 11.9938L18.7829 15.0716L23.5028 22.7051L25.2094 21.7163C25.3768 21.5804 25.478 21.3808 25.4887 21.1655L25.4884 21.0703Z" fill="#28A0F0"/>
<path d="M5.00008 22.4487L7.41 23.8373L15.4296 10.9762L14.0685 10.9402C12.9088 10.9238 11.6596 11.2253 11.0862 12.1613L6.53211 19.2199L5 21.5739V22.4487H5.00008Z" fill="white"/>
<path d="M20.0582 10.9761L16.4711 10.9891L8.35542 24.3815L11.1921 26.0148L11.9635 24.7064L20.0582 10.9761Z" fill="white"/>
<path d="M27 10.9576C26.97 10.2074 26.5639 9.52059 25.9276 9.12078L17.0098 3.9924C16.3804 3.67545 15.5941 3.67507 14.9637 3.99217C14.8892 4.02973 6.29127 9.01623 6.29127 9.01623C6.17231 9.07325 6.05771 9.14124 5.94987 9.21836C5.38188 9.62545 5.03564 10.258 5.00008 10.953V21.5739L6.53219 19.2199L6.51877 11.0248C6.52061 10.9948 6.52437 10.9654 6.52966 10.9363C6.56423 10.7434 6.67192 10.5714 6.83404 10.4552C6.87451 10.4262 15.6192 5.36447 15.6471 5.35052C15.8526 5.24727 16.1138 5.24619 16.3196 5.34737L25.122 10.4107C25.3303 10.5433 25.4608 10.7682 25.4724 11.014V21.1657C25.4618 21.381 25.3767 21.5804 25.2093 21.7164L23.5027 22.7053L22.6222 23.2155L19.4749 25.0395L16.2831 26.8892C16.1112 26.9513 15.9102 26.9479 15.7397 26.8785L11.9634 24.7065L11.192 26.0148L14.5857 27.9687C14.6979 28.0325 14.7979 28.0891 14.8799 28.1352C15.007 28.2065 15.0936 28.2541 15.1241 28.2689C15.3654 28.386 15.7124 28.4542 16.0251 28.4542C16.3119 28.4542 16.5914 28.4016 16.856 28.2979L26.1266 22.929C26.6587 22.5168 26.9718 21.8951 27 21.2215V10.9576V10.9576Z" fill="#96BEDC"/>
</g>
<defs>
<clipPath id="clip0_209_1914">
<rect width="32" height="32" fill="white"/>
</clipPath>
</defs>
</svg>
