<svg width="32" height="32" viewBox="0 0 32 32" fill="none" xmlns="http://www.w3.org/2000/svg">
<g clip-path="url(#clip0_209_1914)">
<path d="M16 32C24.8366 32 32 24.8366 32 16C32 7.16344 24.8366 0 16 0C7.16344 0 0 7.16344 0 16C0 24.8366 7.16344 32 16 32Z" fill="white"/>
<path fill-rule="evenodd" clip-rule="evenodd" d="M17.2 12.9L20.8 10.8V15L17.2 12.9ZM20.8 21.9L16 24.7L11.2 21.9V17L16 19.8L20.8 17V21.9ZM11.2 10.8L14.8 12.9L11.2 15V10.8ZM16.6 13.9L20.2 16L16.6 18.1V13.9ZM15.4 18.1L11.8 16L15.4 13.9V18.1ZM20.2 9.8L16 12.2L11.8 9.8L16 7.3L20.2 9.8ZM10 9.4V22.5L16 25.9L22 22.5V9.4L16 6L10 9.4Z" fill="white"/>
<path d="M13.6164 19.5806V19.1935C13.6164 18.3065 13.6877 17.5995 13.8301 17.0726C13.9726 16.5457 14.1836 16.1237 14.463 15.8065C14.7425 15.4839 15.0849 15.1935 15.4904 14.9355C15.8411 14.7097 16.1534 14.4919 16.4274 14.2823C16.7068 14.0726 16.926 13.8495 17.0849 13.6129C17.2493 13.3763 17.3315 13.1075 17.3315 12.8065C17.3315 12.5376 17.2658 12.3011 17.1342 12.0968C17.0027 11.8925 16.8247 11.7339 16.6 11.621C16.3753 11.5081 16.126 11.4516 15.8521 11.4516C15.5562 11.4516 15.2822 11.5188 15.0301 11.6532C14.7836 11.7876 14.5836 11.9731 14.4301 12.2097C14.2822 12.4462 14.2082 12.7204 14.2082 13.0323H10C10.011 11.8495 10.2849 10.8898 10.8219 10.1532C11.3589 9.41129 12.0712 8.86828 12.9589 8.52419C13.8466 8.17473 14.8219 8 15.8849 8C17.0575 8 18.1041 8.16936 19.0247 8.50807C19.9452 8.8414 20.6712 9.34677 21.2027 10.0242C21.7342 10.6962 22 11.5376 22 12.5484C22 13.1989 21.8849 13.7715 21.6548 14.2661C21.4301 14.7554 21.1151 15.1882 20.7096 15.5645C20.3096 15.9355 19.8411 16.2742 19.3041 16.5806C18.9096 16.8065 18.5781 17.0403 18.3096 17.2823C18.0411 17.5188 17.8384 17.7903 17.7014 18.0968C17.5644 18.3978 17.4959 18.7634 17.4959 19.1935V19.5806H13.6164ZM15.6219 25C14.9863 25 14.4411 24.7823 13.9863 24.3468C13.537 23.9059 13.3151 23.371 13.3205 22.7419C13.3151 22.129 13.537 21.6048 13.9863 21.1694C14.4411 20.7339 14.9863 20.5161 15.6219 20.5161C16.2247 20.5161 16.7562 20.7339 17.2164 21.1694C17.6822 21.6048 17.9178 22.129 17.9233 22.7419C17.9178 23.1613 17.8055 23.543 17.5863 23.8871C17.3726 24.2258 17.0932 24.4973 16.7479 24.7016C16.4027 24.9005 16.0274 25 15.6219 25Z" fill="black"/>
</g>
<defs>
<clipPath id="clip0_209_1914">
<rect width="32" height="32" fill="white"/>
</clipPath>
</defs>
</svg>
