<svg width="52" height="32" viewBox="0 0 52 32" fill="none" xmlns="http://www.w3.org/2000/svg">
<path d="M32.3557 21.8806C32.4417 21.5476 32.5723 21.2318 32.7615 20.9535C32.7555 20.9727 32.6644 21.2713 32.6208 21.6934C32.5773 22.1296 32.5844 22.6974 32.7919 23.2227L33.6573 21.4393C33.6573 21.4393 32.7858 20.4019 33.1198 17.8715C33.3668 15.9971 33.3506 14.4455 32.8445 13.1094C32.3405 11.2785 30.8901 10.235 29.1695 9.43131C28.628 9.17828 27.5814 8.72383 27.0247 8.42019C27.0075 8.41006 26.9903 8.40095 26.9741 8.39185L26.6583 8.57504C26.714 8.64792 26.7778 8.71775 26.8496 8.78354C26.882 8.81492 26.9164 8.84427 26.9529 8.87362C27.301 9.15601 27.7929 9.39083 28.3506 9.65702C29.2018 10.0639 30.2616 10.57 31.0844 11.3817C31.882 12.1681 32.3607 13.0345 32.5905 14.1074C32.7413 14.8139 32.7848 15.6216 32.7211 16.5973C32.7211 16.579 32.8789 13.5538 31.0551 11.9951C29.0854 10.3109 27.3476 9.92422 26.7575 8.97281C26.7373 8.94043 26.7181 8.90702 26.7008 8.87362C26.6523 8.78051 26.6158 8.68132 26.5895 8.57504L24.6786 8.45257C24.6735 8.45662 24.6675 8.45966 24.6624 8.46371C24.1209 8.82504 22.7484 9.28253 21.8304 9.79568C21.7555 9.83414 21.6816 9.87362 21.6078 9.91309C20.374 10.57 19.5015 11.4526 19.0167 12.5608C18.2788 14.0173 18.2181 15.7349 18.5005 17.8715C18.8335 20.4019 17.962 21.4393 17.962 21.4393L18.8284 23.2227C19.0268 22.7187 19.042 22.1772 19.0035 21.749C18.963 21.2976 18.8649 20.9737 18.8588 20.9535C19.0572 21.246 19.1908 21.58 19.2768 21.9333C19.4519 22.6499 19.4276 23.4434 19.3416 24.1185C19.1189 24.5749 18.8821 25 18.6979 25.3745C19.2009 26.5243 19.7596 27.6326 20.1756 28.7905C20.7474 30.3826 21.8183 31.3765 23.5106 31.9281V22.0163C22.3699 21.6377 21.5713 21.2561 21.044 20.8523C20.7687 20.6408 20.5673 20.4231 20.4286 20.1964C20.4064 20.16 20.3861 20.1246 20.3679 20.0881C20.0784 19.5244 20.1614 18.9049 20.464 18.1863C20.4823 18.2116 20.5015 18.2369 20.5207 18.2612C20.5895 18.3493 20.6604 18.4333 20.7323 18.5143C21.7505 19.6529 23.1229 20.076 24.8122 20.1802C24.7909 20.3321 24.7687 20.4819 24.7474 20.6327C24.7009 20.9576 24.6553 21.2784 24.6098 21.5993C24.7606 21.658 24.8486 21.6863 24.8486 21.6863C24.9792 22.4464 25.0551 23.4393 24.9003 24.2085C24.8486 24.4707 24.7697 24.7065 24.6573 24.8988L25.8102 25.6468L26.963 24.8988C26.8517 24.7096 26.7737 24.4768 26.7211 24.2187C26.5642 23.4484 26.6401 22.4495 26.7717 21.6863C26.7717 21.6863 26.8699 21.6549 27.0389 21.5881C27.0146 21.408 26.9913 21.2288 26.9681 21.0497C26.965 21.0507 26.963 21.0517 26.96 21.0537L26.9013 20.6327H26.9134C26.9124 20.6286 26.9124 20.6256 26.9124 20.6225C26.8921 20.4667 26.8709 20.3108 26.8506 20.1539C27.3891 20.1296 27.8911 20.0669 28.3597 19.9545C28.6573 19.8827 28.9417 19.7916 29.214 19.6772C29.8182 19.4242 30.3658 19.0578 30.8688 18.5446C30.9427 18.4697 31.0156 18.3908 31.0875 18.3098C31.1786 18.2066 31.2686 18.0993 31.3567 17.9859C31.3567 18.8179 31.551 19.5011 31.3192 19.9758C31.1249 20.3725 30.8628 20.6772 30.5622 20.9191C29.8415 21.4991 28.9033 21.7187 28.1573 21.9879V31.8573C29.7363 31.3472 30.7666 30.419 31.3506 28.9697C31.8435 27.7429 32.38 26.5334 32.9215 25.2571C32.7646 25.0183 32.5217 24.7268 32.3172 24.3928C32.1998 23.6498 32.1411 22.7096 32.3557 21.8806V21.8806ZM22.6624 29.1518C22.9205 28.2207 23.0774 26.8624 23.1695 25.7419C23.2262 26.9767 23.2353 28.5203 23.0146 30.2854C22.4154 29.6124 21.5319 28.5658 20.6665 27.3391C21.7161 28.4778 22.6624 29.1518 22.6624 29.1518ZM30.8526 27.5122C31.3334 26.4282 31.5176 25.58 31.5176 25.58C31.3213 24.5871 31.3283 23.7652 31.4144 23.1256C31.5551 22.0719 31.9103 21.5112 31.9235 21.4899C31.7281 22.0871 31.6735 22.7409 31.6907 23.3563C31.72 24.3472 31.9356 25.2409 32.05 25.6508C31.6634 26.3057 31.2585 26.9322 30.8526 27.5122Z" fill="url(#paint0_linear_101_1797)"/>
<path d="M20.5595 18.6638C20.5081 18.8506 20.4996 19.0423 20.5205 19.2266C20.5309 19.319 20.5516 19.4091 20.5759 19.4974C20.6042 19.5847 20.6347 19.6709 20.676 19.7526C20.7554 19.9169 20.8592 20.0687 20.9789 20.2078C21.099 20.3466 21.232 20.4759 21.3781 20.5912L21.4317 20.6358L21.4879 20.6776L21.6004 20.7612L21.7169 20.84C21.7555 20.8666 21.7945 20.8927 21.8349 20.9169C21.915 20.9663 21.9943 21.0173 22.0774 21.0629C22.1595 21.1098 22.2416 21.1574 22.3264 21.2003C22.662 21.3794 23.0111 21.5377 23.3623 21.7034C22.9809 21.6316 22.6073 21.519 22.2465 21.3685C22.2017 21.3492 22.1559 21.3317 22.1116 21.3109L21.9792 21.2472C21.8898 21.2067 21.805 21.1565 21.7188 21.1092C21.6752 21.0864 21.6338 21.0594 21.5922 21.0328L21.4671 20.9533L21.3466 20.8659L21.2865 20.8221L21.2287 20.7747C21.0733 20.6506 20.9304 20.5078 20.8056 20.3497C20.6812 20.1915 20.5761 20.0151 20.5051 19.8247C20.4682 19.7303 20.4438 19.631 20.425 19.5319C20.4096 19.4318 20.4011 19.331 20.405 19.2307C20.4156 19.0312 20.4592 18.8317 20.5596 18.6637L20.5595 18.6638Z" fill="url(#paint1_linear_101_1797)"/>
<path d="M31.0016 18.6638C31.102 18.8318 31.1457 19.0313 31.1562 19.2308C31.1601 19.3311 31.1516 19.4319 31.1362 19.532C31.1174 19.6312 31.093 19.7304 31.0561 19.8248C30.9851 20.0152 30.8801 20.1916 30.7556 20.3498C30.6307 20.5079 30.488 20.6507 30.3325 20.7748L30.2747 20.8222L30.2146 20.866L30.0941 20.9534L29.969 21.0329C29.9274 21.0596 29.886 21.0865 29.8424 21.1093C29.7561 21.1566 29.6714 21.2068 29.582 21.2473L29.4496 21.3111C29.4053 21.3318 29.3596 21.3494 29.3147 21.3687C28.954 21.5192 28.5803 21.6317 28.1989 21.7035C28.5501 21.5378 28.8992 21.3795 29.2348 21.2004C29.3197 21.1575 29.4017 21.11 29.4838 21.063C29.5669 21.0174 29.6462 20.9664 29.7263 20.917C29.7668 20.8929 29.8058 20.8666 29.8444 20.8401L29.9608 20.7613L30.0733 20.6777L30.1296 20.636L30.1831 20.5913C30.3294 20.4761 30.4623 20.3467 30.5823 20.2079C30.702 20.0689 30.8058 19.9172 30.8852 19.7527C30.9265 19.671 30.957 19.5849 30.9853 19.4975C31.0096 19.4093 31.0303 19.3191 31.0407 19.2268C31.0616 19.0425 31.0531 18.8509 31.0017 18.6639L31.0016 18.6638Z" fill="url(#paint2_linear_101_1797)"/>
<path d="M27.7481 6.92479L25.794 3.32178L23.9931 6.92479L25.0598 9.37882L26.6505 9.19532L27.7481 6.92479Z" fill="url(#paint3_linear_101_1797)"/>
<path d="M13.2833 0L20.653 9.9799C19.7178 10.6249 19.0358 11.4266 18.6195 12.3732C17.9043 13.7923 17.7389 15.4548 18.0648 17.9288C18.1237 18.3733 18.1425 18.7669 18.135 19.1129L17.6291 18.3707L17.8009 18.9455L16.9892 17.8505L11.7695 32.0001H0L0.756574 28.6553H3.88823L13.2833 0Z" fill="url(#paint4_linear_101_1797)"/>
<path d="M51.62 32H39.85L34.631 17.8504L33.8248 18.9373L34.0009 18.3519L33.4844 19.1104C33.4775 18.7651 33.4964 18.3719 33.5547 17.9288C33.8361 15.7932 33.7458 14.2631 33.2619 12.9731C32.8721 11.5772 31.9795 10.6312 30.9903 9.94862L38.3367 0L47.7318 28.6552H50.8635L51.62 32V32Z" fill="url(#paint5_linear_101_1797)"/>
<defs>
<linearGradient id="paint0_linear_101_1797" x1="25.8097" y1="-2.3923" x2="25.8097" y2="34.4298" gradientUnits="userSpaceOnUse">
<stop stop-color="#F1C214"/>
<stop offset="1" stop-color="#A3864A"/>
</linearGradient>
<linearGradient id="paint1_linear_101_1797" x1="21.8832" y1="-2.39254" x2="21.8832" y2="34.4296" gradientUnits="userSpaceOnUse">
<stop stop-color="#F1C214"/>
<stop offset="1" stop-color="#A3864A"/>
</linearGradient>
<linearGradient id="paint2_linear_101_1797" x1="29.6781" y1="-2.39252" x2="29.6781" y2="34.4296" gradientUnits="userSpaceOnUse">
<stop stop-color="#F1C214"/>
<stop offset="1" stop-color="#A3864A"/>
</linearGradient>
<linearGradient id="paint3_linear_101_1797" x1="25.8706" y1="-2.39256" x2="25.8706" y2="34.4296" gradientUnits="userSpaceOnUse">
<stop stop-color="#F1C214"/>
<stop offset="1" stop-color="#A3864A"/>
</linearGradient>
<linearGradient id="paint4_linear_101_1797" x1="10.3266" y1="-2.3926" x2="10.3266" y2="34.4295" gradientUnits="userSpaceOnUse">
<stop stop-color="#F1C214"/>
<stop offset="1" stop-color="#A3864A"/>
</linearGradient>
<linearGradient id="paint5_linear_101_1797" x1="41.3051" y1="-2.3926" x2="41.3051" y2="34.4295" gradientUnits="userSpaceOnUse">
<stop stop-color="#F1C214"/>
<stop offset="1" stop-color="#A3864A"/>
</linearGradient>
</defs>
</svg>
