<svg width="1040" height="48" viewBox="0 0 1040 48" fill="none" xmlns="http://www.w3.org/2000/svg">
<mask id="mask0_273_2269" style="mask-type:alpha" maskUnits="userSpaceOnUse" x="0" y="0" width="1040" height="48">
<rect y="48" width="48" height="1040" transform="rotate(-90 0 48)" fill="url(#paint0_linear_273_2269)"/>
</mask>
<g mask="url(#mask0_273_2269)">
<rect x="-4" y="34" width="8" height="14" fill="#252D55"/>
<rect x="11" width="8" height="48" fill="#252D55"/>
<rect x="26" y="22" width="8" height="26" fill="#252D55"/>
<rect x="41" y="12" width="8" height="36" fill="#252D55"/>
<rect x="56" width="8" height="48" fill="#252D55"/>
<rect x="71" y="34" width="8" height="14" fill="#252D55"/>
<rect x="86" y="38" width="8" height="10" fill="#252D55"/>
<rect x="101" y="26" width="8" height="22" fill="#252D55"/>
<rect x="116" y="26" width="8" height="22" fill="#252D55"/>
<rect x="131" y="25" width="8" height="23" fill="#252D55"/>
<rect x="146" y="42" width="8" height="6" fill="#252D55"/>
<rect x="161" y="42" width="8" height="6" fill="#252D55"/>
<rect x="176" y="12" width="8" height="36" fill="#252D55"/>
<rect x="191" y="43" width="8" height="5" fill="#252D55"/>
<rect x="206" y="43" width="8" height="5" fill="#252D55"/>
<rect x="221" y="22" width="8" height="26" fill="#252D55"/>
<rect x="236" y="29" width="8" height="19" fill="#252D55"/>
<rect x="251" y="18" width="8" height="30" fill="#252D55"/>
<rect x="266" y="12" width="8" height="36" fill="#252D55"/>
<rect x="281" y="39" width="8" height="9" fill="#252D55"/>
<rect x="296" y="39" width="8" height="9" fill="#252D55"/>
<rect x="311" y="12" width="8" height="36" fill="#252D55"/>
<rect x="326" y="36" width="8" height="12" fill="#252D55"/>
<rect x="341" y="30" width="8" height="18" fill="#252D55"/>
<rect x="356" y="30" width="8" height="18" fill="#252D55"/>
<rect x="371" y="43" width="8" height="5" fill="#252D55"/>
<rect x="386" y="43" width="8" height="5" fill="#252D55"/>
<rect x="401" y="6" width="8" height="42" fill="#252D55"/>
<rect x="416" y="31" width="8" height="17" fill="#252D55"/>
<rect x="431" y="22" width="8" height="26" fill="#252D55"/>
<rect x="446" y="29" width="8" height="19" fill="#252D55"/>
<rect x="461" y="29" width="8" height="19" fill="#252D55"/>
<rect x="476" y="26" width="8" height="22" fill="#252D55"/>
<rect x="491" y="25" width="8" height="23" fill="#252D55"/>
<rect x="506" y="26" width="8" height="22" fill="#252D55"/>
<rect x="521" y="38" width="8" height="10" fill="#252D55"/>
<rect x="536" y="38" width="8" height="10" fill="#252D55"/>
<rect x="551" y="18" width="8" height="30" fill="#252D55"/>
<rect x="566" y="6" width="8" height="42" fill="#252D55"/>
<rect x="581" y="30" width="8" height="18" fill="#252D55"/>
<rect x="596" y="35" width="8" height="13" fill="#252D55"/>
<rect x="611" y="29" width="8" height="19" fill="#252D55"/>
<rect x="626" y="29" width="8" height="19" fill="#252D55"/>
<rect x="641" y="22" width="8" height="26" fill="#252D55"/>
<rect x="656" y="28" width="8" height="20" fill="#252D55"/>
<rect x="671" y="29" width="8" height="19" fill="#252D55"/>
<rect x="686" y="22" width="8" height="26" fill="#252D55"/>
<rect x="701" y="39" width="8" height="9" fill="#252D55"/>
<rect x="716" y="39" width="8" height="9" fill="#252D55"/>
<rect x="731" y="33" width="8" height="15" fill="#252D55"/>
<rect x="746" y="26" width="8" height="22" fill="#252D55"/>
<rect x="761" y="36" width="8" height="12" fill="#252D55"/>
<rect x="776" y="36" width="8" height="12" fill="#252D55"/>
<rect x="791" y="36" width="8" height="12" fill="#252D55"/>
<rect x="806" y="36" width="8" height="12" fill="#252D55"/>
<rect x="821" y="36" width="8" height="12" fill="#252D55"/>
<rect x="836" y="41" width="8" height="7" fill="#252D55"/>
<rect x="851" y="41" width="8" height="7" fill="#252D55"/>
<rect x="866" y="41" width="8" height="7" fill="#252D55"/>
<rect x="881" y="41" width="8" height="7" fill="#252D55"/>
<rect x="896" y="41" width="8" height="7" fill="#252D55"/>
<rect x="911" y="41" width="8" height="7" fill="#252D55"/>
<rect x="926" y="41" width="8" height="7" fill="#252D55"/>
<rect x="941" y="41" width="8" height="7" fill="#252D55"/>
<rect x="956" y="38" width="8" height="10" fill="#252D55"/>
<rect x="971" y="38" width="8" height="10" fill="#252D55"/>
<rect x="986" y="38" width="8" height="10" fill="#252D55"/>
<rect x="1001" y="38" width="8" height="10" fill="#252D55"/>
<rect x="1016" y="38" width="8" height="10" fill="#252D55"/>
<rect x="1031" y="38" width="8" height="10" fill="#252D55"/>
</g>
<defs>
<linearGradient id="paint0_linear_273_2269" x1="24" y1="48" x2="24" y2="1088" gradientUnits="userSpaceOnUse">
<stop stop-color="#D9D9D9" stop-opacity="0"/>
<stop offset="0.244792" stop-color="#D9D9D9"/>
<stop offset="0.729167" stop-color="#D9D9D9"/>
<stop offset="0.973958" stop-color="#D9D9D9" stop-opacity="0"/>
</linearGradient>
</defs>
</svg>
