<svg width="36" height="36" viewBox="0 0 36 36" fill="none" xmlns="http://www.w3.org/2000/svg">
<rect opacity="0.3" width="36" height="36" rx="18" fill="url(#paint0_linear_220_2564)"/>
<path fill-rule="evenodd" clip-rule="evenodd" d="M18 24.6667C21.6819 24.6667 24.6667 21.682 24.6667 18.0001C24.6667 14.3182 21.6819 11.3334 18 11.3334C14.3181 11.3334 11.3333 14.3182 11.3333 18.0001C11.3333 21.682 14.3181 24.6667 18 24.6667ZM18 26.3334C22.6024 26.3334 26.3333 22.6025 26.3333 18.0001C26.3333 13.3977 22.6024 9.66675 18 9.66675C13.3976 9.66675 9.66666 13.3977 9.66666 18.0001C9.66666 22.6025 13.3976 26.3334 18 26.3334Z" fill="white"/>
<path d="M17.1667 13.8333C17.1667 13.3731 17.5398 13 18 13C18.4602 13 18.8333 13.3731 18.8333 13.8333C20.214 13.8333 21.3333 14.9526 21.3333 16.3333C21.3333 16.7936 20.9602 17.1667 20.5 17.1667C20.0398 17.1667 19.6667 16.7936 19.6667 16.3333C19.6667 15.8731 19.2936 15.5 18.8333 15.5H16.9528C16.6107 15.5 16.3333 15.7774 16.3333 16.1195C16.3333 16.3862 16.504 16.6229 16.7569 16.7072L19.7701 17.7116C20.7036 18.0228 21.3333 18.8964 21.3333 19.8805C21.3333 21.1431 20.3098 22.1667 19.0471 22.1667H18.8333C18.8333 22.6269 18.4602 23 18 23C17.5398 23 17.1667 22.6269 17.1667 22.1667C15.7859 22.1667 14.6667 21.0474 14.6667 19.6667C14.6667 19.2064 15.0398 18.8333 15.5 18.8333C15.9602 18.8333 16.3333 19.2064 16.3333 19.6667C16.3333 20.1269 16.7064 20.5 17.1667 20.5H19.0471C19.3893 20.5 19.6667 20.2226 19.6667 19.8805C19.6667 19.6138 19.496 19.3771 19.2431 19.2928L16.2299 18.2884C15.2963 17.9772 14.6667 17.1036 14.6667 16.1195C14.6667 14.8569 15.6902 13.8333 16.9528 13.8333H17.1667Z" fill="white"/>
<defs>
<linearGradient id="paint0_linear_220_2564" x1="0" y1="0" x2="39.1233" y2="3.44689" gradientUnits="userSpaceOnUse">
<stop stop-color="#FAFF00"/>
<stop offset="1" stop-color="#FFE600"/>
</linearGradient>
</defs>
</svg>
