<svg width="37" height="36" viewBox="0 0 37 36" fill="none" xmlns="http://www.w3.org/2000/svg">
<rect opacity="0.3" x="0.75" width="36" height="36" rx="18" fill="url(#paint0_linear_220_2573)"/>
<path fill-rule="evenodd" clip-rule="evenodd" d="M23.5833 18C25.1942 18 26.5 16.6942 26.5 15.0833C26.5 13.4725 25.1942 12.1667 23.5833 12.1667C21.9725 12.1667 20.6667 13.4725 20.6667 15.0833C20.6667 16.6942 21.9725 18 23.5833 18ZM23.5833 19.6667C26.1146 19.6667 28.1667 17.6146 28.1667 15.0833C28.1667 12.552 26.1146 10.5 23.5833 10.5C21.052 10.5 19 12.552 19 15.0833C19 17.6146 21.052 19.6667 23.5833 19.6667Z" fill="white"/>
<path fill-rule="evenodd" clip-rule="evenodd" d="M12.75 16.3334C13.4404 16.3334 14 15.7738 14 15.0834C14 14.3931 13.4404 13.8334 12.75 13.8334C12.0597 13.8334 11.5 14.3931 11.5 15.0834C11.5 15.7738 12.0597 16.3334 12.75 16.3334ZM12.75 18.0001C14.3609 18.0001 15.6667 16.6942 15.6667 15.0834C15.6667 13.4726 14.3609 12.1667 12.75 12.1667C11.1392 12.1667 9.83337 13.4726 9.83337 15.0834C9.83337 16.6942 11.1392 18.0001 12.75 18.0001Z" fill="white"/>
<path fill-rule="evenodd" clip-rule="evenodd" d="M16.5 23.8333C17.4204 23.8333 18.1666 23.0871 18.1666 22.1666C18.1666 21.2461 17.4204 20.4999 16.5 20.4999C15.5795 20.4999 14.8333 21.2461 14.8333 22.1666C14.8333 23.0871 15.5795 23.8333 16.5 23.8333ZM16.5 25.4999C18.3409 25.4999 19.8333 24.0075 19.8333 22.1666C19.8333 20.3256 18.3409 18.8333 16.5 18.8333C14.659 18.8333 13.1666 20.3256 13.1666 22.1666C13.1666 24.0075 14.659 25.4999 16.5 25.4999Z" fill="white"/>
<defs>
<linearGradient id="paint0_linear_220_2573" x1="0.75" y1="0" x2="39.8733" y2="3.44689" gradientUnits="userSpaceOnUse">
<stop stop-color="#FAFF00"/>
<stop offset="1" stop-color="#FFE600"/>
</linearGradient>
</defs>
</svg>
