<svg width="16" height="16" viewBox="0 0 16 16" fill="none" xmlns="http://www.w3.org/2000/svg">
<path d="M10.3901 5.27757V4.31801C10.3901 4.19077 10.3397 4.06873 10.2501 3.97876C10.1604 3.88878 10.0388 3.83823 9.91207 3.83823H8.87386L10.5879 2.11763C10.7672 1.93776 10.868 1.69378 10.8681 1.43934V0.959558C10.8681 0.705068 10.7674 0.461 10.5881 0.281048C10.4088 0.101096 10.1656 0 9.91207 0L6.80492 0C6.67814 0 6.55656 0.050548 6.46691 0.140524C6.37726 0.2305 6.3269 0.352534 6.3269 0.479779V1.43934C6.3269 1.56658 6.37726 1.68862 6.46691 1.77859C6.55656 1.86857 6.67814 1.91912 6.80492 1.91912H8.08214L6.36813 3.63973C6.18881 3.81959 6.08801 4.06357 6.08789 4.31801V4.79779C6.08789 5.05228 6.18862 5.29635 6.36791 5.4763C6.5472 5.65625 6.79038 5.75735 7.04393 5.75735H9.91207C10.0388 5.75735 10.1604 5.7068 10.2501 5.61683C10.3397 5.52685 10.3901 5.40482 10.3901 5.27757ZM14.6923 8.15625V7.67647C14.6923 7.42198 14.5916 7.17791 14.4123 6.99796C14.233 6.81801 13.9898 6.71691 13.7362 6.71691H10.8681C10.7413 6.71691 10.6197 6.76746 10.5301 6.85743C10.4404 6.94741 10.3901 7.06944 10.3901 7.19669V8.15625C10.3901 8.28349 10.4404 8.40553 10.5301 8.4955C10.6197 8.58548 10.7413 8.63603 10.8681 8.63603H11.9063L10.1923 10.3566C10.013 10.5365 9.91218 10.7805 9.91207 11.0349V11.5147C9.91207 11.7692 10.0128 12.0133 10.1921 12.1932C10.3714 12.3732 10.6146 12.4743 10.8681 12.4743H13.9753C14.102 12.4743 14.2236 12.4237 14.3133 12.3337C14.4029 12.2438 14.4533 12.1217 14.4533 11.9945V11.0349C14.4533 10.9077 14.4029 10.7856 14.3133 10.6957C14.2236 10.6057 14.102 10.5551 13.9753 10.5551H12.698L14.412 8.83453C14.5914 8.65467 14.6922 8.41069 14.6923 8.15625Z" fill="white"/>
<path d="M7.04388 6.71692H2.50267C2.3125 6.71692 2.13012 6.79274 1.99565 6.9277C1.86118 7.06267 1.78564 7.24572 1.78564 7.43659V8.87593C1.78564 9.06679 1.86118 9.24984 1.99565 9.38481C2.13012 9.51977 2.3125 9.59559 2.50267 9.59559H4.00964L1.54902 12.3741C1.39349 12.5498 1.30759 12.7766 1.30762 13.0116V14.3934C1.30762 14.6479 1.40834 14.8919 1.58764 15.0719C1.76693 15.2518 2.0101 15.3529 2.26366 15.3529H6.80487C6.99504 15.3529 7.17742 15.2771 7.31189 15.1422C7.44636 15.0072 7.5219 14.8241 7.5219 14.6333V13.1939C7.5219 13.0031 7.44636 12.82 7.31189 12.6851C7.17742 12.5501 6.99504 12.4743 6.80487 12.4743H5.2979L7.75852 9.69575C7.91405 9.52008 7.99995 9.29324 7.99992 9.05824V7.67648C7.99992 7.42199 7.8992 7.17792 7.7199 6.99797C7.54061 6.81802 7.29744 6.71692 7.04388 6.71692V6.71692Z" fill="white"/>
</svg>
