<svg width="16" height="16" viewBox="0 0 16 16" fill="none" xmlns="http://www.w3.org/2000/svg">
<path d="M1 11.0594V12.6364C1 13.9401 4.13542 15 8 15C11.8646 15 15 13.9401 15 12.6364V11.0594C13.4943 12.1341 10.7417 12.6364 8 12.6364C5.25833 12.6364 2.50573 12.1341 1 11.0594ZM1 7.18523V9.09091C1 10.3946 4.13542 11.4545 8 11.4545C11.8646 11.4545 15 10.3946 15 9.09091V7.18523C13.4943 8.44091 10.738 9.09091 8 9.09091C5.26198 9.09091 2.50573 8.44091 1 7.18523ZM8 2C4.13542 2 1 3.32216 1 4.95455C1 6.58693 4.13542 7.90909 8 7.90909C11.8646 7.90909 15 6.58693 15 4.95455C15 3.32216 11.8646 2 8 2Z" fill="white"/>
</svg>
