<svg width="37" height="36" viewBox="0 0 37 36" fill="none" xmlns="http://www.w3.org/2000/svg">
<rect opacity="0.3" x="0.5" width="36" height="36" rx="18" fill="url(#paint0_linear_220_2570)"/>
<path fill-rule="evenodd" clip-rule="evenodd" d="M20.3213 12.501L19.664 11.6342C19.3306 11.1944 18.6694 11.1944 18.336 11.6342L17.6787 12.501C17.2966 13.0049 16.6724 13.2635 16.0459 13.1773L14.9682 13.0292C14.4215 12.954 13.954 13.4215 14.0292 13.9682L14.1773 15.0459C14.2635 15.6724 14.0049 16.2966 13.501 16.6787L12.6342 17.336C12.1944 17.6694 12.1944 18.3306 12.6342 18.664L13.501 19.3213C14.0049 19.7034 14.2635 20.3276 14.1773 20.9541L14.0292 22.0318C13.954 22.5785 14.4215 23.046 14.9682 22.9708L16.0459 22.8227C16.6724 22.7365 17.2966 22.9951 17.6787 23.499L18.336 24.3658C18.6694 24.8056 19.3306 24.8056 19.664 24.3658L20.3213 23.499C20.7034 22.9951 21.3276 22.7365 21.9541 22.8227L23.0318 22.9708C23.5785 23.046 24.046 22.5785 23.9708 22.0318L23.8227 20.9541C23.7365 20.3276 23.9951 19.7034 24.499 19.3213L25.3658 18.664C25.8056 18.3306 25.8056 17.6694 25.3658 17.336L24.499 16.6787C23.9951 16.2966 23.7365 15.6724 23.8227 15.0459L23.9708 13.9682C24.046 13.4215 23.5785 12.954 23.0318 13.0292L21.9541 13.1773C21.3276 13.2635 20.7034 13.0049 20.3213 12.501ZM20.9921 10.6272C19.9917 9.30786 18.0083 9.30786 17.0079 10.6272L16.3507 11.494C16.3325 11.518 16.3027 11.5303 16.2729 11.5262L15.1953 11.378C13.555 11.1525 12.1525 12.555 12.378 14.1953L12.5262 15.2729C12.5303 15.3027 12.518 15.3325 12.494 15.3507L11.6272 16.0079C10.3079 17.0083 10.3079 18.9917 11.6272 19.9921L12.494 20.6493C12.518 20.6675 12.5303 20.6972 12.5262 20.7271L12.378 21.8047C12.1525 23.445 13.555 24.8475 15.1953 24.622L16.2729 24.4738C16.3027 24.4697 16.3325 24.482 16.3507 24.506L17.0079 25.3728C18.0083 26.6921 19.9917 26.6921 20.9921 25.3728L21.6493 24.506C21.6675 24.482 21.6972 24.4697 21.7271 24.4738L22.8047 24.622C24.445 24.8475 25.8475 23.445 25.622 21.8047L25.4738 20.7271C25.4697 20.6972 25.482 20.6675 25.506 20.6493L26.3728 19.9921C27.6921 18.9917 27.6921 17.0083 26.3728 16.0079L25.506 15.3507C25.482 15.3325 25.4697 15.3027 25.4738 15.2729L25.622 14.1953C25.8475 12.555 24.445 11.1525 22.8047 11.378L21.7271 11.5262C21.6972 11.5303 21.6675 11.518 21.6493 11.494L20.9921 10.6272Z" fill="white"/>
<path d="M21.2559 16.9226L17.9226 20.2559C17.5972 20.5814 17.0695 20.5814 16.7441 20.2559C16.4186 19.9305 16.4186 19.4028 16.7441 19.0774L20.0774 15.7441C20.4028 15.4186 20.9305 15.4186 21.2559 15.7441C21.5814 16.0695 21.5814 16.5972 21.2559 16.9226Z" fill="white"/>
<path d="M18.1667 16.3333C18.1667 16.7936 17.7936 17.1667 17.3333 17.1667C16.8731 17.1667 16.5 16.7936 16.5 16.3333C16.5 15.8731 16.8731 15.5 17.3333 15.5C17.7936 15.5 18.1667 15.8731 18.1667 16.3333Z" fill="white"/>
<path d="M19.8333 19.6667C19.8333 20.1269 20.2064 20.5 20.6667 20.5C21.1269 20.5 21.5 20.1269 21.5 19.6667C21.5 19.2064 21.1269 18.8333 20.6667 18.8333C20.2064 18.8333 19.8333 19.2064 19.8333 19.6667Z" fill="white"/>
<defs>
<linearGradient id="paint0_linear_220_2570" x1="0.5" y1="0" x2="39.6233" y2="3.44689" gradientUnits="userSpaceOnUse">
<stop stop-color="#00FFA3"/>
<stop offset="1" stop-color="#02EF53"/>
</linearGradient>
</defs>
</svg>
