<svg width="16" height="16" viewBox="0 0 16 16" fill="none" xmlns="http://www.w3.org/2000/svg">
<path d="M0 6.1479V3.8454C0.0976712 3.82912 0.198957 3.80379 0.302054 3.79475C0.924783 3.75583 1.54119 3.64724 2.13973 3.47099C2.59936 3.32676 3.04347 3.13712 3.46551 2.90486C3.89237 2.67153 4.32647 2.44725 4.75514 2.21573C4.94198 2.11295 5.14904 2.05225 5.36181 2.03787C5.57457 2.0235 5.78791 2.0558 5.98688 2.13253C6.2817 2.23562 6.58195 2.33149 6.89124 2.43639L6.80081 2.63355C6.57471 3.11829 6.34682 3.60122 6.12796 4.08053C6.11225 4.12792 6.0836 4.16997 6.04525 4.20193C6.00689 4.23389 5.96036 4.25449 5.91092 4.2614C5.74467 4.30365 5.59884 4.4036 5.49945 4.54341C5.40006 4.68321 5.35358 4.85378 5.3683 5.02468C5.38175 5.18035 5.44439 5.3277 5.54714 5.44541C5.64989 5.56312 5.78744 5.64508 5.93986 5.67944C6.33055 5.79158 6.71942 5.92181 7.11553 6.01406C7.4363 6.09574 7.7713 6.10439 8.09586 6.03938C8.24173 6.00427 8.38977 5.97889 8.539 5.96341C8.73776 5.94649 8.93569 6.00434 9.09407 6.12561C9.25245 6.24689 9.3599 6.42287 9.39541 6.61917C9.43091 6.81547 9.39191 7.01795 9.28605 7.18702C9.18018 7.3561 9.01507 7.4796 8.82297 7.53338C8.51368 7.62563 8.208 7.73416 7.89509 7.81374C7.61775 7.882 7.33029 7.89916 7.0468 7.86438C6.79358 7.83182 6.53673 7.82639 6.27989 7.80469C5.91815 7.77575 5.5564 7.7432 5.19466 7.71245C4.98846 7.69437 4.78046 7.67085 4.57426 7.65999C4.17168 7.62688 3.78521 7.48703 3.45466 7.25484C2.76693 6.80815 2.00112 6.49519 1.19738 6.33239C0.860953 6.26366 0.51729 6.2311 0.175441 6.18046L0 6.1479Z" fill="white"/>
<path d="M15.9998 11.0151V13.5763C15.7448 13.607 15.4897 13.6197 15.2456 13.6703C14.8657 13.7499 14.4877 13.8512 14.1169 13.9543C13.7461 14.0574 13.3428 14.213 12.9611 14.3558C12.5177 14.5328 12.0368 14.595 11.563 14.5367C11.2013 14.4897 10.8395 14.4571 10.4778 14.4101C9.86461 14.3287 9.24422 14.2925 8.64914 14.0954C8.11543 13.9103 7.61244 13.6463 7.15695 13.3122L5.52909 12.1474C5.38439 12.0443 5.23608 11.9448 5.09138 11.8399C5.00754 11.7846 4.94735 11.7 4.9226 11.6026C4.89784 11.5053 4.9103 11.4022 4.95753 11.3136C4.98146 11.2684 5.01412 11.2284 5.0536 11.1959C5.09307 11.1634 5.13859 11.1391 5.18753 11.1243C5.23647 11.1095 5.28785 11.1045 5.33871 11.1097C5.38958 11.1149 5.43892 11.1301 5.48387 11.1544L7.2926 12.0009C7.7212 12.2117 8.18116 12.3516 8.65457 12.4151C9.05972 12.4621 9.46488 12.4856 9.87185 12.5146C10.3439 12.5489 10.816 12.5779 11.2881 12.605C11.4477 12.6149 11.6078 12.6149 11.7674 12.605C11.8324 12.5962 11.8944 12.572 11.9483 12.5345C12.0595 12.4708 12.1549 12.383 12.2275 12.2775C12.3002 12.172 12.3482 12.0515 12.3679 11.9249C12.3766 11.8425 12.3684 11.7591 12.3437 11.68C12.319 11.6009 12.2784 11.5276 12.2243 11.4648C12.1703 11.4019 12.104 11.3508 12.0294 11.3145C11.9549 11.2782 11.8737 11.2576 11.7909 11.2539C11.4292 11.2267 11.0674 11.2087 10.7057 11.1779C10.5631 11.1599 10.4312 11.0932 10.3323 10.989C10.2334 10.8848 10.1736 10.7496 10.163 10.6064C10.1548 10.4449 10.209 10.2865 10.3144 10.1639C10.4198 10.0413 10.5683 9.96403 10.7292 9.94798C11.1814 9.87563 11.6335 9.787 12.0785 9.70742C12.4892 9.62723 12.9149 9.71238 13.2632 9.94436C13.7586 10.2888 14.3031 10.5565 14.8784 10.7384C15.2456 10.8415 15.6164 10.9211 15.9998 11.0151Z" fill="white"/>
<path d="M4.91992 8.32009L5.40466 8.35445L5.89302 8.39786C6.09652 8.40463 6.29944 8.42335 6.50075 8.45393C6.65557 8.50152 6.80477 8.56581 6.9457 8.64566L8.73995 9.48491C8.83943 9.27329 8.93891 9.06528 9.03477 8.85909C9.17766 8.55522 9.31694 8.24774 9.46525 7.95472C9.50725 7.88027 9.561 7.81309 9.62442 7.75577C9.7879 7.59052 9.90785 7.3873 9.9735 7.16431C9.99283 7.11428 10.0312 7.07395 10.0802 7.05217C10.2513 7.00282 10.404 6.90406 10.5192 6.76828C10.6344 6.63249 10.7069 6.46572 10.7277 6.28888C10.7483 5.99768 10.6593 5.70932 10.4781 5.48039C10.2417 5.15412 9.94191 4.87894 9.59661 4.67133C9.25132 4.46372 8.86766 4.32795 8.46864 4.27216C8.15502 4.21211 7.83124 4.23327 7.5281 4.33365C7.3171 4.38816 7.13241 4.51603 7.00712 4.69435C6.88184 4.87266 6.82416 5.08976 6.84441 5.30674L6.31806 5.14758L6.89324 3.91764C7.12475 3.41663 7.35447 2.91561 7.58779 2.4164C7.76867 2.02391 7.96219 1.63323 8.14668 1.24073C8.16643 1.19104 8.19639 1.14605 8.23464 1.10868C8.27288 1.07131 8.31855 1.04239 8.36869 1.0238C8.41883 1.00522 8.47231 0.997369 8.52567 1.00078C8.57903 1.00418 8.63108 1.01876 8.67845 1.04358C9.16138 1.28052 9.65155 1.503 10.1399 1.72909C10.896 2.09084 11.6502 2.44172 12.4099 2.78719C12.4637 2.8069 12.5127 2.83819 12.5532 2.87885C12.5937 2.91951 12.6247 2.96856 12.6442 3.02253C12.6637 3.07651 12.6711 3.13411 12.6659 3.19126C12.6608 3.24841 12.6431 3.30373 12.6142 3.35332C12.2724 4.05692 11.9486 4.76774 11.6176 5.47677C11.075 6.63797 10.5324 7.80038 9.98978 8.96399C9.8089 9.36372 9.61718 9.76345 9.42726 10.1614C9.4083 10.2103 9.37893 10.2545 9.34118 10.2909C9.30343 10.3273 9.2582 10.3551 9.20865 10.3723C9.15909 10.3895 9.10639 10.3957 9.05419 10.3905C9.00199 10.3853 8.95155 10.3689 8.90635 10.3422L6.55501 9.24434C6.10825 9.03453 5.65064 8.83014 5.20931 8.62033C5.13991 8.59831 5.0771 8.55932 5.02656 8.50689C4.97603 8.45446 4.93938 8.39026 4.91992 8.32009V8.32009ZM8.83943 1.88826L8.03454 3.61016C8.57407 3.61944 9.10557 3.74249 9.59428 3.97126C10.083 4.20004 10.5179 4.52938 10.8706 4.93777L11.6737 3.21767L8.83943 1.88826Z" fill="white"/>
<path d="M8.04664 11.6392C7.84768 11.5542 7.64691 11.471 7.44976 11.3823C7.16217 11.2521 6.86916 11.1291 6.59242 10.9772C6.50727 10.9245 6.4391 10.8483 6.39612 10.7578C6.35313 10.6674 6.33714 10.5664 6.35005 10.4671C6.35319 10.3932 6.37977 10.3221 6.42594 10.2642C6.4721 10.2064 6.53548 10.1647 6.6069 10.1452C6.68546 10.1173 6.77076 10.1147 6.85086 10.1377C6.93097 10.1608 7.00186 10.2083 7.05365 10.2736C7.26346 10.5521 7.46965 10.8325 7.68127 11.111C7.80788 11.2792 7.93992 11.4438 8.07015 11.612L8.04664 11.6392Z" fill="white"/>
<path d="M10.0723 3.61927C9.96443 3.61304 9.85925 3.58345 9.764 3.53254C9.66874 3.48163 9.58569 3.41063 9.5206 3.32444C9.48443 3.28833 9.46112 3.24133 9.45426 3.19068C9.4474 3.14003 9.45736 3.08853 9.48261 3.04409C9.51621 2.9981 9.56185 2.96228 9.61451 2.94058C9.66717 2.91887 9.72481 2.91212 9.78105 2.92109C9.88265 2.92655 9.98189 2.95377 10.0721 3.00088C10.1622 3.048 10.2413 3.11393 10.3038 3.19421C10.3422 3.22771 10.3694 3.27234 10.3813 3.32192C10.3933 3.3715 10.3896 3.42358 10.3707 3.47095C10.3403 3.52158 10.296 3.56246 10.2432 3.58874C10.1903 3.61503 10.131 3.62562 10.0723 3.61927V3.61927Z" fill="white"/>
</svg>
