<svg width="37" height="36" viewBox="0 0 37 36" fill="none" xmlns="http://www.w3.org/2000/svg">
<rect opacity="0.3" x="0.25" width="36" height="36" rx="18" fill="url(#paint0_linear_220_2567)"/>
<path fill-rule="evenodd" clip-rule="evenodd" d="M17.1667 10.5001C17.1667 10.0398 17.5398 9.66675 18 9.66675C22.6024 9.66675 26.3334 13.3977 26.3334 18.0001C26.3334 22.6025 22.6024 26.3334 18 26.3334C13.3976 26.3334 9.66669 22.6025 9.66669 18.0001C9.66669 17.5398 10.0398 17.1667 10.5 17.1667C10.9603 17.1667 11.3334 17.5398 11.3334 18.0001C11.3334 21.682 14.3181 24.6667 18 24.6667C21.6819 24.6667 24.6667 21.682 24.6667 18.0001C24.6667 14.3182 21.6819 11.3334 18 11.3334C17.5398 11.3334 17.1667 10.9603 17.1667 10.5001Z" fill="white"/>
<path fill-rule="evenodd" clip-rule="evenodd" d="M17.1667 14.6666C17.1667 14.2063 17.5398 13.8333 18 13.8333C20.3012 13.8333 22.1667 15.6987 22.1667 17.9999C22.1667 20.3011 20.3012 22.1666 18 22.1666C17.5398 22.1666 17.1667 21.7935 17.1667 21.3333C17.1667 20.873 17.5398 20.4999 18 20.4999C19.3807 20.4999 20.5 19.3806 20.5 17.9999C20.5 16.6192 19.3807 15.4999 18 15.4999C17.5398 15.4999 17.1667 15.1268 17.1667 14.6666Z" fill="white"/>
<defs>
<linearGradient id="paint0_linear_220_2567" x1="0.25" y1="0" x2="39.3733" y2="3.44689" gradientUnits="userSpaceOnUse">
<stop stop-color="#00C2FF"/>
<stop offset="1" stop-color="#0094FF"/>
</linearGradient>
</defs>
</svg>
