<svg width="24" height="24" viewBox="0 0 24 24" fill="none" xmlns="http://www.w3.org/2000/svg">
<g clip-path="url(#clip0_211_4)">
<mask id="mask0_211_4" style="mask-type:luminance" maskUnits="userSpaceOnUse" x="0" y="0" width="24" height="24">
<path d="M24 0H0V24H24V0Z" fill="white"/>
</mask>
<g mask="url(#mask0_211_4)">
<path d="M21.1679 8C19.6247 4.46819 16.1006 2 11.9999 2C6.81459 2 2.55104 5.94668 2.04932 11" stroke="#141518" stroke-width="2.5" stroke-linecap="round" stroke-linejoin="round"/>
<path d="M17 8H21.4C21.7314 8 22 7.73137 22 7.4V3" stroke="#141518" stroke-width="2.5" stroke-linecap="round" stroke-linejoin="round"/>
<path d="M2.88147 16C4.42459 19.5318 7.94875 22 12.0494 22C17.2347 22 21.4983 18.0533 22 13" stroke="#141518" stroke-width="2.5" stroke-linecap="round" stroke-linejoin="round"/>
<path d="M7.04932 16H2.64932C2.31795 16 2.04932 16.2686 2.04932 16.6V21" stroke="#141518" stroke-width="2.5" stroke-linecap="round" stroke-linejoin="round"/>
</g>
</g>
<defs>
<clipPath id="clip0_211_4">
<rect width="24" height="24" fill="white"/>
</clipPath>
</defs>
</svg>
