

<svg width="32" height="32" viewBox="0 0 32 32" fill="none" xmlns="http://www.w3.org/2000/svg">
<path opacity="0.5" d="M32 16C32 24.8366 24.8366 32 16 32C7.16344 32 0 24.8366 0 16C0 7.16344 7.16344 0 16 0C24.8366 0 32 7.16344 32 16Z" fill="#7B61FF"/>
<path opacity="0.5" fill-rule="evenodd" clip-rule="evenodd" d="M8.67973 8.99996H11V11L7 11H5V8.99996V4.99996H7V8.06268C8.21506 6.68496 9.7372 5.59684 11.4557 4.8937C13.865 3.90787 16.5296 3.73226 19.0475 4.39338C21.5654 5.05449 23.8 6.51646 25.4143 8.55876C27.0285 10.6011 27.9349 13.1129 27.9966 15.7154C28.0584 18.3179 27.2721 20.8699 25.7565 22.9865C24.2409 25.103 22.0781 26.6693 19.5943 27.449C17.1106 28.2288 14.4407 28.1797 11.9873 27.3092C9.53395 26.4387 7.43018 24.794 5.99336 22.6232L7.55399 21.5902C8.76672 23.4225 10.5424 24.8107 12.6131 25.5454C14.6839 26.2801 16.9374 26.3216 19.0338 25.6634C21.1301 25.0053 22.9556 23.6833 24.2349 21.8968C25.5141 20.1104 26.1777 17.9564 26.1256 15.7598C26.0735 13.5632 25.3085 11.4431 23.946 9.71929C22.5835 7.99551 20.6974 6.76154 18.5722 6.20354C16.447 5.64553 14.198 5.79374 12.1644 6.62583C10.8413 7.16719 9.6561 7.97894 8.67973 8.99996Z" fill="white"/>
<path opacity="0.5" fill-rule="evenodd" clip-rule="evenodd" d="M21.6786 14.5H10.3214C10.1446 14.5 10 14.6266 10 14.7812V20.875C10 21.4961 10.5759 22 11.2857 22H20.7143C21.4241 22 22 21.4961 22 20.875V14.7812C22 14.6266 21.8554 14.5 21.6786 14.5ZM22 12.625V13.4688C22 13.6234 21.8554 13.75 21.6786 13.75H10.3214C10.1446 13.75 10 13.6234 10 13.4688V12.625C10 12.0039 10.5759 11.5 11.2857 11.5H12.5714V10.2812C12.5714 10.1266 12.7161 10 12.8929 10H13.9643C14.1411 10 14.2857 10.1266 14.2857 10.2812V11.5H17.7143V10.2812C17.7143 10.1266 17.8589 10 18.0357 10H19.1071C19.2839 10 19.4286 10.1266 19.4286 10.2812V11.5H20.7143C21.4241 11.5 22 12.0039 22 12.625ZM12.2111 16H13.6588C13.6764 16.0027 13.7468 16.085 13.8699 16.2467C13.7468 16.4084 13.6764 16.4907 13.6588 16.4934H12.2111C12.1935 16.4907 12.1232 16.4084 12 16.2467C12.1232 16.085 12.1935 16.0027 12.2111 16ZM13.9604 16.3454C14.1087 16.4797 14.1841 16.5565 14.1866 16.5757V18.1546C14.1841 18.1738 14.1087 18.2505 13.9604 18.3849C13.8121 18.2505 13.7367 18.1738 13.7342 18.1546V16.5757C13.7367 16.5565 13.8121 16.4797 13.9604 16.3454ZM12.2111 18.2533H13.6588C13.6764 18.256 13.7468 18.3383 13.8699 18.5C13.7468 18.6617 13.6764 18.744 13.6588 18.7467H12.2111C12.1935 18.744 12.1232 18.6617 12 18.5C12.1232 18.3383 12.1935 18.256 12.2111 18.2533ZM13.9604 18.6151C14.1087 18.7495 14.1841 18.8262 14.1866 18.8454V20.4243C14.1841 20.4435 14.1087 20.5203 13.9604 20.6546C13.8121 20.5203 13.7367 20.4435 13.7342 20.4243V18.8454C13.7367 18.8262 13.8121 18.7495 13.9604 18.6151ZM12.2111 20.5066H13.6588C13.6764 20.5093 13.7468 20.5916 13.8699 20.7533C13.7468 20.915 13.6764 20.9973 13.6588 21H12.2111C12.1935 20.9973 12.1232 20.915 12 20.7533C12.1232 20.5916 12.1935 20.5093 12.2111 20.5066ZM15.0839 16H16.5316C16.5492 16.0027 16.6195 16.085 16.7427 16.2467C16.6195 16.4084 16.5492 16.4907 16.5316 16.4934H15.0839C15.0663 16.4907 14.9959 16.4084 14.8728 16.2467C14.9959 16.085 15.0663 16.0027 15.0839 16ZM14.7823 16.3454C14.9306 16.4797 15.006 16.5565 15.0085 16.5757V18.1546C15.006 18.1738 14.9306 18.2505 14.7823 18.3849C14.634 18.2505 14.5586 18.1738 14.5561 18.1546V16.5757C14.5586 16.5565 14.634 16.4797 14.7823 16.3454ZM15.0688 18.2533H16.5467C16.6095 18.3218 16.6748 18.4041 16.7427 18.5C16.6748 18.5959 16.6095 18.6782 16.5467 18.7467H15.0688C15.006 18.6782 14.9406 18.5959 14.8728 18.5C14.9406 18.4041 15.006 18.3218 15.0688 18.2533ZM14.7823 18.5987C14.9306 18.733 15.006 18.8098 15.0085 18.8289V20.4079C15.006 20.4271 14.9306 20.5038 14.7823 20.6382C14.634 20.5038 14.5586 20.4271 14.5561 20.4079V18.8289C14.5586 18.8098 14.634 18.733 14.7823 18.5987ZM16.8332 18.6151C16.9815 18.7495 17.0569 18.8262 17.0594 18.8454V20.4243C17.0569 20.4435 16.9815 20.5203 16.8332 20.6546C16.6849 20.5203 16.6095 20.4435 16.607 20.4243V18.8454C16.6095 18.8262 16.6849 18.7495 16.8332 18.6151ZM15.0839 20.5066H16.5316C16.5492 20.5093 16.6195 20.5916 16.7427 20.7533C16.6195 20.915 16.5492 20.9973 16.5316 21H15.0839C15.0663 20.9973 14.9959 20.915 14.8728 20.7533C14.9959 20.5916 15.0663 20.5093 15.0839 20.5066ZM19.4722 16H18.0245C18.0069 16.0027 17.9365 16.085 17.8134 16.2467C17.9365 16.4084 18.0069 16.4907 18.0245 16.4934H19.4722C19.4898 16.4907 19.5602 16.4084 19.6833 16.2467C19.5602 16.085 19.4898 16.0027 19.4722 16ZM17.9491 16.5757C17.9466 16.5565 17.8712 16.4797 17.7229 16.3454C17.5746 16.4797 17.4992 16.5565 17.4967 16.5757V18.1546C17.4992 18.1738 17.5746 18.2505 17.7229 18.3849C17.8712 18.2505 17.9466 18.1738 17.9491 18.1546V16.5757ZM19.4873 18.2533H18.0094C17.9466 18.3218 17.8812 18.4041 17.8134 18.5C17.8812 18.5959 17.9466 18.6782 18.0094 18.7467H19.4873C19.5501 18.6782 19.6155 18.5959 19.6833 18.5C19.6155 18.4041 19.5501 18.3218 19.4873 18.2533ZM20 18.8454C19.9975 18.8262 19.9221 18.7495 19.7738 18.6151C19.6255 18.7495 19.5501 18.8262 19.5476 18.8454V20.4243C19.5501 20.4435 19.6255 20.5203 19.7738 20.6546C19.9221 20.5203 19.9975 20.4435 20 20.4243V18.8454ZM19.4722 20.5066H18.0245C18.0069 20.5093 17.9365 20.5916 17.8134 20.7533C17.9365 20.915 18.0069 20.9973 18.0245 21H19.4722C19.4898 20.9973 19.5602 20.915 19.6833 20.7533C19.5602 20.5916 19.4898 20.5093 19.4722 20.5066Z" fill="white"/>
</svg>