<svg width="32" height="32" viewBox="0 0 32 32" fill="none" xmlns="http://www.w3.org/2000/svg">
<path opacity="0.5" d="M32 16C32 24.8366 24.8366 32 16 32C7.16344 32 0 24.8366 0 16C0 7.16344 7.16344 0 16 0C24.8366 0 32 7.16344 32 16Z" fill="#ABBFA3"/>
<path opacity="0.5" fill-rule="evenodd" clip-rule="evenodd" d="M25.4643 12.25H6.53571C6.24107 12.25 6 12.482 6 12.7656V23.9375C6 25.0762 6.95982 26 8.14286 26H23.8571C25.0402 26 26 25.0762 26 23.9375V12.7656C26 12.482 25.7589 12.25 25.4643 12.25ZM26 8.8125V10.3594C26 10.643 25.7589 10.875 25.4643 10.875H6.53571C6.24107 10.875 6 10.643 6 10.3594V8.8125C6 7.67383 6.95982 6.75 8.14286 6.75H10.2857V4.51562C10.2857 4.23203 10.5268 4 10.8214 4H12.6071C12.9018 4 13.1429 4.23203 13.1429 4.51562V6.75H18.8571V4.51562C18.8571 4.23203 19.0982 4 19.3929 4H21.1786C21.4732 4 21.7143 4.23203 21.7143 4.51562V6.75H23.8571C25.0402 6.75 26 7.67383 26 8.8125ZM11 19H9V24H11V19ZM13 17H15V24H13V17ZM19 18H17V24H19V18ZM21 17H23V24H21V17ZM18.0571 17.0893L22.4472 14.8943L21.5527 13.1055L17.9428 14.9105L13.9428 13.4105L8.55273 16.1055L9.44716 17.8943L14.0571 15.5893L18.0571 17.0893Z" fill="white"/>
</svg>