

<svg width="32" height="32" viewBox="0 0 32 32" fill="none" xmlns="http://www.w3.org/2000/svg">
<path opacity="0.5" d="M32 16C32 24.8366 24.8366 32 16 32C7.16344 32 0 24.8366 0 16C0 7.16344 7.16344 0 16 0C24.8366 0 32 7.16344 32 16Z" fill="#EFCF5D"/>
<path opacity="0.5" fill-rule="evenodd" clip-rule="evenodd" d="M8.67973 8.99996H11V11L7 11H5V8.99996V4.99996H7V8.06268C8.21506 6.68496 9.7372 5.59684 11.4557 4.8937C13.865 3.90787 16.5296 3.73226 19.0475 4.39338C21.5654 5.05449 23.8 6.51646 25.4143 8.55876C27.0285 10.6011 27.9349 13.1129 27.9966 15.7154C28.0584 18.3179 27.2721 20.8699 25.7565 22.9865C24.2409 25.103 22.0781 26.6693 19.5943 27.449C17.1106 28.2288 14.4407 28.1797 11.9873 27.3092C9.53395 26.4387 7.43018 24.794 5.99336 22.6232L7.55399 21.5902C8.76672 23.4225 10.5424 24.8107 12.6131 25.5454C14.6839 26.2801 16.9374 26.3216 19.0338 25.6634C21.1301 25.0053 22.9556 23.6833 24.2349 21.8968C25.5141 20.1104 26.1777 17.9564 26.1256 15.7598C26.0735 13.5632 25.3085 11.4431 23.946 9.71929C22.5835 7.99551 20.6974 6.76154 18.5722 6.20354C16.447 5.64553 14.198 5.79374 12.1644 6.62583C10.8413 7.16719 9.6561 7.97894 8.67973 8.99996Z" fill="white"/>
<path opacity="0.5" d="M10.3214 14.5H21.6786C21.8554 14.5 22 14.6266 22 14.7812V20.875C22 21.4961 21.4241 22 20.7143 22H11.2857C10.5759 22 10 21.4961 10 20.875V14.7812C10 14.6266 10.1446 14.5 10.3214 14.5ZM22 13.4688V12.625C22 12.0039 21.4241 11.5 20.7143 11.5H19.4286V10.2812C19.4286 10.1266 19.2839 10 19.1071 10H18.0357C17.8589 10 17.7143 10.1266 17.7143 10.2812V11.5H14.2857V10.2812C14.2857 10.1266 14.1411 10 13.9643 10H12.8929C12.7161 10 12.5714 10.1266 12.5714 10.2812V11.5H11.2857C10.5759 11.5 10 12.0039 10 12.625V13.4688C10 13.6234 10.1446 13.75 10.3214 13.75H21.6786C21.8554 13.75 22 13.6234 22 13.4688Z" fill="white"/>
</svg>