<svg width="32" height="32" viewBox="0 0 32 32" fill="none" xmlns="http://www.w3.org/2000/svg">
<path opacity="0.5" d="M32 16C32 24.8366 24.8366 32 16 32C7.16344 32 0 24.8366 0 16C0 7.16344 7.16344 0 16 0C24.8366 0 32 7.16344 32 16Z" fill="#4FA89B"/>
<path opacity="0.5" fill-rule="evenodd" clip-rule="evenodd" d="M8.67973 8.99996H11V11L7 11H5V8.99996V4.99996H7V8.06268C8.21506 6.68496 9.7372 5.59684 11.4557 4.8937C13.865 3.90787 16.5296 3.73226 19.0475 4.39338C21.5654 5.05449 23.8 6.51646 25.4143 8.55876C27.0285 10.6011 27.9349 13.1129 27.9966 15.7154C28.0584 18.3179 27.2721 20.8699 25.7565 22.9865C24.2409 25.103 22.0781 26.6693 19.5943 27.449C17.1106 28.2288 14.4407 28.1797 11.9873 27.3092C9.53395 26.4387 7.43018 24.794 5.99336 22.6232L7.55399 21.5902C8.76672 23.4225 10.5424 24.8107 12.6131 25.5454C14.6839 26.2801 16.9374 26.3216 19.0338 25.6634C21.1301 25.0053 22.9556 23.6833 24.2349 21.8968C25.5141 20.1104 26.1777 17.9564 26.1256 15.7598C26.0735 13.5632 25.3085 11.4431 23.946 9.71929C22.5835 7.99551 20.6974 6.76154 18.5722 6.20354C16.447 5.64553 14.198 5.79374 12.1644 6.62583C10.8413 7.16719 9.6561 7.97894 8.67973 8.99996Z" fill="white"/>
<path opacity="0.5" d="M23 16C23 17.3845 22.5895 18.7378 21.8203 19.889C21.0511 21.0401 19.9579 21.9373 18.6788 22.4672C17.3997 22.997 15.9922 23.1356 14.6344 22.8655C13.2765 22.5954 12.0292 21.9287 11.0503 20.9497C10.0713 19.9708 9.4046 18.7235 9.13451 17.3656C8.86441 16.0078 9.00303 14.6003 9.53285 13.3212C10.0627 12.0421 10.9599 10.9489 12.111 10.1797C13.2622 9.41054 14.6155 9 16 9V16H23Z" fill="white"/>
<path opacity="0.5" d="M23 14.5C23 13.7777 22.8577 13.0625 22.5813 12.3952C22.3049 11.728 21.8998 11.1216 21.3891 10.6109C20.8784 10.1002 20.272 9.69506 19.6048 9.41866C18.9375 9.14226 18.2223 9 17.5 9L17.5 14.5H23Z" fill="white"/>
</svg>