<svg width="32" height="32" viewBox="0 0 32 32" fill="none" xmlns="http://www.w3.org/2000/svg">
<path opacity="0.5" d="M32 16C32 24.8366 24.8366 32 16 32C7.16344 32 0 24.8366 0 16C0 7.16344 7.16344 0 16 0C24.8366 0 32 7.16344 32 16Z" fill="#E84142"/>
<path opacity="0.5" d="M8 10.75V18.25C8 18.6642 8.33578 19 8.75 19H11.25C11.6642 19 12 18.6642 12 18.25V10.75C12 10.3358 11.6642 10 11.25 10H8.75C8.33578 10 8 10.3358 8 10.75ZM9.25 17C9.25 16.5858 9.58578 16.25 10 16.25C10.4142 16.25 10.75 16.5858 10.75 17C10.75 17.4142 10.4142 17.75 10 17.75C9.58578 17.75 9.25 17.4142 9.25 17ZM17.75 25C17.1193 25 16.8286 23.7721 16.6896 23.1939C16.527 22.5168 16.3587 21.8167 15.8961 21.3532C14.8815 20.3368 14.3491 19.0417 13.1112 17.8185C13.076 17.7837 13.048 17.7422 13.0289 17.6965C13.0098 17.6508 13 17.6018 13 17.5522V10.8719C13 10.6675 13.1639 10.5007 13.3682 10.497C13.863 10.4879 14.5149 10.2133 15.0136 9.99141C16.0059 9.54994 17.2409 9.00053 18.7498 9H18.8387C20.1755 9 21.7563 9.01291 22.3941 9.92928C22.6564 10.3061 22.7206 10.7741 22.5863 11.324C23.096 11.8569 23.3695 12.851 23.0982 13.6602C23.6464 14.3924 23.6964 15.4143 23.3891 16.1436L23.3925 16.147C23.7642 16.5204 24.0026 17.1239 24 17.6844C23.9951 18.6329 23.1826 19.5 22.139 19.5H18.9601C19.1884 20.3856 20 21.1291 20 22.4546C20 24.75 18.5 25 17.75 25Z" fill="white"/>
</svg>