<svg width="32" height="32" viewBox="0 0 32 32" fill="none" xmlns="http://www.w3.org/2000/svg">
<path opacity="0.5" d="M32 16C32 24.8366 24.8366 32 16 32C7.16344 32 0 24.8366 0 16C0 7.16344 7.16344 0 16 0C24.8366 0 32 7.16344 32 16Z" fill="#2775CA"/>
<path opacity="0.5" d="M9 15H7V26H9V15Z" fill="white"/>
<path opacity="0.5" d="M10 22V16L17 22H10Z" fill="white"/>
<path opacity="0.5" fill-rule="evenodd" clip-rule="evenodd" d="M10.8968 8.51153C10.4251 8.85114 10 9.42592 10 10.5C10 11.5741 10.4251 12.1489 10.8968 12.4885C11.4195 12.8648 12.0767 13 12.5 13H20.5C21.5767 13 23.1695 13.3148 24.5218 14.2885C25.9251 15.2989 27 16.9741 27 19.5C27 22.0259 25.9251 23.7011 24.5218 24.7115C23.1695 25.6852 21.5767 26 20.5 26H10V24H20.5C21.2566 24 22.4139 23.7648 23.3532 23.0885C24.2415 22.4489 25 21.3741 25 19.5C25 17.6259 24.2415 16.5511 23.3532 15.9115C22.4139 15.2352 21.2566 15 20.5 15H12.5C11.7566 15 10.6639 14.7852 9.7282 14.1115C8.74153 13.4011 8 12.2259 8 10.5C8 8.77408 8.74153 7.59886 9.7282 6.88847C10.6639 6.21478 11.7566 6 12.5 6H18V8H12.5C12.0767 8 11.4195 8.13522 10.8968 8.51153Z" fill="white"/>
</svg>