<svg width="32" height="32" viewBox="0 0 32 32" fill="none" xmlns="http://www.w3.org/2000/svg">
<path opacity="0.5" d="M32 16C32 24.8366 24.8366 32 16 32C7.16344 32 0 24.8366 0 16C0 7.16344 7.16344 0 16 0C24.8366 0 32 7.16344 32 16Z" fill="#83BD67"/>
<path opacity="0.5" d="M8 21.25V13.75C8 13.3358 8.33578 13 8.75 13H11.25C11.6642 13 12 13.3358 12 13.75V21.25C12 21.6642 11.6642 22 11.25 22H8.75C8.33578 22 8 21.6642 8 21.25ZM9.25 15C9.25 15.4142 9.58578 15.75 10 15.75C10.4142 15.75 10.75 15.4142 10.75 15C10.75 14.5858 10.4142 14.25 10 14.25C9.58578 14.25 9.25 14.5858 9.25 15ZM17.75 7C17.1193 7 16.8286 8.22791 16.6896 8.80609C16.527 9.48316 16.3587 10.1833 15.8961 10.6468C14.8815 11.6632 14.3491 12.9583 13.1112 14.1815C13.076 14.2163 13.048 14.2578 13.0289 14.3035C13.0098 14.3492 13 14.3982 13 14.4478V21.1281C13 21.3325 13.1639 21.4993 13.3682 21.503C13.863 21.5121 14.5149 21.7867 15.0136 22.0086C16.0059 22.4501 17.2409 22.9995 18.7498 23H18.8387C20.1755 23 21.7563 22.9871 22.3941 22.0707C22.6564 21.6939 22.7206 21.2259 22.5863 20.676C23.096 20.1431 23.3695 19.149 23.0982 18.3398C23.6464 17.6076 23.6964 16.5857 23.3891 15.8564L23.3925 15.853C23.7642 15.4796 24.0026 14.8761 24 14.3156C23.9951 13.3671 23.1826 12.5 22.139 12.5H18.9601C19.1884 11.6144 20 10.8709 20 9.54537C20 7.25 18.5 7 17.75 7Z" fill="white"/>
</svg>