<svg width="60" height="60" viewBox="0 0 60 60" fill="none" xmlns="http://www.w3.org/2000/svg">
<g clip-path="url(#clip0_368_2024)">
<path fill-rule="evenodd" clip-rule="evenodd" d="M29.9998 53.9996C43.2545 53.9996 53.9996 43.2545 53.9996 29.9998C53.9996 16.745 43.2545 5.99996 29.9998 5.99996C16.745 5.99996 5.99996 16.745 5.99996 29.9998C5.99996 43.2545 16.745 53.9996 29.9998 53.9996ZM29.9998 59.9996C46.5682 59.9996 59.9996 46.5682 59.9996 29.9998C59.9996 13.4314 46.5682 0 29.9998 0C13.4314 0 0 13.4314 0 29.9998C0 46.5682 13.4314 59.9996 29.9998 59.9996Z" fill="white"/>
<path fill-rule="evenodd" clip-rule="evenodd" d="M30 12.0007C31.6568 12.0007 33 13.3439 33 15.0007V28.758L39.6212 35.3792C40.7928 36.5508 40.7928 38.4503 39.6212 39.6219C38.4497 40.7934 36.5502 40.7934 35.3786 39.6219L27.8787 32.1219C27.3161 31.5593 27 30.7962 27 30.0006V15.0007C27 13.3439 28.3431 12.0007 30 12.0007Z" fill="white"/>
</g>
<defs>
<clipPath id="clip0_368_2024">
<rect width="60" height="60" fill="white"/>
</clipPath>
</defs>
</svg>
