<svg width="20" height="20" viewBox="0 0 20 20" fill="none" xmlns="http://www.w3.org/2000/svg">
<path d="M5.4916 9.88211C5.5968 10.0771 5.79684 10.1987 6.01441 10.1987H9.40228V16.8881C9.40228 17.2259 9.67006 17.5 10 17.5C10.3299 17.5 10.5977 17.2259 10.5977 16.8881V10.1987H13.9856C14.204 10.1987 14.404 10.0771 14.5084 9.88211C14.6144 9.68711 14.6072 9.44887 14.4917 9.2604L10.5061 2.78556C10.3961 2.6077 10.2056 2.5 10 2.5C9.79438 2.5 9.60391 2.6077 9.49393 2.78556L5.50834 9.2604C5.44777 9.35994 5.41669 9.47335 5.41669 9.58676C5.41669 9.68792 5.44219 9.78991 5.4916 9.88211" fill="#11CABE"/>
</svg>
