<svg width="180" height="180" viewBox="0 0 180 180" fill="none" xmlns="http://www.w3.org/2000/svg">
<path d="M150.666 176.908H30.0223C18.487 176.908 11.2687 164.431 17.0187 154.431L77.3409 49.523C83.1084 39.4924 97.5804 39.4923 103.348 49.5229L163.67 154.431C169.42 164.431 162.202 176.908 150.666 176.908Z" stroke="#FFD500" stroke-width="2.5" stroke-linecap="round"/>
<path d="M90.3444 86.908V116.908" stroke="#FFD500" stroke-width="2.5" stroke-linecap="round"/>
<mask id="path-3-outside-1_181_1891" maskUnits="userSpaceOnUse" x="87.3444" y="143.9" width="6" height="6" fill="black">
<rect fill="white" x="87.3444" y="143.9" width="6" height="6"/>
<path d="M90.3444 146.983L90.4193 146.9Z"/>
</mask>
<path d="M88.4869 145.31C87.5628 146.335 87.6453 147.916 88.6711 148.84C89.6969 149.764 91.2777 149.682 92.2018 148.656L88.4869 145.31ZM92.2767 148.573C93.2009 147.547 93.1184 145.966 92.0926 145.042C91.0667 144.118 89.486 144.201 88.5618 145.226L92.2767 148.573ZM92.2018 148.656L92.2767 148.573L88.5618 145.226L88.4869 145.31L92.2018 148.656Z" fill="#FFD500" mask="url(#path-3-outside-1_181_1891)"/>
</svg>
