<svg width="14" height="14" viewBox="0 0 14 14" fill="none" xmlns="http://www.w3.org/2000/svg">
<path fill-rule="evenodd" clip-rule="evenodd" d="M1.17986 10.732L1.60257 8.82985C1.69884 8.39665 1.91664 7.99989 2.23043 7.6861L7.97505 1.94148C8.88628 1.03025 10.3637 1.03025 11.2749 1.94147L12.0584 2.72498C12.9696 3.6362 12.9696 5.11358 12.0584 6.02481L6.31376 11.7694C5.99997 12.0832 5.60321 12.301 5.17002 12.3973L3.26782 12.82C2.01745 13.0979 0.902002 11.9824 1.17986 10.732ZM2.74146 9.08293L2.31875 10.9851C2.22613 11.4019 2.59794 11.7737 3.01473 11.6811L4.91693 11.2584C5.12524 11.2121 5.3167 11.1096 5.47061 10.9623L3.03759 8.52925C2.89025 8.68316 2.78775 8.87462 2.74146 9.08293ZM3.86235 7.7041L6.29576 10.1375L9.55414 6.87914L7.12072 4.44572L3.86235 7.7041ZM11.2334 5.19985L10.3791 6.05418L7.94568 3.62076L8.80001 2.76643C9.25562 2.31082 9.99432 2.31082 10.4499 2.76643L11.2334 3.54993C11.689 4.00554 11.689 4.74424 11.2334 5.19985Z" fill="#777E91"/>
</svg>
