<svg width="20" height="20" viewBox="0 0 20 20" fill="none" xmlns="http://www.w3.org/2000/svg">
<path d="M14.5084 10.1179C14.4032 9.9229 14.2032 9.80133 13.9856 9.80133L10.5977 9.80133L10.5977 3.11191C10.5977 2.77414 10.3299 2.5 10 2.5C9.67006 2.5 9.40228 2.77414 9.40228 3.11191L9.40228 9.80133L6.01441 9.80133C5.79604 9.80133 5.596 9.9229 5.4916 10.1179C5.38561 10.3129 5.39278 10.5511 5.50834 10.7396L9.49393 17.2144C9.60391 17.3923 9.79439 17.5 10 17.5C10.2056 17.5 10.3961 17.3923 10.5061 17.2144L14.4917 10.7396C14.5522 10.6401 14.5833 10.5267 14.5833 10.4132C14.5833 10.3121 14.5578 10.2101 14.5084 10.1179" fill="#FF6838"/>
</svg>
