<svg width="32" height="32" viewBox="0 0 32 32" fill="none" xmlns="http://www.w3.org/2000/svg">
<path d="M29.6129 26.1558L27.7497 26.6112L27.3641 26.9039L10.9268 24.6936H1.20312L4.67513 16.0998L10.3197 16.1336L11.6866 18.6141L16.1958 23.295L15.6116 20.3804L19.6361 21.0959L27.3641 26.9039L21.2561 21.0959L20.2532 18.3215L16.7252 9.72892C16.7252 9.72892 14.0144 4.92918 13.9584 4.87539C14.0348 4.8854 20.2532 4.85287 20.2532 4.85287L21.3885 9.46873L23.8921 18.3215L24.5754 20.717L27 23.5226L25.0273 20.5106L26.3165 19.9689L26.9338 22.6997L26.9898 23.5226L29.6129 26.1558Z" fill="#F58C25"/>
<path d="M10.3186 16.1322L4.67406 16.0998L3.32878 14.68L4.17769 14.117L2.65678 13.3039L3.9575 12.9574L2.17188 11.8529L3.24097 11.3975L3.50569 9.7501L6.47115 4.31114L10.484 0.852386L13.9459 4.8728L16.7242 9.71632L10.3186 16.1311V16.1322Z" fill="#81491F"/>
<path d="M1.20312 24.6935H10.9369L13.5944 28.1822C13.5944 28.1822 6.98003 30.1437 3.66076 31.1406C2.81186 28.9191 2.00621 26.8062 1.20312 24.6935Z" fill="#E48027"/>
<path d="M27.375 9.96666L28.1577 10.8548L27.585 11.5278L28.3779 12.0907L27.8051 12.8387L27.9374 14.0196L26.9562 15.1679L21.3881 9.4688L30.2628 2.24106L27.375 9.96666Z" fill="#81491F"/>
<path d="M27.3651 26.9038L27.3981 29.0603L24.2342 30.6315L13.5839 28.1922C13.5839 28.1922 13.5063 28.2472 13.5839 28.1922C18.0487 27.7707 27.3651 26.9038 27.3651 26.9038Z" fill="#D9C6B7"/>
<path d="M30.2625 2.24106L21.3878 9.46881L20.2526 4.85296L30.2625 2.24106Z" fill="#E48027"/>
<path d="M21.3881 9.4686L26.9447 15.1678L26.7132 18.1262L23.8915 18.3212L21.3881 9.4686Z" fill="#E57F24"/>
<path d="M13.5834 28.1808L24.2322 30.6201L27.3963 29.0477L29.5688 28.8639L27.9143 30.9879L23.4279 31.3882L13.5834 28.1808Z" fill="#C7B7AB"/>
<path d="M13.5835 28.1822L10.9375 24.6922L16.1964 23.2949L13.5835 28.1822Z" fill="#D76F21"/>
<path d="M29.5703 28.864C28.8423 28.929 28.1258 28.994 27.3978 29.0491L27.3646 26.8925L27.7504 26.5998L29.6136 26.1558C29.6136 26.1558 30.2423 26.5885 30.7819 26.8925C30.353 27.5856 29.9547 28.2247 29.5703 28.864Z" fill="#2A2626"/>
<path d="M23.8906 18.3215L26.7136 18.1263L26.3279 19.9689L25.2588 18.7118L25.0272 20.5106L26.9999 23.5228L24.5754 20.7057L23.8919 18.3215H23.8906Z" fill="#D66F21"/>
<path d="M10.3203 16.1321L16.7259 9.71744L20.2539 18.3212L11.6885 18.614L10.3203 16.1321Z" fill="#E47E25"/>
<path d="M13.5834 28.1822L16.1963 23.2949L27.3644 26.9038L13.5834 28.1822Z" fill="#E47F26"/>
<path d="M11.6875 18.6141L20.2529 18.3214L19.6357 21.096L18.1924 18.9069L15.6126 20.3805L11.6875 18.6141Z" fill="#D66F21"/>
<path d="M19.6354 21.096L20.2525 18.3214L21.2554 21.096L27.3645 26.904C27.3645 26.904 21.3993 22.4282 19.6354 21.096Z" fill="#E47F25"/>
<path d="M19.6362 21.0958L15.6119 20.3803L18.1917 18.9067L19.6362 21.0958Z" fill="#32404E"/>
<path d="M15.6126 20.3802L16.1967 23.2948L11.6875 18.6151L15.6126 20.3815V20.3802Z" fill="#E57F25"/>
<path d="M25.0287 20.5106L25.2602 18.7118L26.3293 19.9678L25.0287 20.5106Z" fill="#38424D"/>
<path d="M26.3281 19.9689L26.7137 18.1263L27.121 20.0878L26.9454 22.6997L26.3281 19.9689Z" fill="#E57F24"/>
</svg>
