<svg width="32" height="32" viewBox="0 0 32 32" fill="none" xmlns="http://www.w3.org/2000/svg">
<g clip-path="url(#clip0_111_1825)">
<path d="M25.8511 5.48938H6.10638V23.4468H25.8511V5.48938Z" fill="white"/>
<path fill-rule="evenodd" clip-rule="evenodd" d="M31.9681 16C31.9681 24.8249 24.8143 31.9787 15.9894 31.9787C7.16455 31.9787 0.0106354 24.8249 0.0106354 16C0.0106354 7.17516 7.16455 0.0212402 15.9894 0.0212402C24.8143 0.0212402 31.9681 7.17516 31.9681 16ZM11.4614 22.3587H8.36042C7.70881 22.3587 7.38693 22.3587 7.19068 22.2332C6.9787 22.0957 6.84917 21.868 6.83347 21.6168C6.82168 21.3853 6.98264 21.1026 7.30451 20.5373L14.9613 7.04113C15.2871 6.46803 15.452 6.18147 15.66 6.0755C15.8838 5.96167 16.1507 5.96167 16.3744 6.0755C16.5825 6.18147 16.7474 6.46803 17.0731 7.04113L18.6472 9.78888L18.6553 9.8029C19.0071 10.4177 19.1856 10.7295 19.2635 11.0568C19.3498 11.414 19.3498 11.7908 19.2635 12.148C19.185 12.4777 19.0084 12.7918 18.6511 13.4159L14.6292 20.5255L14.6188 20.5438C14.2646 21.1636 14.0851 21.4778 13.8363 21.7149C13.5654 21.974 13.2396 22.1623 12.8824 22.2685C12.5566 22.3587 12.1916 22.3587 11.4614 22.3587ZM19.2925 22.3587H23.736C24.3915 22.3587 24.7213 22.3587 24.9177 22.2293C25.1296 22.0919 25.263 21.8602 25.2749 21.6091C25.2862 21.3851 25.1287 21.1134 24.8202 20.581C24.8096 20.5628 24.7989 20.5444 24.7881 20.5256L22.5623 16.718L22.537 16.6752C22.2243 16.1463 22.0664 15.8792 21.8636 15.776C21.64 15.6621 21.3768 15.6621 21.1532 15.776C20.949 15.8819 20.7842 16.1606 20.4584 16.722L18.2406 20.5296L18.233 20.5427C17.9083 21.1031 17.746 21.3832 17.7577 21.6129C17.7734 21.8642 17.903 22.0957 18.1149 22.2332C18.3073 22.3587 18.637 22.3587 19.2925 22.3587Z" fill="#E84142"/>
</g>
<defs>
<clipPath id="clip0_111_1825">
<rect width="31.9787" height="32" fill="white"/>
</clipPath>
</defs>
</svg>
