<svg width="24" height="24" viewBox="0 0 24 24" fill="none" xmlns="http://www.w3.org/2000/svg">
<path d="M11.9894 23.9878C18.611 23.9878 23.9788 18.618 23.9788 11.9939C23.9788 5.36986 18.611 0 11.9894 0C5.36784 0 0 5.36986 0 11.9939C0 18.618 5.36784 23.9878 11.9894 23.9878Z" fill="#FFE5AA"/>
<path d="M11.9894 23.9878C18.611 23.9878 23.9788 18.618 23.9788 11.9939C23.9788 5.36986 18.611 0 11.9894 0C5.36784 0 0 5.36986 0 11.9939C0 18.618 5.36784 23.9878 11.9894 23.9878Z" fill="url(#paint0_linear_41_2683)"/>
<path d="M11.9894 23.9878C18.611 23.9878 23.9788 18.618 23.9788 11.9939C23.9788 5.36986 18.611 0 11.9894 0C5.36784 0 0 5.36986 0 11.9939C0 18.618 5.36784 23.9878 11.9894 23.9878Z" fill="url(#paint1_linear_41_2683)"/>
<path d="M11.9894 23.9878C18.611 23.9878 23.9788 18.618 23.9788 11.9939C23.9788 5.36986 18.611 0 11.9894 0C5.36784 0 0 5.36986 0 11.9939C0 18.618 5.36784 23.9878 11.9894 23.9878Z" fill="url(#paint2_linear_41_2683)"/>
<path d="M6.75729 17.1976C6.68315 17.1234 6.57723 17.081 6.47132 17.081C6.40777 17.081 6.35481 17.0916 6.30186 17.1234C6.25949 17.1446 6.22772 17.1658 6.19594 17.1976C6.16417 17.2294 6.14299 17.2611 6.1218 17.2929C6.09003 17.3459 6.06885 17.4201 6.06885 17.4836C6.06885 17.5896 6.11121 17.6956 6.18535 17.7697C6.25949 17.8439 6.36541 17.8863 6.47132 17.8863C6.57723 17.8863 6.68315 17.8439 6.75729 17.7697C6.83142 17.6956 6.87379 17.5896 6.87379 17.4836C6.87379 17.3777 6.83142 17.2717 6.75729 17.1976ZM6.57723 17.5896C6.54546 17.6214 6.51368 17.632 6.47132 17.632C6.42895 17.632 6.38659 17.6214 6.36541 17.5896C6.33363 17.5578 6.32304 17.526 6.32304 17.4836C6.32304 17.4413 6.33363 17.3989 6.36541 17.3777C6.39718 17.3459 6.42895 17.3353 6.47132 17.3353C6.51368 17.3353 6.55605 17.3459 6.57723 17.3777C6.60901 17.4095 6.6196 17.4413 6.6196 17.4836C6.63019 17.526 6.60901 17.5684 6.57723 17.5896Z" fill="url(#paint3_linear_41_2683)"/>
<path d="M6.75729 17.1976C6.68315 17.1234 6.57723 17.081 6.47132 17.081C6.40777 17.081 6.35481 17.0916 6.30186 17.1234C6.25949 17.1446 6.22772 17.1658 6.19594 17.1976C6.16417 17.2294 6.14299 17.2611 6.1218 17.2929C6.09003 17.3459 6.06885 17.4201 6.06885 17.4836C6.06885 17.5896 6.11121 17.6956 6.18535 17.7697C6.25949 17.8439 6.36541 17.8863 6.47132 17.8863C6.57723 17.8863 6.68315 17.8439 6.75729 17.7697C6.83142 17.6956 6.87379 17.5896 6.87379 17.4836C6.87379 17.3777 6.83142 17.2717 6.75729 17.1976ZM6.57723 17.5896C6.54546 17.6214 6.51368 17.632 6.47132 17.632C6.42895 17.632 6.38659 17.6214 6.36541 17.5896C6.33363 17.5578 6.32304 17.526 6.32304 17.4836C6.32304 17.4413 6.33363 17.3989 6.36541 17.3777C6.39718 17.3459 6.42895 17.3353 6.47132 17.3353C6.51368 17.3353 6.55605 17.3459 6.57723 17.3777C6.60901 17.4095 6.6196 17.4413 6.6196 17.4836C6.63019 17.526 6.60901 17.5684 6.57723 17.5896Z" fill="url(#paint4_radial_41_2683)" style="mix-blend-mode:overlay"/>
<path d="M6.75729 17.1976C6.68315 17.1234 6.57723 17.081 6.47132 17.081C6.40777 17.081 6.35481 17.0916 6.30186 17.1234C6.25949 17.1446 6.22772 17.1658 6.19594 17.1976C6.16417 17.2294 6.14299 17.2611 6.1218 17.2929C6.09003 17.3459 6.06885 17.4201 6.06885 17.4836C6.06885 17.5896 6.11121 17.6956 6.18535 17.7697C6.25949 17.8439 6.36541 17.8863 6.47132 17.8863C6.57723 17.8863 6.68315 17.8439 6.75729 17.7697C6.83142 17.6956 6.87379 17.5896 6.87379 17.4836C6.87379 17.3777 6.83142 17.2717 6.75729 17.1976ZM6.57723 17.5896C6.54546 17.6214 6.51368 17.632 6.47132 17.632C6.42895 17.632 6.38659 17.6214 6.36541 17.5896C6.33363 17.5578 6.32304 17.526 6.32304 17.4836C6.32304 17.4413 6.33363 17.3989 6.36541 17.3777C6.39718 17.3459 6.42895 17.3353 6.47132 17.3353C6.51368 17.3353 6.55605 17.3459 6.57723 17.3777C6.60901 17.4095 6.6196 17.4413 6.6196 17.4836C6.63019 17.526 6.60901 17.5684 6.57723 17.5896Z" fill="#F0D7AB" style="mix-blend-mode:color"/>
<path d="M3.25166 14.3049C3.21989 14.1989 3.15634 14.1142 3.06101 14.0612C3.00806 14.0294 2.94451 14.0082 2.89155 14.0082C2.84919 14.0082 2.80682 14.0082 2.76446 14.0188C2.72209 14.0294 2.69032 14.04 2.65854 14.0612C2.60559 14.093 2.55263 14.1459 2.52086 14.1989C2.4679 14.2943 2.45731 14.4002 2.47849 14.5062C2.52086 14.6863 2.69032 14.8029 2.87037 14.8029C2.90214 14.8029 2.94451 14.8029 2.97628 14.7923C3.17752 14.7393 3.30462 14.5274 3.25166 14.3049ZM2.90214 14.5592C2.85978 14.5698 2.81741 14.5592 2.78564 14.538C2.75387 14.5168 2.72209 14.485 2.7115 14.4426C2.70091 14.4002 2.7115 14.3579 2.72209 14.3261C2.74327 14.2943 2.77505 14.2625 2.81741 14.2519C2.828 14.2519 2.8386 14.2413 2.85978 14.2413C2.93392 14.2413 2.98688 14.2837 3.00806 14.3579C3.02924 14.4532 2.98688 14.538 2.90214 14.5592Z" fill="url(#paint5_linear_41_2683)"/>
<path d="M3.25166 14.3049C3.21989 14.1989 3.15634 14.1142 3.06101 14.0612C3.00806 14.0294 2.94451 14.0082 2.89155 14.0082C2.84919 14.0082 2.80682 14.0082 2.76446 14.0188C2.72209 14.0294 2.69032 14.04 2.65854 14.0612C2.60559 14.093 2.55263 14.1459 2.52086 14.1989C2.4679 14.2943 2.45731 14.4002 2.47849 14.5062C2.52086 14.6863 2.69032 14.8029 2.87037 14.8029C2.90214 14.8029 2.94451 14.8029 2.97628 14.7923C3.17752 14.7393 3.30462 14.5274 3.25166 14.3049ZM2.90214 14.5592C2.85978 14.5698 2.81741 14.5592 2.78564 14.538C2.75387 14.5168 2.72209 14.485 2.7115 14.4426C2.70091 14.4002 2.7115 14.3579 2.72209 14.3261C2.74327 14.2943 2.77505 14.2625 2.81741 14.2519C2.828 14.2519 2.8386 14.2413 2.85978 14.2413C2.93392 14.2413 2.98688 14.2837 3.00806 14.3579C3.02924 14.4532 2.98688 14.538 2.90214 14.5592Z" fill="url(#paint6_radial_41_2683)" style="mix-blend-mode:overlay"/>
<path d="M3.25166 14.3049C3.21989 14.1989 3.15634 14.1142 3.06101 14.0612C3.00806 14.0294 2.94451 14.0082 2.89155 14.0082C2.84919 14.0082 2.80682 14.0082 2.76446 14.0188C2.72209 14.0294 2.69032 14.04 2.65854 14.0612C2.60559 14.093 2.55263 14.1459 2.52086 14.1989C2.4679 14.2943 2.45731 14.4002 2.47849 14.5062C2.52086 14.6863 2.69032 14.8029 2.87037 14.8029C2.90214 14.8029 2.94451 14.8029 2.97628 14.7923C3.17752 14.7393 3.30462 14.5274 3.25166 14.3049ZM2.90214 14.5592C2.85978 14.5698 2.81741 14.5592 2.78564 14.538C2.75387 14.5168 2.72209 14.485 2.7115 14.4426C2.70091 14.4002 2.7115 14.3579 2.72209 14.3261C2.74327 14.2943 2.77505 14.2625 2.81741 14.2519C2.828 14.2519 2.8386 14.2413 2.85978 14.2413C2.93392 14.2413 2.98688 14.2837 3.00806 14.3579C3.02924 14.4532 2.98688 14.538 2.90214 14.5592Z" fill="#F0D7AB" style="mix-blend-mode:color"/>
<path d="M2.28786 12.5249C2.2349 12.4826 2.18195 12.4614 2.12899 12.4402C2.08662 12.4296 2.04426 12.419 1.9913 12.4296C1.94894 12.4296 1.91716 12.4402 1.8748 12.4508C1.72652 12.5144 1.62061 12.6627 1.62061 12.8216C1.62061 12.8322 1.62061 12.8428 1.62061 12.8534C1.6312 12.9594 1.68415 13.0547 1.75829 13.1289C1.83243 13.1925 1.91716 13.2242 2.01249 13.2242C2.02308 13.2242 2.03367 13.2242 2.04426 13.2242C2.15017 13.2136 2.2455 13.1607 2.31963 13.0865C2.39377 13.0017 2.42555 12.8958 2.41496 12.7898C2.41496 12.6945 2.362 12.5991 2.28786 12.5249ZM2.13958 12.9382C2.1184 12.97 2.07603 12.9911 2.03367 12.9911C1.9913 12.9911 1.94894 12.9805 1.91716 12.9594C1.88539 12.9382 1.86421 12.8958 1.86421 12.8534C1.85362 12.7686 1.91716 12.6945 2.00189 12.6839C2.04426 12.6839 2.08662 12.6945 2.1184 12.7157C2.15017 12.7369 2.17136 12.7792 2.17136 12.8216C2.18195 12.864 2.17136 12.9064 2.13958 12.9382Z" fill="url(#paint7_linear_41_2683)"/>
<path d="M2.28786 12.5249C2.2349 12.4826 2.18195 12.4614 2.12899 12.4402C2.08662 12.4296 2.04426 12.419 1.9913 12.4296C1.94894 12.4296 1.91716 12.4402 1.8748 12.4508C1.72652 12.5144 1.62061 12.6627 1.62061 12.8216C1.62061 12.8322 1.62061 12.8428 1.62061 12.8534C1.6312 12.9594 1.68415 13.0547 1.75829 13.1289C1.83243 13.1925 1.91716 13.2242 2.01249 13.2242C2.02308 13.2242 2.03367 13.2242 2.04426 13.2242C2.15017 13.2136 2.2455 13.1607 2.31963 13.0865C2.39377 13.0017 2.42555 12.8958 2.41496 12.7898C2.41496 12.6945 2.362 12.5991 2.28786 12.5249ZM2.13958 12.9382C2.1184 12.97 2.07603 12.9911 2.03367 12.9911C1.9913 12.9911 1.94894 12.9805 1.91716 12.9594C1.88539 12.9382 1.86421 12.8958 1.86421 12.8534C1.85362 12.7686 1.91716 12.6945 2.00189 12.6839C2.04426 12.6839 2.08662 12.6945 2.1184 12.7157C2.15017 12.7369 2.17136 12.7792 2.17136 12.8216C2.18195 12.864 2.17136 12.9064 2.13958 12.9382Z" fill="url(#paint8_radial_41_2683)" style="mix-blend-mode:overlay"/>
<path d="M2.28786 12.5249C2.2349 12.4826 2.18195 12.4614 2.12899 12.4402C2.08662 12.4296 2.04426 12.419 1.9913 12.4296C1.94894 12.4296 1.91716 12.4402 1.8748 12.4508C1.72652 12.5144 1.62061 12.6627 1.62061 12.8216C1.62061 12.8322 1.62061 12.8428 1.62061 12.8534C1.6312 12.9594 1.68415 13.0547 1.75829 13.1289C1.83243 13.1925 1.91716 13.2242 2.01249 13.2242C2.02308 13.2242 2.03367 13.2242 2.04426 13.2242C2.15017 13.2136 2.2455 13.1607 2.31963 13.0865C2.39377 13.0017 2.42555 12.8958 2.41496 12.7898C2.41496 12.6945 2.362 12.5991 2.28786 12.5249ZM2.13958 12.9382C2.1184 12.97 2.07603 12.9911 2.03367 12.9911C1.9913 12.9911 1.94894 12.9805 1.91716 12.9594C1.88539 12.9382 1.86421 12.8958 1.86421 12.8534C1.85362 12.7686 1.91716 12.6945 2.00189 12.6839C2.04426 12.6839 2.08662 12.6945 2.1184 12.7157C2.15017 12.7369 2.17136 12.7792 2.17136 12.8216C2.18195 12.864 2.17136 12.9064 2.13958 12.9382Z" fill="#F0D7AB" style="mix-blend-mode:color"/>
<path d="M1.64145 10.6704C1.59909 10.6492 1.55672 10.6386 1.51436 10.6386C1.47199 10.6386 1.42963 10.6386 1.39785 10.6492C1.22839 10.681 1.10129 10.8293 1.08011 11.0095C1.06952 11.1154 1.10129 11.2214 1.17543 11.3061C1.24957 11.3909 1.34489 11.4439 1.45081 11.4545C1.4614 11.4545 1.47199 11.4545 1.49317 11.4545C1.5885 11.4545 1.67323 11.4227 1.74737 11.3591C1.8321 11.2849 1.87446 11.1896 1.88505 11.0836C1.89564 10.9035 1.80032 10.7446 1.64145 10.6704ZM1.5779 11.1578C1.54613 11.179 1.50376 11.2002 1.4614 11.1896C1.41903 11.1896 1.38726 11.1684 1.35549 11.1366C1.32371 11.1048 1.31312 11.0624 1.32371 11.0201C1.3343 10.9353 1.39785 10.8823 1.48258 10.8823H1.49317C1.5779 10.8929 1.64145 10.9671 1.63086 11.0518C1.63086 11.0942 1.60968 11.1366 1.5779 11.1578Z" fill="url(#paint9_linear_41_2683)"/>
<path d="M1.64145 10.6704C1.59909 10.6492 1.55672 10.6386 1.51436 10.6386C1.47199 10.6386 1.42963 10.6386 1.39785 10.6492C1.22839 10.681 1.10129 10.8293 1.08011 11.0095C1.06952 11.1154 1.10129 11.2214 1.17543 11.3061C1.24957 11.3909 1.34489 11.4439 1.45081 11.4545C1.4614 11.4545 1.47199 11.4545 1.49317 11.4545C1.5885 11.4545 1.67323 11.4227 1.74737 11.3591C1.8321 11.2849 1.87446 11.1896 1.88505 11.0836C1.89564 10.9035 1.80032 10.7446 1.64145 10.6704ZM1.5779 11.1578C1.54613 11.179 1.50376 11.2002 1.4614 11.1896C1.41903 11.1896 1.38726 11.1684 1.35549 11.1366C1.32371 11.1048 1.31312 11.0624 1.32371 11.0201C1.3343 10.9353 1.39785 10.8823 1.48258 10.8823H1.49317C1.5779 10.8929 1.64145 10.9671 1.63086 11.0518C1.63086 11.0942 1.60968 11.1366 1.5779 11.1578Z" fill="url(#paint10_radial_41_2683)" style="mix-blend-mode:overlay"/>
<path d="M1.64145 10.6704C1.59909 10.6492 1.55672 10.6386 1.51436 10.6386C1.47199 10.6386 1.42963 10.6386 1.39785 10.6492C1.22839 10.681 1.10129 10.8293 1.08011 11.0095C1.06952 11.1154 1.10129 11.2214 1.17543 11.3061C1.24957 11.3909 1.34489 11.4439 1.45081 11.4545C1.4614 11.4545 1.47199 11.4545 1.49317 11.4545C1.5885 11.4545 1.67323 11.4227 1.74737 11.3591C1.8321 11.2849 1.87446 11.1896 1.88505 11.0836C1.89564 10.9035 1.80032 10.7446 1.64145 10.6704ZM1.5779 11.1578C1.54613 11.179 1.50376 11.2002 1.4614 11.1896C1.41903 11.1896 1.38726 11.1684 1.35549 11.1366C1.32371 11.1048 1.31312 11.0624 1.32371 11.0201C1.3343 10.9353 1.39785 10.8823 1.48258 10.8823H1.49317C1.5779 10.8929 1.64145 10.9671 1.63086 11.0518C1.63086 11.0942 1.60968 11.1366 1.5779 11.1578Z" fill="#F0D7AB" style="mix-blend-mode:color"/>
<path d="M11.354 12.4094C11.3434 12.4517 11.3329 12.4835 11.3223 12.5259L13.0487 12.9815L13.0381 14.4331L13.3452 14.8039L13.8218 15.3866L14.7115 16.4674L16.5438 18.6924L16.565 13.1298C16.565 13.1298 16.1731 13.0875 15.6012 12.759C15.6012 12.759 15.5906 12.759 15.5906 12.7484C15.4741 12.6742 15.347 12.6001 15.2093 12.4941C14.8704 12.2398 14.4891 11.8902 14.1078 11.3922L14.6585 11.3604L15.6224 11.2968L15.7706 11.2862L15.9507 10.6081L16.7239 12.2928L17.2746 14.2423C17.2746 14.2423 17.7936 10.3539 15.7283 8.05467L11.354 12.4094Z" fill="url(#paint11_linear_41_2683)"/>
<path d="M11.354 12.4094C11.3434 12.4517 11.3329 12.4835 11.3223 12.5259L13.0487 12.9815L13.0381 14.4331L13.3452 14.8039L13.8218 15.3866L14.7115 16.4674L16.5438 18.6924L16.565 13.1298C16.565 13.1298 16.1731 13.0875 15.6012 12.759C15.6012 12.759 15.5906 12.759 15.5906 12.7484C15.4741 12.6742 15.347 12.6001 15.2093 12.4941C14.8704 12.2398 14.4891 11.8902 14.1078 11.3922L14.6585 11.3604L15.6224 11.2968L15.7706 11.2862L15.9507 10.6081L16.7239 12.2928L17.2746 14.2423C17.2746 14.2423 17.7936 10.3539 15.7283 8.05467L11.354 12.4094Z" fill="url(#paint12_radial_41_2683)" style="mix-blend-mode:overlay"/>
<path d="M11.354 12.4094C11.3434 12.4517 11.3329 12.4835 11.3223 12.5259L13.0487 12.9815L13.0381 14.4331L13.3452 14.8039L13.8218 15.3866L14.7115 16.4674L16.5438 18.6924L16.565 13.1298C16.565 13.1298 16.1731 13.0875 15.6012 12.759C15.6012 12.759 15.5906 12.759 15.5906 12.7484C15.4741 12.6742 15.347 12.6001 15.2093 12.4941C14.8704 12.2398 14.4891 11.8902 14.1078 11.3922L14.6585 11.3604L15.6224 11.2968L15.7706 11.2862L15.9507 10.6081L16.7239 12.2928L17.2746 14.2423C17.2746 14.2423 17.7936 10.3539 15.7283 8.05467L11.354 12.4094Z" fill="#F0D7AB" style="mix-blend-mode:color"/>
<path d="M7.34003 7.89465C6.87401 8.38203 6.51391 8.95418 6.2809 9.5793C5.99493 10.3316 5.89961 11.158 5.99493 11.9738C6.07966 12.6202 6.29149 13.2559 6.641 13.8598C7.05407 14.5697 7.61541 15.1313 8.26148 15.5445L8.78046 14.6757L9.69131 13.1393C9.63836 13.1075 9.5854 13.0758 9.54303 13.0334C9.44771 12.9486 9.36298 12.8533 9.29943 12.7473C8.99228 12.2175 9.16175 11.5288 9.7019 11.2216C10.1467 10.9567 10.7081 11.0415 11.0576 11.3911C11.1211 11.4547 11.1847 11.5288 11.2376 11.6136C11.28 11.6772 11.3012 11.7408 11.333 11.8149L14.8599 8.28667C14.4362 7.73571 13.9067 7.30131 13.3241 6.98345C13.3136 6.98345 13.303 6.97285 13.2924 6.97285C13.303 6.97285 13.3136 6.98345 13.3241 6.98345L13.6631 5.66963C13.536 5.61665 13.4089 5.56367 13.2712 5.52129V5.5001L13.3136 5.2776L13.949 1.6434C13.9596 1.57983 13.9173 1.51625 13.8431 1.50566C11.3542 1.06065 8.78046 1.52685 6.58805 2.80889C5.11585 3.66711 3.90844 4.822 2.99758 6.25237C2.15027 7.57679 1.58893 9.11311 1.3877 10.6812C1.43006 10.6706 1.46183 10.6706 1.5042 10.6706C1.54657 10.6706 1.58893 10.6812 1.6313 10.7024C2.04436 7.47083 3.88725 4.67366 6.70455 3.02079C8.80164 1.79173 11.2694 1.33613 13.6737 1.72816L13.0276 5.41534C12.731 5.33057 12.4239 5.267 12.1167 5.24581V1.99304C12.1167 1.92947 12.0638 1.8659 11.9896 1.8659C9.28884 1.8659 6.74692 2.91484 4.82988 4.83259C2.92344 6.73975 1.86431 9.29323 1.86431 11.995C1.86431 12.1434 1.86431 12.3023 1.8749 12.4612C1.90667 12.4506 1.94904 12.44 1.9914 12.44C2.03377 12.44 2.08672 12.44 2.12909 12.4506C2.1185 12.3023 2.1185 12.154 2.1185 12.0056C2.1185 6.60201 6.48213 2.19436 11.8731 2.12019V5.23522C11.566 5.22462 11.2482 5.23522 10.9411 5.28819L10.9305 5.20343L10.9093 5.0551L10.4857 2.68174C10.4751 2.61817 10.4115 2.56519 10.3374 2.58638C9.2147 2.78769 8.15557 3.17972 7.15998 3.75187C5.35945 4.8114 3.98258 6.37951 3.17763 8.28667C2.78575 9.20847 2.55274 10.1832 2.45742 11.1792C2.37269 12.154 2.43624 13.1287 2.64807 14.0823C2.67984 14.0611 2.72221 14.0505 2.75398 14.0399C2.79634 14.0293 2.83871 14.0187 2.88108 14.0293C2.00199 10.0667 3.76016 6.02987 7.27648 3.96378C8.19793 3.42341 9.20411 3.04198 10.2421 2.85127L10.6445 5.10807L10.6869 5.34117C10.3903 5.40474 10.0832 5.5001 9.79723 5.61665L9.06642 3.61413C9.05583 3.58234 9.03465 3.56115 9.00288 3.53996C8.9711 3.52937 8.93933 3.51877 8.90755 3.53996C8.39917 3.73068 7.90137 3.96378 7.43536 4.22866C5.52891 5.34117 4.10967 7.11059 3.42123 9.20847C2.75398 11.2534 2.83871 13.4678 3.65424 15.4385C3.56951 15.5127 3.51656 15.6292 3.51656 15.7352C3.51656 15.7882 3.52715 15.8517 3.55892 15.9047C3.60129 16.0001 3.68602 16.0742 3.78134 16.1166C3.82371 16.1378 3.87666 16.1378 3.91903 16.1378C3.97198 16.1378 4.03553 16.1272 4.08849 16.0954C4.18381 16.0531 4.25795 15.9683 4.30032 15.8729C4.33209 15.767 4.33209 15.661 4.28972 15.5657C4.24736 15.4703 4.16263 15.3961 4.06731 15.3538C4.00376 15.3326 3.9508 15.322 3.88725 15.3326C2.235 11.3063 3.80252 6.6444 7.57304 4.42997C7.9967 4.18628 8.43094 3.97437 8.88637 3.79425L9.4583 5.36236L9.57481 5.69082V5.70141C9.4583 5.75439 9.3418 5.81796 9.22529 5.89213C9.06642 5.97689 8.92874 6.08284 8.78046 6.1888L7.93315 4.71605C7.90138 4.66307 7.82724 4.64188 7.76369 4.67366C7.7531 4.68426 7.74251 4.68426 7.73191 4.69485L7.71073 4.70545C5.77251 5.83915 4.38505 7.67214 3.81311 9.85478C3.24118 12.0374 3.55892 14.3154 4.6922 16.2756C4.74515 16.3603 4.78752 16.4345 4.82988 16.5087C4.78752 16.5616 4.75574 16.6252 4.74515 16.6888C4.72397 16.7947 4.74515 16.9007 4.8087 16.9854C4.87225 17.0702 4.95698 17.1338 5.06289 17.155C5.08408 17.155 5.11585 17.1656 5.13703 17.1656C5.22176 17.1656 5.2959 17.1444 5.37004 17.0914C5.45477 17.0278 5.51832 16.9325 5.5395 16.8371C5.56069 16.7312 5.5395 16.6252 5.47596 16.5404C5.41241 16.4557 5.32768 16.3921 5.22176 16.3709C5.15822 16.3603 5.09467 16.3603 5.04171 16.3815C4.99935 16.3073 4.95698 16.2438 4.90402 16.159C2.62688 12.2705 3.91903 7.25893 7.77428 4.95974L8.39917 6.05106L8.56863 6.33713L8.57922 6.35832C8.34621 6.54904 8.12379 6.77154 7.94374 6.99404L7.08584 5.97689C7.04348 5.92391 6.95875 5.92391 6.91638 5.96629C5.49714 7.15297 4.54392 8.80584 4.21559 10.6388C3.88725 12.4824 4.22618 14.4002 5.1794 16.0213C5.45477 16.4875 5.77251 16.9219 6.12203 17.3139C6.14321 17.2821 6.16439 17.2503 6.19617 17.2185C6.22794 17.1868 6.27031 17.1656 6.30208 17.1444C5.96316 16.7629 5.65601 16.3391 5.39123 15.8941C3.51656 12.6943 4.18381 8.64691 6.97993 6.23118L7.59423 6.96226L7.77428 7.17416L7.79546 7.19535C7.61541 7.39667 7.46713 7.64036 7.34003 7.89465ZM3.97198 15.5869C4.01435 15.5975 4.04612 15.6292 4.05672 15.6716C4.0779 15.7034 4.0779 15.7564 4.06731 15.7882C4.05672 15.8306 4.02494 15.8623 3.98258 15.8729C3.90844 15.9047 3.81311 15.8729 3.78134 15.7988C3.74957 15.7246 3.78134 15.6292 3.85548 15.5975C3.89785 15.5763 3.94021 15.5657 3.97198 15.5869ZM5.06289 16.6252C5.08408 16.604 5.11585 16.5934 5.14762 16.5934C5.15822 16.5934 5.16881 16.5934 5.1794 16.5934C5.22176 16.604 5.25354 16.6252 5.27472 16.657C5.2959 16.6888 5.30649 16.7312 5.2959 16.7735C5.28531 16.8159 5.26413 16.8477 5.23236 16.8689C5.20058 16.8901 5.15822 16.9007 5.11585 16.8901C5.07348 16.8795 5.04171 16.8583 5.02053 16.8265C4.99935 16.7947 4.98875 16.7523 4.99935 16.71C4.99935 16.6888 5.03112 16.657 5.06289 16.6252Z" fill="url(#paint13_linear_41_2683)"/>
<path d="M7.34003 7.89465C6.87401 8.38203 6.51391 8.95418 6.2809 9.5793C5.99493 10.3316 5.89961 11.158 5.99493 11.9738C6.07966 12.6202 6.29149 13.2559 6.641 13.8598C7.05407 14.5697 7.61541 15.1313 8.26148 15.5445L8.78046 14.6757L9.69131 13.1393C9.63836 13.1075 9.5854 13.0758 9.54303 13.0334C9.44771 12.9486 9.36298 12.8533 9.29943 12.7473C8.99228 12.2175 9.16175 11.5288 9.7019 11.2216C10.1467 10.9567 10.7081 11.0415 11.0576 11.3911C11.1211 11.4547 11.1847 11.5288 11.2376 11.6136C11.28 11.6772 11.3012 11.7408 11.333 11.8149L14.8599 8.28667C14.4362 7.73571 13.9067 7.30131 13.3241 6.98345C13.3136 6.98345 13.303 6.97285 13.2924 6.97285C13.303 6.97285 13.3136 6.98345 13.3241 6.98345L13.6631 5.66963C13.536 5.61665 13.4089 5.56367 13.2712 5.52129V5.5001L13.3136 5.2776L13.949 1.6434C13.9596 1.57983 13.9173 1.51625 13.8431 1.50566C11.3542 1.06065 8.78046 1.52685 6.58805 2.80889C5.11585 3.66711 3.90844 4.822 2.99758 6.25237C2.15027 7.57679 1.58893 9.11311 1.3877 10.6812C1.43006 10.6706 1.46183 10.6706 1.5042 10.6706C1.54657 10.6706 1.58893 10.6812 1.6313 10.7024C2.04436 7.47083 3.88725 4.67366 6.70455 3.02079C8.80164 1.79173 11.2694 1.33613 13.6737 1.72816L13.0276 5.41534C12.731 5.33057 12.4239 5.267 12.1167 5.24581V1.99304C12.1167 1.92947 12.0638 1.8659 11.9896 1.8659C9.28884 1.8659 6.74692 2.91484 4.82988 4.83259C2.92344 6.73975 1.86431 9.29323 1.86431 11.995C1.86431 12.1434 1.86431 12.3023 1.8749 12.4612C1.90667 12.4506 1.94904 12.44 1.9914 12.44C2.03377 12.44 2.08672 12.44 2.12909 12.4506C2.1185 12.3023 2.1185 12.154 2.1185 12.0056C2.1185 6.60201 6.48213 2.19436 11.8731 2.12019V5.23522C11.566 5.22462 11.2482 5.23522 10.9411 5.28819L10.9305 5.20343L10.9093 5.0551L10.4857 2.68174C10.4751 2.61817 10.4115 2.56519 10.3374 2.58638C9.2147 2.78769 8.15557 3.17972 7.15998 3.75187C5.35945 4.8114 3.98258 6.37951 3.17763 8.28667C2.78575 9.20847 2.55274 10.1832 2.45742 11.1792C2.37269 12.154 2.43624 13.1287 2.64807 14.0823C2.67984 14.0611 2.72221 14.0505 2.75398 14.0399C2.79634 14.0293 2.83871 14.0187 2.88108 14.0293C2.00199 10.0667 3.76016 6.02987 7.27648 3.96378C8.19793 3.42341 9.20411 3.04198 10.2421 2.85127L10.6445 5.10807L10.6869 5.34117C10.3903 5.40474 10.0832 5.5001 9.79723 5.61665L9.06642 3.61413C9.05583 3.58234 9.03465 3.56115 9.00288 3.53996C8.9711 3.52937 8.93933 3.51877 8.90755 3.53996C8.39917 3.73068 7.90137 3.96378 7.43536 4.22866C5.52891 5.34117 4.10967 7.11059 3.42123 9.20847C2.75398 11.2534 2.83871 13.4678 3.65424 15.4385C3.56951 15.5127 3.51656 15.6292 3.51656 15.7352C3.51656 15.7882 3.52715 15.8517 3.55892 15.9047C3.60129 16.0001 3.68602 16.0742 3.78134 16.1166C3.82371 16.1378 3.87666 16.1378 3.91903 16.1378C3.97198 16.1378 4.03553 16.1272 4.08849 16.0954C4.18381 16.0531 4.25795 15.9683 4.30032 15.8729C4.33209 15.767 4.33209 15.661 4.28972 15.5657C4.24736 15.4703 4.16263 15.3961 4.06731 15.3538C4.00376 15.3326 3.9508 15.322 3.88725 15.3326C2.235 11.3063 3.80252 6.6444 7.57304 4.42997C7.9967 4.18628 8.43094 3.97437 8.88637 3.79425L9.4583 5.36236L9.57481 5.69082V5.70141C9.4583 5.75439 9.3418 5.81796 9.22529 5.89213C9.06642 5.97689 8.92874 6.08284 8.78046 6.1888L7.93315 4.71605C7.90138 4.66307 7.82724 4.64188 7.76369 4.67366C7.7531 4.68426 7.74251 4.68426 7.73191 4.69485L7.71073 4.70545C5.77251 5.83915 4.38505 7.67214 3.81311 9.85478C3.24118 12.0374 3.55892 14.3154 4.6922 16.2756C4.74515 16.3603 4.78752 16.4345 4.82988 16.5087C4.78752 16.5616 4.75574 16.6252 4.74515 16.6888C4.72397 16.7947 4.74515 16.9007 4.8087 16.9854C4.87225 17.0702 4.95698 17.1338 5.06289 17.155C5.08408 17.155 5.11585 17.1656 5.13703 17.1656C5.22176 17.1656 5.2959 17.1444 5.37004 17.0914C5.45477 17.0278 5.51832 16.9325 5.5395 16.8371C5.56069 16.7312 5.5395 16.6252 5.47596 16.5404C5.41241 16.4557 5.32768 16.3921 5.22176 16.3709C5.15822 16.3603 5.09467 16.3603 5.04171 16.3815C4.99935 16.3073 4.95698 16.2438 4.90402 16.159C2.62688 12.2705 3.91903 7.25893 7.77428 4.95974L8.39917 6.05106L8.56863 6.33713L8.57922 6.35832C8.34621 6.54904 8.12379 6.77154 7.94374 6.99404L7.08584 5.97689C7.04348 5.92391 6.95875 5.92391 6.91638 5.96629C5.49714 7.15297 4.54392 8.80584 4.21559 10.6388C3.88725 12.4824 4.22618 14.4002 5.1794 16.0213C5.45477 16.4875 5.77251 16.9219 6.12203 17.3139C6.14321 17.2821 6.16439 17.2503 6.19617 17.2185C6.22794 17.1868 6.27031 17.1656 6.30208 17.1444C5.96316 16.7629 5.65601 16.3391 5.39123 15.8941C3.51656 12.6943 4.18381 8.64691 6.97993 6.23118L7.59423 6.96226L7.77428 7.17416L7.79546 7.19535C7.61541 7.39667 7.46713 7.64036 7.34003 7.89465ZM3.97198 15.5869C4.01435 15.5975 4.04612 15.6292 4.05672 15.6716C4.0779 15.7034 4.0779 15.7564 4.06731 15.7882C4.05672 15.8306 4.02494 15.8623 3.98258 15.8729C3.90844 15.9047 3.81311 15.8729 3.78134 15.7988C3.74957 15.7246 3.78134 15.6292 3.85548 15.5975C3.89785 15.5763 3.94021 15.5657 3.97198 15.5869ZM5.06289 16.6252C5.08408 16.604 5.11585 16.5934 5.14762 16.5934C5.15822 16.5934 5.16881 16.5934 5.1794 16.5934C5.22176 16.604 5.25354 16.6252 5.27472 16.657C5.2959 16.6888 5.30649 16.7312 5.2959 16.7735C5.28531 16.8159 5.26413 16.8477 5.23236 16.8689C5.20058 16.8901 5.15822 16.9007 5.11585 16.8901C5.07348 16.8795 5.04171 16.8583 5.02053 16.8265C4.99935 16.7947 4.98875 16.7523 4.99935 16.71C4.99935 16.6888 5.03112 16.657 5.06289 16.6252Z" fill="url(#paint14_radial_41_2683)" style="mix-blend-mode:overlay"/>
<path d="M7.34003 7.89465C6.87401 8.38203 6.51391 8.95418 6.2809 9.5793C5.99493 10.3316 5.89961 11.158 5.99493 11.9738C6.07966 12.6202 6.29149 13.2559 6.641 13.8598C7.05407 14.5697 7.61541 15.1313 8.26148 15.5445L8.78046 14.6757L9.69131 13.1393C9.63836 13.1075 9.5854 13.0758 9.54303 13.0334C9.44771 12.9486 9.36298 12.8533 9.29943 12.7473C8.99228 12.2175 9.16175 11.5288 9.7019 11.2216C10.1467 10.9567 10.7081 11.0415 11.0576 11.3911C11.1211 11.4547 11.1847 11.5288 11.2376 11.6136C11.28 11.6772 11.3012 11.7408 11.333 11.8149L14.8599 8.28667C14.4362 7.73571 13.9067 7.30131 13.3241 6.98345C13.3136 6.98345 13.303 6.97285 13.2924 6.97285C13.303 6.97285 13.3136 6.98345 13.3241 6.98345L13.6631 5.66963C13.536 5.61665 13.4089 5.56367 13.2712 5.52129V5.5001L13.3136 5.2776L13.949 1.6434C13.9596 1.57983 13.9173 1.51625 13.8431 1.50566C11.3542 1.06065 8.78046 1.52685 6.58805 2.80889C5.11585 3.66711 3.90844 4.822 2.99758 6.25237C2.15027 7.57679 1.58893 9.11311 1.3877 10.6812C1.43006 10.6706 1.46183 10.6706 1.5042 10.6706C1.54657 10.6706 1.58893 10.6812 1.6313 10.7024C2.04436 7.47083 3.88725 4.67366 6.70455 3.02079C8.80164 1.79173 11.2694 1.33613 13.6737 1.72816L13.0276 5.41534C12.731 5.33057 12.4239 5.267 12.1167 5.24581V1.99304C12.1167 1.92947 12.0638 1.8659 11.9896 1.8659C9.28884 1.8659 6.74692 2.91484 4.82988 4.83259C2.92344 6.73975 1.86431 9.29323 1.86431 11.995C1.86431 12.1434 1.86431 12.3023 1.8749 12.4612C1.90667 12.4506 1.94904 12.44 1.9914 12.44C2.03377 12.44 2.08672 12.44 2.12909 12.4506C2.1185 12.3023 2.1185 12.154 2.1185 12.0056C2.1185 6.60201 6.48213 2.19436 11.8731 2.12019V5.23522C11.566 5.22462 11.2482 5.23522 10.9411 5.28819L10.9305 5.20343L10.9093 5.0551L10.4857 2.68174C10.4751 2.61817 10.4115 2.56519 10.3374 2.58638C9.2147 2.78769 8.15557 3.17972 7.15998 3.75187C5.35945 4.8114 3.98258 6.37951 3.17763 8.28667C2.78575 9.20847 2.55274 10.1832 2.45742 11.1792C2.37269 12.154 2.43624 13.1287 2.64807 14.0823C2.67984 14.0611 2.72221 14.0505 2.75398 14.0399C2.79634 14.0293 2.83871 14.0187 2.88108 14.0293C2.00199 10.0667 3.76016 6.02987 7.27648 3.96378C8.19793 3.42341 9.20411 3.04198 10.2421 2.85127L10.6445 5.10807L10.6869 5.34117C10.3903 5.40474 10.0832 5.5001 9.79723 5.61665L9.06642 3.61413C9.05583 3.58234 9.03465 3.56115 9.00288 3.53996C8.9711 3.52937 8.93933 3.51877 8.90755 3.53996C8.39917 3.73068 7.90137 3.96378 7.43536 4.22866C5.52891 5.34117 4.10967 7.11059 3.42123 9.20847C2.75398 11.2534 2.83871 13.4678 3.65424 15.4385C3.56951 15.5127 3.51656 15.6292 3.51656 15.7352C3.51656 15.7882 3.52715 15.8517 3.55892 15.9047C3.60129 16.0001 3.68602 16.0742 3.78134 16.1166C3.82371 16.1378 3.87666 16.1378 3.91903 16.1378C3.97198 16.1378 4.03553 16.1272 4.08849 16.0954C4.18381 16.0531 4.25795 15.9683 4.30032 15.8729C4.33209 15.767 4.33209 15.661 4.28972 15.5657C4.24736 15.4703 4.16263 15.3961 4.06731 15.3538C4.00376 15.3326 3.9508 15.322 3.88725 15.3326C2.235 11.3063 3.80252 6.6444 7.57304 4.42997C7.9967 4.18628 8.43094 3.97437 8.88637 3.79425L9.4583 5.36236L9.57481 5.69082V5.70141C9.4583 5.75439 9.3418 5.81796 9.22529 5.89213C9.06642 5.97689 8.92874 6.08284 8.78046 6.1888L7.93315 4.71605C7.90138 4.66307 7.82724 4.64188 7.76369 4.67366C7.7531 4.68426 7.74251 4.68426 7.73191 4.69485L7.71073 4.70545C5.77251 5.83915 4.38505 7.67214 3.81311 9.85478C3.24118 12.0374 3.55892 14.3154 4.6922 16.2756C4.74515 16.3603 4.78752 16.4345 4.82988 16.5087C4.78752 16.5616 4.75574 16.6252 4.74515 16.6888C4.72397 16.7947 4.74515 16.9007 4.8087 16.9854C4.87225 17.0702 4.95698 17.1338 5.06289 17.155C5.08408 17.155 5.11585 17.1656 5.13703 17.1656C5.22176 17.1656 5.2959 17.1444 5.37004 17.0914C5.45477 17.0278 5.51832 16.9325 5.5395 16.8371C5.56069 16.7312 5.5395 16.6252 5.47596 16.5404C5.41241 16.4557 5.32768 16.3921 5.22176 16.3709C5.15822 16.3603 5.09467 16.3603 5.04171 16.3815C4.99935 16.3073 4.95698 16.2438 4.90402 16.159C2.62688 12.2705 3.91903 7.25893 7.77428 4.95974L8.39917 6.05106L8.56863 6.33713L8.57922 6.35832C8.34621 6.54904 8.12379 6.77154 7.94374 6.99404L7.08584 5.97689C7.04348 5.92391 6.95875 5.92391 6.91638 5.96629C5.49714 7.15297 4.54392 8.80584 4.21559 10.6388C3.88725 12.4824 4.22618 14.4002 5.1794 16.0213C5.45477 16.4875 5.77251 16.9219 6.12203 17.3139C6.14321 17.2821 6.16439 17.2503 6.19617 17.2185C6.22794 17.1868 6.27031 17.1656 6.30208 17.1444C5.96316 16.7629 5.65601 16.3391 5.39123 15.8941C3.51656 12.6943 4.18381 8.64691 6.97993 6.23118L7.59423 6.96226L7.77428 7.17416L7.79546 7.19535C7.61541 7.39667 7.46713 7.64036 7.34003 7.89465ZM3.97198 15.5869C4.01435 15.5975 4.04612 15.6292 4.05672 15.6716C4.0779 15.7034 4.0779 15.7564 4.06731 15.7882C4.05672 15.8306 4.02494 15.8623 3.98258 15.8729C3.90844 15.9047 3.81311 15.8729 3.78134 15.7988C3.74957 15.7246 3.78134 15.6292 3.85548 15.5975C3.89785 15.5763 3.94021 15.5657 3.97198 15.5869ZM5.06289 16.6252C5.08408 16.604 5.11585 16.5934 5.14762 16.5934C5.15822 16.5934 5.16881 16.5934 5.1794 16.5934C5.22176 16.604 5.25354 16.6252 5.27472 16.657C5.2959 16.6888 5.30649 16.7312 5.2959 16.7735C5.28531 16.8159 5.26413 16.8477 5.23236 16.8689C5.20058 16.8901 5.15822 16.9007 5.11585 16.8901C5.07348 16.8795 5.04171 16.8583 5.02053 16.8265C4.99935 16.7947 4.98875 16.7523 4.99935 16.71C4.99935 16.6888 5.03112 16.657 5.06289 16.6252Z" fill="#F0D7AB" style="mix-blend-mode:color"/>
<path d="M23.0468 7.3335C22.4431 5.90313 21.5746 4.62109 20.4731 3.51918C19.3716 2.41726 18.09 1.54844 16.6602 0.944511C15.1774 0.319386 13.6099 0.00152588 11.9894 0.00152588C10.3795 0.00152588 8.80141 0.319386 7.32921 0.944511C5.89938 1.54844 4.61783 2.41726 3.51633 3.51918C2.41483 4.62109 1.54634 5.90313 0.94263 7.3335C0.31774 8.80625 0 10.3744 0 11.9954C0 13.6165 0.31774 15.1846 0.94263 16.668C1.54634 18.0984 2.41483 19.3804 3.51633 20.4823C4.61783 21.5842 5.89938 22.453 7.32921 23.057C8.812 23.6821 10.3795 24 12 24C13.6205 24 15.188 23.6821 16.6708 23.057C18.1006 22.453 19.3822 21.5842 20.4837 20.4823C21.5852 19.3804 22.4537 18.0984 23.0574 16.668C23.6823 15.1846 24 13.6165 24 11.9954C23.9894 10.3744 23.6717 8.80625 23.0468 7.3335ZM22.6125 8.0116L20.2613 5.65943C20.2718 5.62765 20.2824 5.59586 20.2824 5.56408C20.2824 5.43693 20.1765 5.33098 20.0494 5.33098C19.9223 5.33098 19.8164 5.43693 19.8164 5.56408C19.8164 5.69122 19.9223 5.79717 20.0494 5.79717C20.0812 5.79717 20.1236 5.78658 20.1447 5.77598L22.729 8.36125C23.0044 9.17709 23.1951 10.0353 23.2798 10.9147L18.9903 6.62361L17.4757 5.09788C17.4863 5.0661 17.4969 5.03431 17.4969 5.00252C17.4969 4.89657 17.4334 4.81181 17.338 4.79062V2.7775C17.338 2.76691 17.338 2.75631 17.3274 2.74572C17.3274 2.73512 17.3169 2.72453 17.3169 2.72453L15.9823 1.37892C19.0327 2.52322 21.4581 4.96014 22.6125 8.0116ZM1.31333 15.8204L8.17652 22.6861C4.98853 21.5418 2.45719 19.0096 1.31333 15.8204ZM8.50485 22.8027L4.97793 19.2744H6.79965C6.83142 19.3592 6.91615 19.4334 7.01147 19.4334C7.04325 19.4334 7.08561 19.4228 7.1068 19.4122L11.0044 23.3113C10.1465 23.2265 9.29921 23.057 8.50485 22.8027ZM13.4086 23.2583L9.97705 19.8254C9.98764 19.7936 9.99823 19.7618 9.99823 19.73C9.99823 19.6347 9.93469 19.5393 9.83936 19.5181V17.6957L12.9214 20.779C12.9109 20.8108 12.9003 20.8426 12.9003 20.8743C12.9003 21.0015 13.0062 21.1074 13.1333 21.1074C13.165 21.1074 13.2074 21.0968 13.2286 21.0862L15.0609 22.9192C14.5313 23.0782 13.9806 23.1841 13.4086 23.2583ZM15.241 22.8769L13.3451 20.9803C13.3451 20.9697 13.3557 20.9697 13.3557 20.9591H15.1456C15.1774 21.0545 15.2621 21.118 15.3575 21.118C15.3892 21.118 15.4316 21.1074 15.4528 21.0968L16.692 22.3365C16.2259 22.5378 15.7493 22.7179 15.241 22.8769ZM16.8508 22.2517L15.5693 20.9803C15.5693 20.9697 15.5799 20.9697 15.5799 20.9591H17.5499L18.1324 21.5418C17.7193 21.8067 17.2957 22.0398 16.8508 22.2517ZM21.564 18.0772L20.0071 16.5197H22.0088L22.2736 16.7845C22.0724 17.2295 21.8288 17.6639 21.564 18.0772ZM22.3477 16.6362L22.1041 16.3925C22.0936 16.3819 22.0936 16.3819 22.083 16.3713C22.0724 16.3713 22.0618 16.3713 22.0512 16.3713H19.8588L18.3654 14.8774C18.376 14.8456 18.3866 14.8138 18.3866 14.782C18.3866 14.6549 18.2807 14.5489 18.1536 14.5489C18.0265 14.5489 17.9206 14.6549 17.9206 14.782C17.9206 14.9092 18.0265 15.0151 18.1536 15.0151C18.1853 15.0151 18.2277 15.0045 18.2489 14.9939L19.7635 16.5091L21.4793 18.2255C21.2145 18.6281 20.9285 19.0096 20.6214 19.3698L18.3124 17.06C18.323 17.0282 18.3336 16.9964 18.3336 16.9647C18.3336 16.8375 18.2277 16.7316 18.1006 16.7316C17.9735 16.7316 17.8676 16.8375 17.8676 16.9647C17.8676 17.0918 17.9735 17.1978 18.1006 17.1978C18.1324 17.1978 18.1748 17.1872 18.1959 17.1766L20.5154 19.4969C20.1977 19.8572 19.8694 20.1856 19.5199 20.5035L18.3124 19.2956C18.323 19.2638 18.3336 19.2321 18.3336 19.2003C18.3336 19.0731 18.2277 18.9672 18.1006 18.9672C17.9735 18.9672 17.8676 19.0731 17.8676 19.2003C17.8676 19.3274 17.9735 19.4334 18.1006 19.4334C18.1324 19.4334 18.1748 19.4228 18.1959 19.4122L19.3928 20.6095C19.0327 20.9167 18.6514 21.2134 18.2489 21.4783L17.624 20.8531C17.6134 20.8426 17.6134 20.8426 17.6028 20.832C17.5922 20.832 17.5816 20.8214 17.571 20.8214H15.5693C15.5375 20.7366 15.4528 20.6624 15.3575 20.6624C15.3257 20.6624 15.2939 20.673 15.2621 20.6836L13.1756 18.5963V16.4031C13.1756 16.3925 13.1756 16.3819 13.1756 16.3713C13.1756 16.3607 13.165 16.3501 13.1545 16.3501L10.8138 13.9874C10.8244 13.9556 10.835 13.9238 10.835 13.892C10.835 13.7649 10.729 13.6589 10.6019 13.6589C10.4748 13.6589 10.3689 13.7649 10.3689 13.892C10.3689 14.0192 10.4748 14.1251 10.6019 14.1251C10.6337 14.1251 10.6761 14.1145 10.6973 14.1039L13.0274 16.4243V18.4268L10.8138 16.2124C10.8244 16.1806 10.835 16.1488 10.835 16.117C10.835 15.9899 10.729 15.8839 10.6019 15.8839C10.4748 15.8839 10.3689 15.9899 10.3689 16.117C10.3689 16.2442 10.4748 16.3501 10.6019 16.3501C10.6337 16.3501 10.6761 16.3395 10.6973 16.3289L13.0485 18.6811L15.1562 20.7896C15.1562 20.8002 15.1456 20.8002 15.1456 20.8108H13.3557C13.3239 20.726 13.2392 20.6518 13.1439 20.6518C13.1121 20.6518 13.0697 20.6624 13.0485 20.673L9.20388 16.8269C9.21447 16.7951 9.22507 16.7633 9.22507 16.7316C9.22507 16.6044 9.11915 16.4985 8.99206 16.4985C8.86496 16.4985 8.75905 16.6044 8.75905 16.7316C8.75905 16.8587 8.86496 16.9647 8.99206 16.9647C9.02383 16.9647 9.0662 16.9541 9.08738 16.9435L9.69108 17.5474V19.5181C9.68049 19.5181 9.68049 19.5287 9.6699 19.5287L8.36717 18.2149C8.37776 18.1831 8.38835 18.1513 8.38835 18.1195C8.38835 17.9924 8.28244 17.8865 8.15534 17.8865C8.02824 17.8865 7.92233 17.9924 7.92233 18.1195C7.92233 18.2467 8.02824 18.3526 8.15534 18.3526C8.18711 18.3526 8.22948 18.3421 8.25066 18.3315L9.5534 19.6347C9.54281 19.6665 9.53222 19.6983 9.53222 19.73C9.53222 19.8572 9.63813 19.9631 9.76522 19.9631C9.797 19.9631 9.83936 19.9525 9.86055 19.9419L13.2074 23.2901C12.8049 23.3325 12.4025 23.3536 11.9894 23.3536C11.7352 23.3536 11.4916 23.343 11.248 23.3325L7.2233 19.3062C7.23389 19.2744 7.24448 19.2427 7.24448 19.2109C7.24448 19.0837 7.13857 18.9778 7.01147 18.9778C6.90556 18.9778 6.82083 19.0413 6.79965 19.1367H4.82966L1.19682 15.5025C0.836717 14.4006 0.646072 13.2245 0.646072 12.006C0.646072 5.7442 5.72992 0.658437 11.9894 0.658437C13.2604 0.658437 14.489 0.870343 15.6328 1.26237L17.1898 2.81989V4.79062C17.105 4.8224 17.0309 4.90717 17.0309 5.00252C17.0309 5.12967 17.1368 5.23562 17.2639 5.23562C17.2957 5.23562 17.338 5.22503 17.3592 5.21443L18.8526 6.70837V8.90161C18.8526 8.9122 18.8526 8.9228 18.8632 8.93339C18.8632 8.94399 18.8738 8.95458 18.8844 8.95458L20.9497 11.0207C20.9391 11.0525 20.9285 11.0842 20.9285 11.116C20.9285 11.222 20.9921 11.3067 21.0874 11.3385V13.3411C21.0874 13.3516 21.0874 13.3622 21.0874 13.3728C21.0874 13.3834 21.098 13.394 21.1086 13.394L22.8879 15.174C22.7396 15.672 22.5596 16.1594 22.3477 16.6362ZM22.9303 15.0045L21.2357 13.3093V11.3385C21.2462 11.3385 21.2462 11.3279 21.2568 11.3279L23.2586 13.3305C23.1951 13.892 23.0786 14.4536 22.9303 15.0045ZM21.3733 11.2114C21.3839 11.1796 21.3945 11.1478 21.3945 11.116C21.3945 10.9889 21.2886 10.8829 21.1615 10.8829C21.1297 10.8829 21.0874 10.8935 21.0662 10.9041L19.0221 8.85923V6.85671L23.3116 11.1478C23.3327 11.4339 23.3433 11.72 23.3433 12.006C23.3433 12.3875 23.3222 12.7583 23.2904 13.1291L21.3733 11.2114Z" fill="url(#paint15_linear_41_2683)"/>
<path d="M23.0468 7.3335C22.4431 5.90313 21.5746 4.62109 20.4731 3.51918C19.3716 2.41726 18.09 1.54844 16.6602 0.944511C15.1774 0.319386 13.6099 0.00152588 11.9894 0.00152588C10.3795 0.00152588 8.80141 0.319386 7.32921 0.944511C5.89938 1.54844 4.61783 2.41726 3.51633 3.51918C2.41483 4.62109 1.54634 5.90313 0.94263 7.3335C0.31774 8.80625 0 10.3744 0 11.9954C0 13.6165 0.31774 15.1846 0.94263 16.668C1.54634 18.0984 2.41483 19.3804 3.51633 20.4823C4.61783 21.5842 5.89938 22.453 7.32921 23.057C8.812 23.6821 10.3795 24 12 24C13.6205 24 15.188 23.6821 16.6708 23.057C18.1006 22.453 19.3822 21.5842 20.4837 20.4823C21.5852 19.3804 22.4537 18.0984 23.0574 16.668C23.6823 15.1846 24 13.6165 24 11.9954C23.9894 10.3744 23.6717 8.80625 23.0468 7.3335ZM22.6125 8.0116L20.2613 5.65943C20.2718 5.62765 20.2824 5.59586 20.2824 5.56408C20.2824 5.43693 20.1765 5.33098 20.0494 5.33098C19.9223 5.33098 19.8164 5.43693 19.8164 5.56408C19.8164 5.69122 19.9223 5.79717 20.0494 5.79717C20.0812 5.79717 20.1236 5.78658 20.1447 5.77598L22.729 8.36125C23.0044 9.17709 23.1951 10.0353 23.2798 10.9147L18.9903 6.62361L17.4757 5.09788C17.4863 5.0661 17.4969 5.03431 17.4969 5.00252C17.4969 4.89657 17.4334 4.81181 17.338 4.79062V2.7775C17.338 2.76691 17.338 2.75631 17.3274 2.74572C17.3274 2.73512 17.3169 2.72453 17.3169 2.72453L15.9823 1.37892C19.0327 2.52322 21.4581 4.96014 22.6125 8.0116ZM1.31333 15.8204L8.17652 22.6861C4.98853 21.5418 2.45719 19.0096 1.31333 15.8204ZM8.50485 22.8027L4.97793 19.2744H6.79965C6.83142 19.3592 6.91615 19.4334 7.01147 19.4334C7.04325 19.4334 7.08561 19.4228 7.1068 19.4122L11.0044 23.3113C10.1465 23.2265 9.29921 23.057 8.50485 22.8027ZM13.4086 23.2583L9.97705 19.8254C9.98764 19.7936 9.99823 19.7618 9.99823 19.73C9.99823 19.6347 9.93469 19.5393 9.83936 19.5181V17.6957L12.9214 20.779C12.9109 20.8108 12.9003 20.8426 12.9003 20.8743C12.9003 21.0015 13.0062 21.1074 13.1333 21.1074C13.165 21.1074 13.2074 21.0968 13.2286 21.0862L15.0609 22.9192C14.5313 23.0782 13.9806 23.1841 13.4086 23.2583ZM15.241 22.8769L13.3451 20.9803C13.3451 20.9697 13.3557 20.9697 13.3557 20.9591H15.1456C15.1774 21.0545 15.2621 21.118 15.3575 21.118C15.3892 21.118 15.4316 21.1074 15.4528 21.0968L16.692 22.3365C16.2259 22.5378 15.7493 22.7179 15.241 22.8769ZM16.8508 22.2517L15.5693 20.9803C15.5693 20.9697 15.5799 20.9697 15.5799 20.9591H17.5499L18.1324 21.5418C17.7193 21.8067 17.2957 22.0398 16.8508 22.2517ZM21.564 18.0772L20.0071 16.5197H22.0088L22.2736 16.7845C22.0724 17.2295 21.8288 17.6639 21.564 18.0772ZM22.3477 16.6362L22.1041 16.3925C22.0936 16.3819 22.0936 16.3819 22.083 16.3713C22.0724 16.3713 22.0618 16.3713 22.0512 16.3713H19.8588L18.3654 14.8774C18.376 14.8456 18.3866 14.8138 18.3866 14.782C18.3866 14.6549 18.2807 14.5489 18.1536 14.5489C18.0265 14.5489 17.9206 14.6549 17.9206 14.782C17.9206 14.9092 18.0265 15.0151 18.1536 15.0151C18.1853 15.0151 18.2277 15.0045 18.2489 14.9939L19.7635 16.5091L21.4793 18.2255C21.2145 18.6281 20.9285 19.0096 20.6214 19.3698L18.3124 17.06C18.323 17.0282 18.3336 16.9964 18.3336 16.9647C18.3336 16.8375 18.2277 16.7316 18.1006 16.7316C17.9735 16.7316 17.8676 16.8375 17.8676 16.9647C17.8676 17.0918 17.9735 17.1978 18.1006 17.1978C18.1324 17.1978 18.1748 17.1872 18.1959 17.1766L20.5154 19.4969C20.1977 19.8572 19.8694 20.1856 19.5199 20.5035L18.3124 19.2956C18.323 19.2638 18.3336 19.2321 18.3336 19.2003C18.3336 19.0731 18.2277 18.9672 18.1006 18.9672C17.9735 18.9672 17.8676 19.0731 17.8676 19.2003C17.8676 19.3274 17.9735 19.4334 18.1006 19.4334C18.1324 19.4334 18.1748 19.4228 18.1959 19.4122L19.3928 20.6095C19.0327 20.9167 18.6514 21.2134 18.2489 21.4783L17.624 20.8531C17.6134 20.8426 17.6134 20.8426 17.6028 20.832C17.5922 20.832 17.5816 20.8214 17.571 20.8214H15.5693C15.5375 20.7366 15.4528 20.6624 15.3575 20.6624C15.3257 20.6624 15.2939 20.673 15.2621 20.6836L13.1756 18.5963V16.4031C13.1756 16.3925 13.1756 16.3819 13.1756 16.3713C13.1756 16.3607 13.165 16.3501 13.1545 16.3501L10.8138 13.9874C10.8244 13.9556 10.835 13.9238 10.835 13.892C10.835 13.7649 10.729 13.6589 10.6019 13.6589C10.4748 13.6589 10.3689 13.7649 10.3689 13.892C10.3689 14.0192 10.4748 14.1251 10.6019 14.1251C10.6337 14.1251 10.6761 14.1145 10.6973 14.1039L13.0274 16.4243V18.4268L10.8138 16.2124C10.8244 16.1806 10.835 16.1488 10.835 16.117C10.835 15.9899 10.729 15.8839 10.6019 15.8839C10.4748 15.8839 10.3689 15.9899 10.3689 16.117C10.3689 16.2442 10.4748 16.3501 10.6019 16.3501C10.6337 16.3501 10.6761 16.3395 10.6973 16.3289L13.0485 18.6811L15.1562 20.7896C15.1562 20.8002 15.1456 20.8002 15.1456 20.8108H13.3557C13.3239 20.726 13.2392 20.6518 13.1439 20.6518C13.1121 20.6518 13.0697 20.6624 13.0485 20.673L9.20388 16.8269C9.21447 16.7951 9.22507 16.7633 9.22507 16.7316C9.22507 16.6044 9.11915 16.4985 8.99206 16.4985C8.86496 16.4985 8.75905 16.6044 8.75905 16.7316C8.75905 16.8587 8.86496 16.9647 8.99206 16.9647C9.02383 16.9647 9.0662 16.9541 9.08738 16.9435L9.69108 17.5474V19.5181C9.68049 19.5181 9.68049 19.5287 9.6699 19.5287L8.36717 18.2149C8.37776 18.1831 8.38835 18.1513 8.38835 18.1195C8.38835 17.9924 8.28244 17.8865 8.15534 17.8865C8.02824 17.8865 7.92233 17.9924 7.92233 18.1195C7.92233 18.2467 8.02824 18.3526 8.15534 18.3526C8.18711 18.3526 8.22948 18.3421 8.25066 18.3315L9.5534 19.6347C9.54281 19.6665 9.53222 19.6983 9.53222 19.73C9.53222 19.8572 9.63813 19.9631 9.76522 19.9631C9.797 19.9631 9.83936 19.9525 9.86055 19.9419L13.2074 23.2901C12.8049 23.3325 12.4025 23.3536 11.9894 23.3536C11.7352 23.3536 11.4916 23.343 11.248 23.3325L7.2233 19.3062C7.23389 19.2744 7.24448 19.2427 7.24448 19.2109C7.24448 19.0837 7.13857 18.9778 7.01147 18.9778C6.90556 18.9778 6.82083 19.0413 6.79965 19.1367H4.82966L1.19682 15.5025C0.836717 14.4006 0.646072 13.2245 0.646072 12.006C0.646072 5.7442 5.72992 0.658437 11.9894 0.658437C13.2604 0.658437 14.489 0.870343 15.6328 1.26237L17.1898 2.81989V4.79062C17.105 4.8224 17.0309 4.90717 17.0309 5.00252C17.0309 5.12967 17.1368 5.23562 17.2639 5.23562C17.2957 5.23562 17.338 5.22503 17.3592 5.21443L18.8526 6.70837V8.90161C18.8526 8.9122 18.8526 8.9228 18.8632 8.93339C18.8632 8.94399 18.8738 8.95458 18.8844 8.95458L20.9497 11.0207C20.9391 11.0525 20.9285 11.0842 20.9285 11.116C20.9285 11.222 20.9921 11.3067 21.0874 11.3385V13.3411C21.0874 13.3516 21.0874 13.3622 21.0874 13.3728C21.0874 13.3834 21.098 13.394 21.1086 13.394L22.8879 15.174C22.7396 15.672 22.5596 16.1594 22.3477 16.6362ZM22.9303 15.0045L21.2357 13.3093V11.3385C21.2462 11.3385 21.2462 11.3279 21.2568 11.3279L23.2586 13.3305C23.1951 13.892 23.0786 14.4536 22.9303 15.0045ZM21.3733 11.2114C21.3839 11.1796 21.3945 11.1478 21.3945 11.116C21.3945 10.9889 21.2886 10.8829 21.1615 10.8829C21.1297 10.8829 21.0874 10.8935 21.0662 10.9041L19.0221 8.85923V6.85671L23.3116 11.1478C23.3327 11.4339 23.3433 11.72 23.3433 12.006C23.3433 12.3875 23.3222 12.7583 23.2904 13.1291L21.3733 11.2114Z" fill="url(#paint16_radial_41_2683)" style="mix-blend-mode:overlay"/>
<path d="M23.0468 7.3335C22.4431 5.90313 21.5746 4.62109 20.4731 3.51918C19.3716 2.41726 18.09 1.54844 16.6602 0.944511C15.1774 0.319386 13.6099 0.00152588 11.9894 0.00152588C10.3795 0.00152588 8.80141 0.319386 7.32921 0.944511C5.89938 1.54844 4.61783 2.41726 3.51633 3.51918C2.41483 4.62109 1.54634 5.90313 0.94263 7.3335C0.31774 8.80625 0 10.3744 0 11.9954C0 13.6165 0.31774 15.1846 0.94263 16.668C1.54634 18.0984 2.41483 19.3804 3.51633 20.4823C4.61783 21.5842 5.89938 22.453 7.32921 23.057C8.812 23.6821 10.3795 24 12 24C13.6205 24 15.188 23.6821 16.6708 23.057C18.1006 22.453 19.3822 21.5842 20.4837 20.4823C21.5852 19.3804 22.4537 18.0984 23.0574 16.668C23.6823 15.1846 24 13.6165 24 11.9954C23.9894 10.3744 23.6717 8.80625 23.0468 7.3335ZM22.6125 8.0116L20.2613 5.65943C20.2718 5.62765 20.2824 5.59586 20.2824 5.56408C20.2824 5.43693 20.1765 5.33098 20.0494 5.33098C19.9223 5.33098 19.8164 5.43693 19.8164 5.56408C19.8164 5.69122 19.9223 5.79717 20.0494 5.79717C20.0812 5.79717 20.1236 5.78658 20.1447 5.77598L22.729 8.36125C23.0044 9.17709 23.1951 10.0353 23.2798 10.9147L18.9903 6.62361L17.4757 5.09788C17.4863 5.0661 17.4969 5.03431 17.4969 5.00252C17.4969 4.89657 17.4334 4.81181 17.338 4.79062V2.7775C17.338 2.76691 17.338 2.75631 17.3274 2.74572C17.3274 2.73512 17.3169 2.72453 17.3169 2.72453L15.9823 1.37892C19.0327 2.52322 21.4581 4.96014 22.6125 8.0116ZM1.31333 15.8204L8.17652 22.6861C4.98853 21.5418 2.45719 19.0096 1.31333 15.8204ZM8.50485 22.8027L4.97793 19.2744H6.79965C6.83142 19.3592 6.91615 19.4334 7.01147 19.4334C7.04325 19.4334 7.08561 19.4228 7.1068 19.4122L11.0044 23.3113C10.1465 23.2265 9.29921 23.057 8.50485 22.8027ZM13.4086 23.2583L9.97705 19.8254C9.98764 19.7936 9.99823 19.7618 9.99823 19.73C9.99823 19.6347 9.93469 19.5393 9.83936 19.5181V17.6957L12.9214 20.779C12.9109 20.8108 12.9003 20.8426 12.9003 20.8743C12.9003 21.0015 13.0062 21.1074 13.1333 21.1074C13.165 21.1074 13.2074 21.0968 13.2286 21.0862L15.0609 22.9192C14.5313 23.0782 13.9806 23.1841 13.4086 23.2583ZM15.241 22.8769L13.3451 20.9803C13.3451 20.9697 13.3557 20.9697 13.3557 20.9591H15.1456C15.1774 21.0545 15.2621 21.118 15.3575 21.118C15.3892 21.118 15.4316 21.1074 15.4528 21.0968L16.692 22.3365C16.2259 22.5378 15.7493 22.7179 15.241 22.8769ZM16.8508 22.2517L15.5693 20.9803C15.5693 20.9697 15.5799 20.9697 15.5799 20.9591H17.5499L18.1324 21.5418C17.7193 21.8067 17.2957 22.0398 16.8508 22.2517ZM21.564 18.0772L20.0071 16.5197H22.0088L22.2736 16.7845C22.0724 17.2295 21.8288 17.6639 21.564 18.0772ZM22.3477 16.6362L22.1041 16.3925C22.0936 16.3819 22.0936 16.3819 22.083 16.3713C22.0724 16.3713 22.0618 16.3713 22.0512 16.3713H19.8588L18.3654 14.8774C18.376 14.8456 18.3866 14.8138 18.3866 14.782C18.3866 14.6549 18.2807 14.5489 18.1536 14.5489C18.0265 14.5489 17.9206 14.6549 17.9206 14.782C17.9206 14.9092 18.0265 15.0151 18.1536 15.0151C18.1853 15.0151 18.2277 15.0045 18.2489 14.9939L19.7635 16.5091L21.4793 18.2255C21.2145 18.6281 20.9285 19.0096 20.6214 19.3698L18.3124 17.06C18.323 17.0282 18.3336 16.9964 18.3336 16.9647C18.3336 16.8375 18.2277 16.7316 18.1006 16.7316C17.9735 16.7316 17.8676 16.8375 17.8676 16.9647C17.8676 17.0918 17.9735 17.1978 18.1006 17.1978C18.1324 17.1978 18.1748 17.1872 18.1959 17.1766L20.5154 19.4969C20.1977 19.8572 19.8694 20.1856 19.5199 20.5035L18.3124 19.2956C18.323 19.2638 18.3336 19.2321 18.3336 19.2003C18.3336 19.0731 18.2277 18.9672 18.1006 18.9672C17.9735 18.9672 17.8676 19.0731 17.8676 19.2003C17.8676 19.3274 17.9735 19.4334 18.1006 19.4334C18.1324 19.4334 18.1748 19.4228 18.1959 19.4122L19.3928 20.6095C19.0327 20.9167 18.6514 21.2134 18.2489 21.4783L17.624 20.8531C17.6134 20.8426 17.6134 20.8426 17.6028 20.832C17.5922 20.832 17.5816 20.8214 17.571 20.8214H15.5693C15.5375 20.7366 15.4528 20.6624 15.3575 20.6624C15.3257 20.6624 15.2939 20.673 15.2621 20.6836L13.1756 18.5963V16.4031C13.1756 16.3925 13.1756 16.3819 13.1756 16.3713C13.1756 16.3607 13.165 16.3501 13.1545 16.3501L10.8138 13.9874C10.8244 13.9556 10.835 13.9238 10.835 13.892C10.835 13.7649 10.729 13.6589 10.6019 13.6589C10.4748 13.6589 10.3689 13.7649 10.3689 13.892C10.3689 14.0192 10.4748 14.1251 10.6019 14.1251C10.6337 14.1251 10.6761 14.1145 10.6973 14.1039L13.0274 16.4243V18.4268L10.8138 16.2124C10.8244 16.1806 10.835 16.1488 10.835 16.117C10.835 15.9899 10.729 15.8839 10.6019 15.8839C10.4748 15.8839 10.3689 15.9899 10.3689 16.117C10.3689 16.2442 10.4748 16.3501 10.6019 16.3501C10.6337 16.3501 10.6761 16.3395 10.6973 16.3289L13.0485 18.6811L15.1562 20.7896C15.1562 20.8002 15.1456 20.8002 15.1456 20.8108H13.3557C13.3239 20.726 13.2392 20.6518 13.1439 20.6518C13.1121 20.6518 13.0697 20.6624 13.0485 20.673L9.20388 16.8269C9.21447 16.7951 9.22507 16.7633 9.22507 16.7316C9.22507 16.6044 9.11915 16.4985 8.99206 16.4985C8.86496 16.4985 8.75905 16.6044 8.75905 16.7316C8.75905 16.8587 8.86496 16.9647 8.99206 16.9647C9.02383 16.9647 9.0662 16.9541 9.08738 16.9435L9.69108 17.5474V19.5181C9.68049 19.5181 9.68049 19.5287 9.6699 19.5287L8.36717 18.2149C8.37776 18.1831 8.38835 18.1513 8.38835 18.1195C8.38835 17.9924 8.28244 17.8865 8.15534 17.8865C8.02824 17.8865 7.92233 17.9924 7.92233 18.1195C7.92233 18.2467 8.02824 18.3526 8.15534 18.3526C8.18711 18.3526 8.22948 18.3421 8.25066 18.3315L9.5534 19.6347C9.54281 19.6665 9.53222 19.6983 9.53222 19.73C9.53222 19.8572 9.63813 19.9631 9.76522 19.9631C9.797 19.9631 9.83936 19.9525 9.86055 19.9419L13.2074 23.2901C12.8049 23.3325 12.4025 23.3536 11.9894 23.3536C11.7352 23.3536 11.4916 23.343 11.248 23.3325L7.2233 19.3062C7.23389 19.2744 7.24448 19.2427 7.24448 19.2109C7.24448 19.0837 7.13857 18.9778 7.01147 18.9778C6.90556 18.9778 6.82083 19.0413 6.79965 19.1367H4.82966L1.19682 15.5025C0.836717 14.4006 0.646072 13.2245 0.646072 12.006C0.646072 5.7442 5.72992 0.658437 11.9894 0.658437C13.2604 0.658437 14.489 0.870343 15.6328 1.26237L17.1898 2.81989V4.79062C17.105 4.8224 17.0309 4.90717 17.0309 5.00252C17.0309 5.12967 17.1368 5.23562 17.2639 5.23562C17.2957 5.23562 17.338 5.22503 17.3592 5.21443L18.8526 6.70837V8.90161C18.8526 8.9122 18.8526 8.9228 18.8632 8.93339C18.8632 8.94399 18.8738 8.95458 18.8844 8.95458L20.9497 11.0207C20.9391 11.0525 20.9285 11.0842 20.9285 11.116C20.9285 11.222 20.9921 11.3067 21.0874 11.3385V13.3411C21.0874 13.3516 21.0874 13.3622 21.0874 13.3728C21.0874 13.3834 21.098 13.394 21.1086 13.394L22.8879 15.174C22.7396 15.672 22.5596 16.1594 22.3477 16.6362ZM22.9303 15.0045L21.2357 13.3093V11.3385C21.2462 11.3385 21.2462 11.3279 21.2568 11.3279L23.2586 13.3305C23.1951 13.892 23.0786 14.4536 22.9303 15.0045ZM21.3733 11.2114C21.3839 11.1796 21.3945 11.1478 21.3945 11.116C21.3945 10.9889 21.2886 10.8829 21.1615 10.8829C21.1297 10.8829 21.0874 10.8935 21.0662 10.9041L19.0221 8.85923V6.85671L23.3116 11.1478C23.3327 11.4339 23.3433 11.72 23.3433 12.006C23.3433 12.3875 23.3222 12.7583 23.2904 13.1291L21.3733 11.2114Z" fill="#F0D7AB" style="mix-blend-mode:color"/>
<defs>
<linearGradient id="paint0_linear_41_2683" x1="0.985878" y1="1.315" x2="20.1574" y2="24.8334" gradientUnits="userSpaceOnUse">
<stop stop-color="#DBC7AC"/>
<stop offset="0.4403" stop-color="#E2E3DD"/>
<stop offset="1" stop-color="#F1DAB5"/>
</linearGradient>
<linearGradient id="paint1_linear_41_2683" x1="20.6409" y1="4.74623" x2="3.35415" y2="19.2288" gradientUnits="userSpaceOnUse">
<stop offset="3.31713e-07" stop-color="#1B1D15"/>
<stop offset="1" stop-color="#554F59"/>
</linearGradient>
<linearGradient id="paint2_linear_41_2683" x1="20.6409" y1="4.74623" x2="3.35415" y2="19.2288" gradientUnits="userSpaceOnUse">
<stop offset="3.31713e-07" stop-color="#1B1D15"/>
<stop offset="1" stop-color="#554F59"/>
</linearGradient>
<linearGradient id="paint3_linear_41_2683" x1="6.06885" y1="17.6145" x2="6.91281" y2="17.3753" gradientUnits="userSpaceOnUse">
<stop offset="0.0677083" stop-color="#7F8A8C"/>
<stop offset="0.21875" stop-color="#D5D5D5"/>
<stop offset="0.374419" stop-color="#848B8A"/>
<stop offset="0.555213" stop-color="#626F73"/>
<stop offset="0.796875" stop-color="#C4CDCF"/>
<stop offset="0.895833" stop-color="#8A9092"/>
<stop offset="1" stop-color="#758184"/>
</linearGradient>
<radialGradient id="paint4_radial_41_2683" cx="0" cy="0" r="1" gradientUnits="userSpaceOnUse" gradientTransform="translate(6.06885 17.0113) rotate(60.2003) scale(0.742688 0.78423)">
<stop stop-color="white"/>
<stop offset="1" stop-color="white" stop-opacity="0"/>
</radialGradient>
<linearGradient id="paint5_linear_41_2683" x1="2.46826" y1="14.5347" x2="3.30209" y2="14.298" gradientUnits="userSpaceOnUse">
<stop offset="0.0677083" stop-color="#7F8A8C"/>
<stop offset="0.21875" stop-color="#D5D5D5"/>
<stop offset="0.374419" stop-color="#848B8A"/>
<stop offset="0.555213" stop-color="#626F73"/>
<stop offset="0.796875" stop-color="#C4CDCF"/>
<stop offset="0.895833" stop-color="#8A9092"/>
<stop offset="1" stop-color="#758184"/>
</linearGradient>
<radialGradient id="paint6_radial_41_2683" cx="0" cy="0" r="1" gradientUnits="userSpaceOnUse" gradientTransform="translate(2.46826 13.9394) rotate(60.1665) scale(0.733164 0.774709)">
<stop stop-color="white"/>
<stop offset="1" stop-color="white" stop-opacity="0"/>
</radialGradient>
<linearGradient id="paint7_linear_41_2683" x1="1.62061" y1="12.9546" x2="2.45592" y2="12.7186" gradientUnits="userSpaceOnUse">
<stop offset="0.0677083" stop-color="#7F8A8C"/>
<stop offset="0.21875" stop-color="#D5D5D5"/>
<stop offset="0.374419" stop-color="#848B8A"/>
<stop offset="0.555213" stop-color="#626F73"/>
<stop offset="0.796875" stop-color="#C4CDCF"/>
<stop offset="0.895833" stop-color="#8A9092"/>
<stop offset="1" stop-color="#758184"/>
</linearGradient>
<radialGradient id="paint8_radial_41_2683" cx="0" cy="0" r="1" gradientUnits="userSpaceOnUse" gradientTransform="translate(1.62061 12.356) rotate(60.2747) scale(0.736417 0.776422)">
<stop stop-color="white"/>
<stop offset="1" stop-color="white" stop-opacity="0"/>
</radialGradient>
<linearGradient id="paint9_linear_41_2683" x1="1.07812" y1="11.1792" x2="1.92621" y2="10.9411" gradientUnits="userSpaceOnUse">
<stop offset="0.0677083" stop-color="#7F8A8C"/>
<stop offset="0.21875" stop-color="#D5D5D5"/>
<stop offset="0.374419" stop-color="#848B8A"/>
<stop offset="0.555213" stop-color="#626F73"/>
<stop offset="0.796875" stop-color="#C4CDCF"/>
<stop offset="0.895833" stop-color="#8A9092"/>
<stop offset="1" stop-color="#758184"/>
</linearGradient>
<radialGradient id="paint10_radial_41_2683" cx="0" cy="0" r="1" gradientUnits="userSpaceOnUse" gradientTransform="translate(1.07812 10.568) rotate(60.4374) scale(0.750687 0.788801)">
<stop stop-color="white"/>
<stop offset="1" stop-color="white" stop-opacity="0"/>
</radialGradient>
<linearGradient id="paint11_linear_41_2683" x1="11.3223" y1="15.1026" x2="17.9599" y2="14.0392" gradientUnits="userSpaceOnUse">
<stop offset="0.0677083" stop-color="#7F8A8C"/>
<stop offset="0.21875" stop-color="#D5D5D5"/>
<stop offset="0.374419" stop-color="#848B8A"/>
<stop offset="0.555213" stop-color="#626F73"/>
<stop offset="0.796875" stop-color="#C4CDCF"/>
<stop offset="0.895833" stop-color="#8A9092"/>
<stop offset="1" stop-color="#758184"/>
</linearGradient>
<radialGradient id="paint12_radial_41_2683" cx="0" cy="0" r="1" gradientUnits="userSpaceOnUse" gradientTransform="translate(11.3223 7.13374) rotate(72.0632) scale(8.94887 6.42006)">
<stop stop-color="white"/>
<stop offset="1" stop-color="white" stop-opacity="0"/>
</radialGradient>
<linearGradient id="paint13_linear_41_2683" x1="1.3877" y1="11.9238" x2="15.8221" y2="8.47175" gradientUnits="userSpaceOnUse">
<stop offset="0.0677083" stop-color="#7F8A8C"/>
<stop offset="0.21875" stop-color="#D5D5D5"/>
<stop offset="0.374419" stop-color="#848B8A"/>
<stop offset="0.555213" stop-color="#626F73"/>
<stop offset="0.796875" stop-color="#C4CDCF"/>
<stop offset="0.895833" stop-color="#8A9092"/>
<stop offset="1" stop-color="#758184"/>
</linearGradient>
<radialGradient id="paint14_radial_41_2683" cx="0" cy="0" r="1" gradientUnits="userSpaceOnUse" gradientTransform="translate(1.3877 -0.0415432) rotate(64.209) scale(14.1981 13.6189)">
<stop stop-color="white"/>
<stop offset="1" stop-color="white" stop-opacity="0"/>
</radialGradient>
<linearGradient id="paint15_linear_41_2683" x1="-6.61572e-08" y1="15.9015" x2="25.1617" y2="8.76664" gradientUnits="userSpaceOnUse">
<stop offset="0.0677083" stop-color="#7F8A8C"/>
<stop offset="0.21875" stop-color="#D5D5D5"/>
<stop offset="0.374419" stop-color="#848B8A"/>
<stop offset="0.555213" stop-color="#626F73"/>
<stop offset="0.796875" stop-color="#C4CDCF"/>
<stop offset="0.895833" stop-color="#8A9092"/>
<stop offset="1" stop-color="#758184"/>
</linearGradient>
<radialGradient id="paint16_radial_41_2683" cx="0" cy="0" r="1" gradientUnits="userSpaceOnUse" gradientTransform="translate(-5.29073e-07 -2.07608) rotate(60.1894) scale(22.1365 23.3799)">
<stop stop-color="white"/>
<stop offset="1" stop-color="white" stop-opacity="0"/>
</radialGradient>
</defs>
</svg>
