<svg width="32" height="32" viewBox="0 0 32 32" fill="none" xmlns="http://www.w3.org/2000/svg">
<g clip-path="url(#clip0_405_2059)">
<path d="M16 32C24.8366 32 32 24.8366 32 16C32 7.16344 24.8366 0 16 0C7.16344 0 0 7.16344 0 16C0 24.8366 7.16344 32 16 32Z" fill="#2E3038"/>
<path d="M18.9316 17.7799C18.9676 17.6404 19.0223 17.5082 19.1016 17.3916C19.099 17.3996 19.0609 17.5247 19.0426 17.7015C19.0244 17.8842 19.0274 18.122 19.1143 18.342L19.4767 17.5951C19.4767 17.5951 19.1117 17.1605 19.2516 16.1008C19.3551 15.3157 19.3483 14.6658 19.1363 14.1062C18.9252 13.3394 18.3177 12.9023 17.5971 12.5657C17.3703 12.4598 16.932 12.2694 16.6988 12.1422C16.6916 12.138 16.6844 12.1342 16.6776 12.1304L16.5453 12.2071C16.5687 12.2376 16.5954 12.2669 16.6255 12.2944C16.639 12.3076 16.6534 12.3199 16.6687 12.3322C16.8145 12.4504 17.0206 12.5488 17.2541 12.6603C17.6106 12.8307 18.0545 13.0426 18.3991 13.3826C18.7332 13.712 18.9337 14.0749 19.0299 14.5242C19.0931 14.8201 19.1113 15.1584 19.0846 15.567C19.0846 15.5594 19.1507 14.2923 18.3868 13.6395C17.5619 12.9341 16.834 12.7722 16.5869 12.3737C16.5784 12.3601 16.5704 12.3461 16.5632 12.3322C16.5428 12.2932 16.5275 12.2516 16.5165 12.2071L15.7162 12.1558C15.7141 12.1575 15.7115 12.1588 15.7094 12.1605C15.4826 12.3118 14.9078 12.5034 14.5233 12.7183C14.4919 12.7344 14.461 12.751 14.43 12.7675C13.9133 13.0426 13.5479 13.4123 13.3448 13.8765C13.0358 14.4865 13.0103 15.2059 13.1286 16.1008C13.2681 17.1605 12.9031 17.5951 12.9031 17.5951L13.2659 18.342C13.349 18.1309 13.3554 17.9041 13.3393 17.7248C13.3223 17.5357 13.2812 17.4001 13.2787 17.3916C13.3618 17.5141 13.4177 17.654 13.4537 17.8019C13.5271 18.1021 13.5169 18.4344 13.4809 18.7172C13.3876 18.9083 13.2884 19.0864 13.2113 19.2432C13.4219 19.7248 13.6559 20.189 13.8302 20.6739C14.0697 21.3408 14.5182 21.757 15.227 21.9881V17.8367C14.7492 17.6781 14.4148 17.5183 14.1939 17.3492C14.0786 17.2606 13.9942 17.1694 13.9362 17.0745C13.9268 17.0592 13.9184 17.0444 13.9107 17.0291C13.7895 16.793 13.8242 16.5336 13.951 16.2326C13.9586 16.2432 13.9667 16.2538 13.9747 16.264C14.0036 16.3008 14.0332 16.336 14.0633 16.3699C14.4898 16.8468 15.0646 17.024 15.7721 17.0677C15.7632 17.1313 15.7539 17.194 15.745 17.2572C15.7255 17.3933 15.7064 17.5276 15.6873 17.662C15.7505 17.6866 15.7874 17.6985 15.7874 17.6985C15.8421 18.0168 15.8739 18.4327 15.809 18.7549C15.7874 18.8647 15.7543 18.9634 15.7073 19.044L16.1901 19.3573L16.6729 19.044C16.6263 18.9647 16.5937 18.8672 16.5716 18.7591C16.5059 18.4365 16.5377 18.0181 16.5928 17.6985C16.5928 17.6985 16.6339 17.6853 16.7047 17.6574C16.6946 17.5819 16.6848 17.5069 16.6751 17.4318C16.6738 17.4323 16.6729 17.4327 16.6717 17.4335L16.6471 17.2572H16.6522C16.6518 17.2555 16.6518 17.2542 16.6518 17.253C16.6433 17.1877 16.6344 17.1224 16.6259 17.0567C16.8514 17.0465 17.0617 17.0202 17.258 16.9732C17.3826 16.9431 17.5017 16.9049 17.6157 16.857C17.8688 16.751 18.0981 16.5976 18.3088 16.3827C18.3398 16.3513 18.3703 16.3182 18.4004 16.2843C18.4386 16.2411 18.4763 16.1961 18.5132 16.1487C18.5132 16.4971 18.5946 16.7833 18.4975 16.9821C18.4161 17.1482 18.3063 17.2758 18.1804 17.3772C17.8786 17.6201 17.4856 17.7121 17.1732 17.8248V21.9584C17.8345 21.7448 18.266 21.356 18.5106 20.749C18.7171 20.2352 18.9417 19.7286 19.1685 19.1941C19.1028 19.094 19.0011 18.9719 18.9155 18.832C18.8663 18.5209 18.8417 18.1271 18.9316 17.7799V17.7799ZM14.8717 20.8253C14.9798 20.4353 15.0455 19.8664 15.0841 19.3971C15.1079 19.9143 15.1117 20.5608 15.0193 21.3001C14.7683 21.0182 14.3982 20.5798 14.0358 20.066C14.4754 20.543 14.8717 20.8253 14.8717 20.8253ZM18.3021 20.1385C18.5034 19.6845 18.5806 19.3293 18.5806 19.3293C18.4983 18.9134 18.5013 18.5692 18.5373 18.3013C18.5962 17.86 18.745 17.6252 18.7506 17.6162C18.6687 17.8664 18.6458 18.1402 18.6531 18.3979C18.6653 18.813 18.7556 19.1873 18.8035 19.359C18.6416 19.6332 18.472 19.8956 18.3021 20.1385Z" fill="url(#paint0_linear_405_2059)"/>
<path d="M13.991 16.4325C13.9695 16.5108 13.9659 16.5911 13.9747 16.6683C13.979 16.7069 13.9877 16.7447 13.9979 16.7817C14.0097 16.8183 14.0225 16.8543 14.0398 16.8885C14.0731 16.9574 14.1165 17.021 14.1667 17.0792C14.2169 17.1373 14.2726 17.1915 14.3339 17.2398L14.3563 17.2585L14.3799 17.276L14.4269 17.311L14.4757 17.344C14.4919 17.3551 14.5083 17.3661 14.5252 17.3762C14.5587 17.3969 14.5919 17.4183 14.6267 17.4373C14.6611 17.457 14.6955 17.4769 14.731 17.4949C14.8716 17.5699 15.0178 17.6362 15.1649 17.7056C15.0052 17.6755 14.8487 17.6284 14.6976 17.5654C14.6788 17.5573 14.6596 17.5499 14.6411 17.5412L14.5856 17.5145C14.5482 17.4976 14.5127 17.4766 14.4765 17.4568C14.4583 17.4472 14.4409 17.4359 14.4235 17.4248L14.3711 17.3914L14.3207 17.3548L14.2955 17.3365L14.2713 17.3167C14.2062 17.2647 14.1464 17.2049 14.0941 17.1387C14.042 17.0724 13.9979 16.9985 13.9682 16.9188C13.9528 16.8792 13.9425 16.8376 13.9347 16.7961C13.9282 16.7542 13.9247 16.712 13.9263 16.67C13.9307 16.5864 13.949 16.5029 13.991 16.4325L13.991 16.4325Z" fill="url(#paint1_linear_405_2059)"/>
<path d="M18.3645 16.4326C18.4065 16.503 18.4248 16.5865 18.4292 16.6701C18.4309 16.7121 18.4273 16.7543 18.4209 16.7963C18.413 16.8378 18.4028 16.8793 18.3873 16.9189C18.3576 16.9986 18.3136 17.0725 18.2614 17.1388C18.2091 17.205 18.1493 17.2648 18.0842 17.3168L18.06 17.3366L18.0348 17.355L17.9844 17.3916L17.932 17.4249C17.9146 17.436 17.8972 17.4473 17.879 17.4569C17.8428 17.4767 17.8073 17.4977 17.7699 17.5147L17.7144 17.5414C17.6959 17.5501 17.6768 17.5574 17.6579 17.5655C17.5069 17.6285 17.3503 17.6757 17.1906 17.7057C17.3377 17.6363 17.4839 17.57 17.6245 17.495C17.66 17.4771 17.6944 17.4571 17.7288 17.4375C17.7636 17.4184 17.7968 17.397 17.8303 17.3763C17.8473 17.3662 17.8636 17.3552 17.8798 17.3441L17.9286 17.3111L17.9757 17.2761L17.9992 17.2586L18.0217 17.2399C18.0829 17.1916 18.1386 17.1375 18.1888 17.0793C18.239 17.0211 18.2824 16.9576 18.3157 16.8887C18.333 16.8545 18.3458 16.8184 18.3576 16.7818C18.3678 16.7448 18.3765 16.7071 18.3808 16.6684C18.3896 16.5912 18.3861 16.511 18.3645 16.4327L18.3645 16.4326Z" fill="url(#paint2_linear_405_2059)"/>
<path d="M17.0018 11.516L16.1833 10.007L15.4291 11.516L15.8758 12.5438L16.5421 12.467L17.0018 11.516Z" fill="url(#paint3_linear_405_2059)"/>
<path d="M10.9435 8.6156L14.0301 12.7955C13.6384 13.0656 13.3528 13.4014 13.1784 13.7979C12.8789 14.3922 12.8096 15.0885 12.9461 16.1247C12.9707 16.3109 12.9786 16.4757 12.9755 16.6207L12.7636 16.3098L12.8356 16.5506L12.4956 16.0919L10.3094 22.0182H5.38L5.69688 20.6173H7.00851L10.9435 8.6156Z" fill="url(#paint4_linear_405_2059)"/>
<path d="M27 22.0182H22.0704L19.8845 16.0919L19.5469 16.5471L19.6206 16.3019L19.4043 16.6196C19.4014 16.475 19.4093 16.3103 19.4337 16.1247C19.5516 15.2303 19.5138 14.5894 19.3111 14.0491C19.1478 13.4645 18.774 13.0683 18.3597 12.7824L21.4366 8.6156L25.3715 20.6173H26.6832L27 22.0182V22.0182Z" fill="url(#paint5_linear_405_2059)"/>
</g>
<defs>
<linearGradient id="paint0_linear_405_2059" x1="16.1899" y1="7.61365" x2="16.1899" y2="23.0359" gradientUnits="userSpaceOnUse">
<stop stop-color="#F1C214"/>
<stop offset="1" stop-color="#A3864A"/>
</linearGradient>
<linearGradient id="paint1_linear_405_2059" x1="14.5454" y1="7.61351" x2="14.5454" y2="23.0357" gradientUnits="userSpaceOnUse">
<stop stop-color="#F1C214"/>
<stop offset="1" stop-color="#A3864A"/>
</linearGradient>
<linearGradient id="paint2_linear_405_2059" x1="17.8101" y1="7.61359" x2="17.8101" y2="23.0358" gradientUnits="userSpaceOnUse">
<stop stop-color="#F1C214"/>
<stop offset="1" stop-color="#A3864A"/>
</linearGradient>
<linearGradient id="paint3_linear_405_2059" x1="16.2154" y1="7.61362" x2="16.2154" y2="23.0358" gradientUnits="userSpaceOnUse">
<stop stop-color="#F1C214"/>
<stop offset="1" stop-color="#A3864A"/>
</linearGradient>
<linearGradient id="paint4_linear_405_2059" x1="9.70508" y1="7.61351" x2="9.70508" y2="23.0357" gradientUnits="userSpaceOnUse">
<stop stop-color="#F1C214"/>
<stop offset="1" stop-color="#A3864A"/>
</linearGradient>
<linearGradient id="paint5_linear_405_2059" x1="22.6798" y1="7.61351" x2="22.6798" y2="23.0357" gradientUnits="userSpaceOnUse">
<stop stop-color="#F1C214"/>
<stop offset="1" stop-color="#A3864A"/>
</linearGradient>
<clipPath id="clip0_405_2059">
<rect width="32" height="32" fill="white"/>
</clipPath>
</defs>
</svg>
