<svg width="72" height="72" viewBox="0 0 72 72" fill="none" xmlns="http://www.w3.org/2000/svg">
<circle cx="36" cy="36" r="36" fill="url(#paint0_linear_145_2074)"/>
<path d="M49.8693 44.068C47.1881 46.408 45.0431 51.478 45.0431 51.478C45.0431 51.478 41.6794 45.9205 38.7544 44.0193C34.1231 41.0456 32.1244 40.9968 32.1244 40.9968V43.3368C32.1244 43.3368 35.9269 43.9218 37.8281 45.5793C41.8256 49.0405 45.0431 54.598 45.0431 54.598C45.0431 54.598 47.9193 48.2118 50.6981 46.018C54.5981 42.9955 57.9618 43.3368 57.9618 43.3368V40.9968C57.9618 40.9481 53.1356 41.2406 49.8693 44.068Z" fill="white"/>
<path d="M32.1244 50.6493C29.0044 48.8943 23.4469 48.5531 23.4469 48.5531C23.4469 48.5531 27.6882 43.6293 28.5657 40.2656C29.9307 35.0006 29.2969 33.0994 29.2969 33.0994L27.0544 33.8794C27.0544 33.8794 27.6882 37.6331 26.7619 39.9243C24.7632 44.7506 20.4244 49.5768 20.4244 49.5768C20.4244 49.5768 27.5419 50.2106 30.5157 52.063C34.7081 54.6955 35.4881 57.913 35.4881 57.913L37.7306 57.133C37.7306 57.1818 35.8781 52.7943 32.1244 50.6493Z" fill="white"/>
<path d="M28.8582 29.5893C34.3669 29.1506 35.9756 27.9318 35.9756 27.9318L34.5131 26.0793C34.5131 26.0793 31.1494 27.8831 28.6144 27.7368C23.3007 27.4443 17.2557 25.0068 17.2557 25.0068C17.2557 25.0068 18.962 31.8318 18.1332 35.1955C16.9632 40.0218 14.087 41.7768 14.087 41.7768L15.5495 43.6293C15.5495 43.6293 19.2057 40.4605 19.9857 36.268C20.6195 32.8068 19.157 27.4931 19.157 27.4931C19.157 27.4931 25.2994 29.8818 28.8582 29.5893Z" fill="white"/>
<path d="M29.8819 20.3269C33.4407 19.7906 38.0231 16.7194 38.0231 16.7194C38.0231 16.7194 37.7306 23.1544 39.1931 26.3719C41.4356 31.3443 43.0931 32.4656 43.0931 32.4656L44.4094 30.5156C44.4094 30.5156 41.5331 27.9806 40.8506 25.5431C39.3881 20.5219 39.7781 14.0869 39.7781 14.0869C39.7781 14.0869 33.7819 17.8894 30.2719 18.2306C25.2994 18.7181 22.667 16.6219 22.667 16.6219L21.3507 18.6206C21.3507 18.5719 25.5919 20.9606 29.8819 20.3269Z" fill="white"/>
<path d="M43.3369 41.1431C43.3369 41.1431 44.8481 37.6331 46.9444 36.2194C51.3318 33.2456 57.6206 31.4907 57.6206 31.4907C57.6206 31.4907 52.0143 27.1519 50.5519 23.9832C48.5044 19.5469 49.6256 16.3782 49.6256 16.3782L47.2856 15.7932C47.2856 15.7932 46.3594 20.4732 48.3581 24.2757C50.0156 27.3957 54.4518 30.7107 54.4518 30.7107C54.4518 30.7107 48.2119 32.5631 45.5794 34.9519C41.5331 38.6569 40.9969 40.5581 40.9969 40.5581L43.3369 41.1431Z" fill="white"/>
<defs>
<linearGradient id="paint0_linear_145_2074" x1="0" y1="0" x2="72" y2="72" gradientUnits="userSpaceOnUse">
<stop stop-color="#2EBAC6"/>
<stop offset="1" stop-color="#627EEA"/>
</linearGradient>
</defs>
</svg>
