<svg width="20" height="20" viewBox="0 0 20 20" fill="none" xmlns="http://www.w3.org/2000/svg">
<path d="M10 18.85V3.67856" stroke="white" stroke-width="1.3" stroke-linecap="round" stroke-linejoin="round"/>
<path d="M6.20715 18.85H13.7929" stroke="white" stroke-width="1.3" stroke-linecap="round" stroke-linejoin="round"/>
<path d="M11.2643 2.41428H15.6893" stroke="white" stroke-width="1.3" stroke-linecap="round" stroke-linejoin="round"/>
<path d="M4.3107 2.41428H8.7357" stroke="white" stroke-width="1.3" stroke-linecap="round" stroke-linejoin="round"/>
<path d="M10 3.67857C10.6982 3.67857 11.2643 3.11253 11.2643 2.41428C11.2643 1.71603 10.6982 1.14999 10 1.14999C9.30176 1.14999 8.73572 1.71603 8.73572 2.41428C8.73572 3.11253 9.30176 3.67857 10 3.67857Z" stroke="white" stroke-width="1.3" stroke-linecap="round" stroke-linejoin="round"/>
<path d="M7.47142 11.2643C7.47142 12.1026 7.13842 12.9065 6.54567 13.4992C5.95292 14.092 5.14898 14.425 4.31071 14.425C3.47243 14.425 2.66849 14.092 2.07575 13.4992C1.483 12.9065 1.14999 12.1026 1.14999 11.2643H7.47142Z" stroke="white" stroke-width="1.3" stroke-linecap="round" stroke-linejoin="round"/>
<path d="M4.31071 2.41428L1.14999 8.7357" stroke="white" stroke-width="1.3" stroke-linecap="round" stroke-linejoin="round"/>
<path d="M4.3107 2.41428L7.47141 8.7357" stroke="white" stroke-width="1.3" stroke-linecap="round" stroke-linejoin="round"/>
<path d="M18.85 11.2643C18.85 12.1026 18.517 12.9065 17.9242 13.4992C17.3315 14.092 16.5276 14.425 15.6893 14.425C14.851 14.425 14.0471 14.092 13.4543 13.4992C12.8616 12.9065 12.5286 12.1026 12.5286 11.2643H18.85Z" stroke="white" stroke-width="1.3" stroke-linecap="round" stroke-linejoin="round"/>
<path d="M15.6893 2.41428L12.5286 8.7357" stroke="white" stroke-width="1.3" stroke-linecap="round" stroke-linejoin="round"/>
<path d="M15.6893 2.41428L18.85 8.7357" stroke="white" stroke-width="1.3" stroke-linecap="round" stroke-linejoin="round"/>
</svg>
