<svg width="72" height="72" viewBox="0 0 72 72" fill="none" xmlns="http://www.w3.org/2000/svg">
<circle cx="36" cy="36" r="36" fill="url(#paint0_linear_145_2075)"/>
<path fill-rule="evenodd" clip-rule="evenodd" d="M35.999 57.913C34.7723 57.913 33.5763 57.7869 32.4036 57.594L33.4087 55.0894C34.2581 55.2044 35.1186 55.2837 35.999 55.2837C37.217 55.2837 38.4048 55.1566 39.5604 54.9414L36.6394 51.7774H32.4932H31.6166H30.7401V49.1487H27.8673C27.5639 49.6697 27.0048 50.0252 26.3581 50.0252C25.39 50.0252 24.6045 49.2402 24.6045 48.2716C24.6045 47.303 25.3895 46.5184 26.3581 46.5184C27.0053 46.5184 27.5644 46.873 27.8673 47.395H30.7401V46.5184V44.7648H32.4932H41.259V45.1398L43.4096 47.4695C43.563 47.4257 43.7217 47.395 43.8883 47.395C44.8564 47.395 45.6414 48.18 45.6414 49.1487C45.6414 50.1163 44.8569 50.9008 43.8883 50.9008C42.9196 50.9008 42.1356 50.1168 42.1356 49.1487C42.1356 49.0045 42.157 48.8667 42.1892 48.7328L40.1453 46.5184H32.4937V50.0248H37.7527V50.3988L41.5147 54.4729C44.7171 53.5184 47.5602 51.7453 49.8281 49.4107L47.1579 46.5184H46.5185V38.2279L43.8717 35.363C43.1398 36.0004 42.3616 36.6788 41.6067 37.3367C41.4611 37.4648 41.1718 37.7161 41.1718 37.7161L40.3824 37.7278V37.7526H36.6331C36.3297 38.2747 35.7706 38.6297 35.1234 38.6297C34.1553 38.6297 33.3703 37.8447 33.3703 36.8761C33.3703 35.9074 34.1553 35.1234 35.1234 35.1234C35.7706 35.1234 36.3297 35.4779 36.6331 36H40.3824V36.1913L45.6414 31.5051V24.6049H42.1361V28.3547C42.6572 28.6581 43.0117 29.2172 43.0117 29.8639C43.0117 30.832 42.2276 31.6175 41.259 31.6175C40.2914 31.6175 39.5059 30.8325 39.5059 29.8639C39.5059 29.2167 39.8604 28.6576 40.3824 28.3547V24.6049V23.7283V22.8517H45.6414V19.3537C44.947 18.9519 44.234 18.5779 43.4884 18.2638C43.2094 18.3924 42.9011 18.4693 42.5734 18.4693C41.3637 18.4693 40.3824 17.488 40.3824 16.2779C40.3824 15.0682 41.3637 14.0869 42.5734 14.0869C43.6657 14.0869 44.5637 14.8875 44.7298 15.9316C52.4817 19.3065 57.9126 27.0062 57.9126 36C57.9126 48.1021 48.1022 57.913 35.999 57.913ZM50.9004 36.8765C49.9323 36.8765 49.1477 36.0925 49.1477 35.1239C49.1477 34.4767 49.5028 33.9176 50.0238 33.6137V26.3586H50.9004H51.7775H52.6882C51.3475 24.0546 49.5369 22.0589 47.3951 20.4884V33.3707H46.1572C45.8727 33.6181 45.5484 33.9015 45.1939 34.2098L48.3715 37.6523L48.2395 37.7531H48.2707V40.3829H49.3908C49.6937 39.8608 50.2527 39.5063 50.8999 39.5063C51.8681 39.5063 52.6536 40.2913 52.6536 41.2599C52.6536 42.2276 51.8686 43.0131 50.8999 43.0131C50.2527 43.0131 49.6937 42.6581 49.3908 42.1365H48.2707V45.1403L50.9968 48.0929C53.6699 44.7857 55.2833 40.5859 55.2833 36.0004C55.2833 33.1842 54.6668 30.5184 53.5798 28.1117H51.777V33.6137C52.2991 33.9181 52.6536 34.4767 52.6536 35.1239C52.6536 36.092 51.8686 36.8765 50.9004 36.8765ZM35.999 16.7162C35.4078 16.7162 34.8244 16.7532 34.2469 16.8053V22.3501L36.3974 24.6799C36.5503 24.6361 36.7091 24.6054 36.8756 24.6054C37.8438 24.6054 38.6293 25.3904 38.6293 26.359C38.6293 27.3272 37.8442 28.1122 36.8756 28.1122C35.907 28.1122 35.123 27.3272 35.123 26.359C35.123 26.2154 35.1444 26.0771 35.177 25.9436L33.9425 24.6054H33.0084L29.9161 27.3014L32.2828 29.8644H32.4927V30.0923L32.5015 30.102L32.4927 30.1098V41.2604H41.5025C41.8054 40.7379 42.3645 40.3833 43.0117 40.3833C43.9798 40.3833 44.7653 41.1684 44.7653 42.137C44.7653 43.1056 43.9803 43.8897 43.0117 43.8897C42.3645 43.8897 41.8054 43.5347 41.5025 43.0136H32.4937H31.6171H30.7405V30.7775L22.7008 22.0687C22.2138 22.5328 21.7551 23.0246 21.3183 23.5369L28.7775 31.6175H28.9874V31.845L28.9961 31.8547L28.9874 31.8625V42.1365V43.8892H27.2347H22.8518H21.9762H21.0996V39.5068H17.0445C18.3808 46.7605 23.7761 52.5858 30.7917 54.5528L29.8055 57.0116C20.7217 54.3361 14.087 45.9491 14.087 36.0004C14.087 23.8978 23.8979 14.0874 35.9995 14.0874C37.1912 14.0874 38.3522 14.2082 39.4922 14.3913L38.488 16.8954C37.6714 16.7902 36.8449 16.7162 35.999 16.7162ZM20.225 24.9375C18.017 28.0664 16.7157 31.8776 16.7157 36.0004C16.7157 36.5917 16.7464 37.1751 16.799 37.7531H22.8513V38.6302V39.5068V42.1365H27.2342V32.5306L24.4939 29.5625L21.9465 33.0907C21.9616 33.1822 21.9757 33.2748 21.9757 33.3707C21.9757 34.3388 21.1907 35.1239 20.2225 35.1239C19.2544 35.1239 18.4694 34.3388 18.4694 33.3707C18.4694 32.4026 19.2544 31.6175 20.2225 31.6175C20.4178 31.6175 20.6019 31.657 20.7772 31.7159L23.2813 28.2486L20.225 24.9375ZM32.4937 17.0502C29.3297 17.6322 26.4463 18.9972 24.0254 20.9179L28.7278 26.0123L32.4937 22.729V17.0502Z" fill="white"/>
<defs>
<linearGradient id="paint0_linear_145_2075" x1="0" y1="0" x2="72" y2="72" gradientUnits="userSpaceOnUse">
<stop stop-color="#B469FF"/>
<stop offset="1" stop-color="#7D1FF8"/>
</linearGradient>
</defs>
</svg>
